<?xml version="1.0" encoding="UTF-8"?>
<!DOCTYPE svg PUBLIC "-//W3C//DTD SVG 1.1//EN" "http://www.w3.org/Graphics/SVG/1.1/DTD/svg11.dtd">
<!-- Creator: CorelDRAW 2017 -->
<svg xmlns="http://www.w3.org/2000/svg" xml:space="preserve" width="55px" height="72px" version="1.1" style="shape-rendering:geometricPrecision; text-rendering:geometricPrecision; image-rendering:optimizeQuality; fill-rule:evenodd; clip-rule:evenodd"
viewBox="0 0 1.48 1.93"
 xmlns:xlink="http://www.w3.org/1999/xlink">
 <defs>
  <style type="text/css">
   <![CDATA[
    .fil0 {fill:white}
   ]]>
  </style>
 </defs>
 <g id="Camada_x0020_1">
  <metadata id="CorelCorpID_0Corel-Layer"/>
  <path class="fil0" d="M0.12 0.78l0.02 0 0 -0.18c0,-0.33 0.27,-0.6 0.6,-0.6 0.33,0 0.6,0.27 0.6,0.6l0 0.18 0.02 0c0.07,0 0.12,0.05 0.12,0.12l0 0.91c0,0.07 -0.05,0.12 -0.12,0.12l-1.24 0c-0.07,0 -0.12,-0.05 -0.12,-0.12l0 -0.91c0,-0.07 0.05,-0.12 0.12,-0.12zm0.27 0l0.7 0 0 -0.18c0,-0.2 -0.16,-0.35 -0.35,-0.35 -0.19,0 -0.35,0.15 -0.35,0.35l0 0.18zm0.35 0.3c0.09,0 0.16,0.07 0.16,0.16 0,0.04 -0.01,0.07 -0.04,0.1l0 0.27c0,0.04 -0.03,0.07 -0.06,0.07l-0.12 0c-0.03,0 -0.06,-0.03 -0.06,-0.07l0 -0.27c-0.03,-0.03 -0.04,-0.06 -0.04,-0.1 0,-0.09 0.07,-0.16 0.16,-0.16z"/>
 </g>
</svg>
