<?xml version="1.0" encoding="UTF-8"?>
<!DOCTYPE svg PUBLIC "-//W3C//DTD SVG 1.1//EN" "http://www.w3.org/Graphics/SVG/1.1/DTD/svg11.dtd">
<!-- Creator: CorelDRAW 2017 -->
<svg xmlns="http://www.w3.org/2000/svg" xml:space="preserve" width="72px" height="72px" version="1.1" style="shape-rendering:geometricPrecision; text-rendering:geometricPrecision; image-rendering:optimizeQuality; fill-rule:evenodd; clip-rule:evenodd"
viewBox="0 0 1.85 1.85"
 xmlns:xlink="http://www.w3.org/1999/xlink">
 <defs>
  <style type="text/css">
   <![CDATA[
    .fil0 {fill:white}
   ]]>
  </style>
 </defs>
 <g id="Camada_x0020_1">
  <metadata id="CorelCorpID_0Corel-Layer"/>
  <path class="fil0" d="M1.13 0c0.4,0 0.72,0.32 0.72,0.72 0,0.4 -0.32,0.72 -0.72,0.72 -0.17,0 -0.33,-0.06 -0.45,-0.17l-0.58 0.58 -0.1 -0.1 0.57 -0.58c-0.1,-0.12 -0.16,-0.28 -0.16,-0.45 0,-0.4 0.32,-0.72 0.72,-0.72zm0 0.14c0.32,0 0.58,0.26 0.58,0.58 0,0.32 -0.26,0.58 -0.58,0.58 -0.32,0 -0.58,-0.26 -0.58,-0.58 0,-0.32 0.26,-0.58 0.58,-0.58zm-0.21 0.38c0.03,0 0.06,0.03 0.06,0.07 0,0.03 -0.03,0.06 -0.06,0.06 -0.04,0 -0.07,-0.03 -0.07,-0.06 0,-0.04 0.03,-0.07 0.07,-0.07zm0.43 0c0.03,0 0.06,0.03 0.06,0.07 0,0.03 -0.03,0.06 -0.06,0.06 -0.04,0 -0.07,-0.03 -0.07,-0.06 0,-0.04 0.03,-0.07 0.07,-0.07zm-0.39 0.48c-0.04,0.01 -0.08,0.01 -0.1,-0.03 -0.02,-0.03 -0.01,-0.07 0.02,-0.09 0.09,-0.05 0.18,-0.08 0.26,-0.08 0.09,0 0.17,0.03 0.25,0.09 0.03,0.02 0.04,0.06 0.02,0.09 -0.03,0.03 -0.07,0.04 -0.1,0.02 -0.05,-0.04 -0.11,-0.06 -0.17,-0.07 -0.06,0 -0.12,0.02 -0.18,0.07z"/>
 </g>
</svg>
