<?xml version="1.0" encoding="UTF-8"?>
<!DOCTYPE svg PUBLIC "-//W3C//DTD SVG 1.1//EN" "http://www.w3.org/Graphics/SVG/1.1/DTD/svg11.dtd">
<!-- Creator: CorelDRAW 2018 (64 Bit Versão de avaliação) -->
<svg xmlns="http://www.w3.org/2000/svg" xml:space="preserve" width="69px" height="72px" version="1.1" style="shape-rendering:geometricPrecision; text-rendering:geometricPrecision; image-rendering:optimizeQuality; fill-rule:evenodd; clip-rule:evenodd"
viewBox="0 0 1.96 2.05"
 xmlns:xlink="http://www.w3.org/1999/xlink">
 <defs>
  <style type="text/css">
   <![CDATA[
    .fil0 {fill:white;fill-rule:nonzero}
   ]]>
  </style>
 </defs>
 <g id="Camada_x0020_1">
  <metadata id="CorelCorpID_0Corel-Layer"/>
  <path class="fil0" d="M0.5 1.53l0 0.32c0,0.05 0,0.09 0.07,0.1 0.32,0.07 0.65,0.11 0.98,0.09 0.07,0 0.16,-0.03 0.19,-0.1 0.03,-0.04 0.04,-0.09 0.06,-0.13 0.02,-0.07 0.01,-0.06 0.06,-0.1 0.03,-0.03 0.05,-0.06 0.05,-0.1 0,-0.04 -0.02,-0.06 -0.04,-0.1 -0.04,-0.12 0.09,-0.09 0.09,-0.21 0,-0.1 -0.1,-0.08 -0.06,-0.18 0.07,-0.16 0,-0.28 -0.18,-0.28 -0.12,-0.02 -0.24,-0.02 -0.36,-0.02 -0.09,0.02 -0.13,-0.04 -0.11,-0.12 0.02,-0.07 0.07,-0.14 0.11,-0.21 0.05,-0.11 0.07,-0.23 0.01,-0.35 -0.01,-0.09 -0.07,-0.14 -0.15,-0.14 -0.09,0.02 -0.07,0.1 -0.07,0.16 -0.01,0.15 -0.09,0.3 -0.21,0.4 -0.05,0.03 -0.07,0.09 -0.11,0.14 -0.05,0.14 -0.08,0.28 -0.21,0.36 -0.12,0.07 -0.14,0.16 -0.14,0.28 0.02,0.07 0.02,0.13 0.02,0.19l0 0zm-0.42 -0.45l0.22 0c0.04,0 0.08,0.03 0.08,0.08l0 0.77c0,0.04 -0.04,0.08 -0.08,0.08l-0.22 0c-0.05,0 -0.08,-0.04 -0.08,-0.08l0 -0.77c0,-0.05 0.03,-0.08 0.08,-0.08z"/>
 </g>
</svg>
