<?xml version="1.0" encoding="UTF-8"?>
<!DOCTYPE svg PUBLIC "-//W3C//DTD SVG 1.1//EN" "http://www.w3.org/Graphics/SVG/1.1/DTD/svg11.dtd">
<!-- Creator: CorelDRAW 2018 (64 Bit Versão de avaliação) -->
<svg xmlns="http://www.w3.org/2000/svg" xml:space="preserve" width="128px" height="95px" version="1.1" style="shape-rendering:geometricPrecision; text-rendering:geometricPrecision; image-rendering:optimizeQuality; fill-rule:evenodd; clip-rule:evenodd"
viewBox="0 0 4.89 3.63"
 xmlns:xlink="http://www.w3.org/1999/xlink">
 <defs>
  <style type="text/css">
   <![CDATA[
    .fil0 {fill:white}
   ]]>
  </style>
 </defs>
 <g id="Camada_x0020_1">
  <metadata id="CorelCorpID_0Corel-Layer"/>
  <path class="fil0" d="M3.58 1.9c0.28,0 0.52,0.22 0.54,0.49 -0.04,0 -0.09,0.01 -0.13,0.03 -0.01,-0.21 -0.19,-0.38 -0.41,-0.38 -0.23,0 -0.42,0.18 -0.42,0.41 0,0.23 0.19,0.42 0.42,0.42 0.04,0 0.08,-0.01 0.11,-0.02l-0.09 0.15c-0.01,0 -0.02,0 -0.02,0 -0.31,0 -0.55,-0.25 -0.55,-0.55 0,-0.3 0.24,-0.55 0.55,-0.55zm0.89 -0.46c-0.14,-0.14 -0.33,-0.22 -0.55,-0.22 -0.02,0 0,-0.01 0,-0.01 -0.05,0.01 -0.1,-0.03 -0.11,-0.07 -0.02,-0.14 -0.1,-0.27 -0.2,-0.35 -0.1,-0.09 -0.24,-0.14 -0.38,-0.14 -0.05,0 -0.1,0 -0.14,0.01 -0.05,0.01 -0.09,0.03 -0.13,0.05 -0.05,0.02 -0.1,0.01 -0.13,-0.03 -0.09,-0.15 -0.21,-0.27 -0.37,-0.36 -0.14,-0.08 -0.31,-0.13 -0.49,-0.13 -0.25,0 -0.48,0.1 -0.66,0.25 -0.18,0.16 -0.3,0.38 -0.33,0.62 -0.01,0.04 -0.04,0.08 -0.09,0.09 -0.2,0.03 -0.37,0.13 -0.5,0.27 -0.12,0.14 -0.2,0.33 -0.2,0.53 0,0.23 0.09,0.43 0.24,0.58 0.15,0.15 0.35,0.24 0.58,0.24l1.94 0c0.03,0.07 0.08,0.14 0.14,0.19l-2.08 0c-0.28,0 -0.53,-0.11 -0.71,-0.29 -0.19,-0.19 -0.3,-0.44 -0.3,-0.72 0,-0.25 0.09,-0.48 0.25,-0.66 0.14,-0.16 0.33,-0.27 0.55,-0.32 0.05,-0.27 0.19,-0.5 0.38,-0.67 0.21,-0.19 0.49,-0.3 0.79,-0.3 0.22,0 0.42,0.06 0.59,0.15 0.15,0.09 0.29,0.21 0.39,0.35 0.03,-0.01 0.06,-0.02 0.09,-0.02 0.06,-0.02 0.12,-0.03 0.19,-0.03 0.19,0 0.37,0.07 0.5,0.19 0.12,0.1 0.21,0.23 0.26,0.38 0.24,0.02 0.46,0.12 0.62,0.29 0.17,0.17 0.28,0.41 0.28,0.68 0,0.27 -0.11,0.51 -0.28,0.69 -0.03,0.02 -0.05,0.05 -0.08,0.07l-0.11 -0.16c0.02,-0.02 0.03,-0.03 0.05,-0.05 0.14,-0.14 0.23,-0.33 0.23,-0.55 0,-0.21 -0.09,-0.41 -0.23,-0.55zm-0.84 0.94c0.02,0.02 0.03,0.04 0.03,0.07 0,0.05 -0.04,0.08 -0.08,0.08 -0.01,0 -0.02,0 -0.02,0l-0.1 0.09c-0.01,0.01 -0.03,0.01 -0.04,0l-0.01 -0.01c-0.01,-0.01 -0.01,-0.02 0,-0.04l0.09 -0.1c0,0 -0.01,-0.01 -0.01,-0.02 0,-0.03 0.02,-0.06 0.05,-0.07l0.01 -0.24c0,-0.02 0.01,-0.03 0.02,-0.03l0.02 0c0.01,0 0.03,0.01 0.03,0.03l0.01 0.24zm-0.24 1.07c0.2,-0.31 0.39,-0.61 0.59,-0.91 0.06,-0.1 0.16,-0.11 0.21,-0.02 0.2,0.31 0.4,0.62 0.6,0.93 0.06,0.08 0.01,0.17 -0.1,0.18 -0.4,0 -0.8,0 -1.2,0 -0.11,-0.01 -0.16,-0.1 -0.1,-0.18zm0.7 0.03c-0.03,0 -0.05,-0.01 -0.07,-0.02 -0.02,-0.02 -0.03,-0.05 -0.03,-0.08 0,-0.03 0.01,-0.05 0.03,-0.07 0.02,-0.02 0.04,-0.03 0.07,-0.03 0.03,0 0.05,0.01 0.07,0.03 0.02,0.02 0.03,0.04 0.03,0.07 0,0.03 -0.01,0.06 -0.03,0.08 -0.02,0.01 -0.04,0.02 -0.07,0.02zm-0.07 -0.33l-0.03 -0.22c-0.01,-0.07 -0.03,-0.17 0.1,-0.18 0.13,0.01 0.11,0.11 0.1,0.18l-0.03 0.22c0,0.03 -0.01,0.05 -0.02,0.07 0,0 0,0 0,0l-0.1 0c0,0 0,0 0,0 -0.01,-0.02 -0.02,-0.04 -0.02,-0.07zm-1.28 -1.77c-0.07,0 -0.14,0.07 -0.14,0.16 0,0.1 0.07,0.17 0.14,0.17 0.08,0 0.14,-0.07 0.14,-0.17 0,-0.09 -0.06,-0.16 -0.14,-0.16zm0.05 -0.47c-0.2,0 -0.47,0.05 -0.07,0.09 0.26,0.03 0.42,0.26 0.42,0.14 0,-0.13 -0.16,-0.23 -0.35,-0.23zm-0.93 0.47c0.08,0 0.14,0.07 0.14,0.16 0,0.1 -0.06,0.17 -0.14,0.17 -0.07,0 -0.14,-0.07 -0.14,-0.17 0,-0.09 0.07,-0.16 0.14,-0.16zm-0.04 -0.47c0.2,0 0.47,0.05 0.06,0.09 -0.25,0.03 -0.41,0.26 -0.41,0.14 0,-0.13 0.16,-0.23 0.35,-0.23zm0.49 1.06c0.21,0 0.38,0.11 0.38,0.25 0,0.09 -0.08,0.15 -0.19,0.11 -0.05,-0.02 -0.12,-0.04 -0.19,-0.04 -0.08,0 -0.15,0.02 -0.21,0.04 -0.11,0.04 -0.16,-0.03 -0.16,-0.11 0,-0.14 0.17,-0.25 0.37,-0.25z"/>
 </g>
</svg>
