<?xml version="1.0" encoding="UTF-8"?>
<!DOCTYPE svg PUBLIC "-//W3C//DTD SVG 1.1//EN" "http://www.w3.org/Graphics/SVG/1.1/DTD/svg11.dtd">
<!-- Creator: CorelDRAW 2017 -->
<svg xmlns="http://www.w3.org/2000/svg" xml:space="preserve" width="72px" height="72px" version="1.1" style="shape-rendering:geometricPrecision; text-rendering:geometricPrecision; image-rendering:optimizeQuality; fill-rule:evenodd; clip-rule:evenodd"
viewBox="0 0 2.53 2.52"
 xmlns:xlink="http://www.w3.org/1999/xlink">
 <defs>
  <style type="text/css">
   <![CDATA[
    .fil0 {fill:white}
   ]]>
  </style>
 </defs>
 <g id="Camada_x0020_1">
  <metadata id="CorelCorpID_0Corel-Layer"/>
  <path class="fil0" d="M0.61 2.3l0.48 -0.25 0.03 0c0.28,0.01 0.57,-0.04 0.8,-0.18 0.28,-0.15 0.47,-0.4 0.48,-0.72 0,-0.3 -0.15,-0.58 -0.38,-0.77 -0.38,-0.29 -0.95,-0.33 -1.37,-0.1 -0.34,0.19 -0.58,0.6 -0.5,1 0.04,0.24 0.19,0.43 0.4,0.55l0.07 0.04 -0.01 0.43 0 0zm0.51 -0.11c0.3,0.01 0.61,-0.06 0.87,-0.2 0.74,-0.42 0.66,-1.27 0.11,-1.71 -0.42,-0.34 -1.05,-0.36 -1.51,-0.11 -0.69,0.37 -0.84,1.37 -0.11,1.78l0 0.57 0.64 -0.33zm0.24 -0.67c0,0.03 -0.01,0.06 -0.03,0.08 -0.02,0.02 -0.05,0.03 -0.08,0.03 -0.03,0 -0.05,-0.01 -0.07,-0.03 -0.02,-0.02 -0.03,-0.05 -0.03,-0.08 0,-0.03 0.01,-0.05 0.03,-0.07 0.02,-0.03 0.04,-0.04 0.07,-0.04 0.03,0 0.06,0.01 0.08,0.04 0.02,0.02 0.03,0.04 0.03,0.07zm-0.01 -0.95c0,0.03 0,0.11 -0.02,0.26 -0.02,0.16 -0.03,0.3 -0.05,0.44l-0.06 0c-0.01,-0.14 -0.02,-0.28 -0.04,-0.44 -0.02,-0.15 -0.03,-0.23 -0.03,-0.26 0,-0.03 0.01,-0.06 0.03,-0.08 0.02,-0.02 0.04,-0.03 0.07,-0.03 0.03,0 0.06,0.01 0.08,0.03 0.02,0.02 0.02,0.05 0.02,0.08z"/>
 </g>
</svg>
