<?xml version="1.0" encoding="UTF-8"?>
<!DOCTYPE svg PUBLIC "-//W3C//DTD SVG 1.1//EN" "http://www.w3.org/Graphics/SVG/1.1/DTD/svg11.dtd">
<!-- Creator: CorelDRAW 2017 -->
<svg xmlns="http://www.w3.org/2000/svg" xml:space="preserve" width="99px" height="72px" version="1.1" style="shape-rendering:geometricPrecision; text-rendering:geometricPrecision; image-rendering:optimizeQuality; fill-rule:evenodd; clip-rule:evenodd"
viewBox="0 0 4.27 3.11"
 xmlns:xlink="http://www.w3.org/1999/xlink">
 <defs>
  <style type="text/css">
   <![CDATA[
    .fil0 {fill:white}
   ]]>
  </style>
 </defs>
 <g id="Camada_x0020_1">
  <metadata id="CorelCorpID_0Corel-Layer"/>
  <path class="fil0" d="M3.66 1.91c0.05,0.01 0.1,0.03 0.15,0.05l0.05 -0.07c0.02,-0.03 0.06,-0.03 0.09,-0.01l0.06 0.04c0.02,0.02 0.03,0.06 0.01,0.09l-0.05 0.07c0.12,0.11 0.19,0.26 0.19,0.43 0,0.33 -0.27,0.6 -0.61,0.6 -0.33,0 -0.6,-0.27 -0.6,-0.6 0,-0.3 0.21,-0.54 0.49,-0.6l0 -0.06 0 0c-0.03,0 -0.06,-0.02 -0.06,-0.05l0 -0.06c0,-0.03 0.03,-0.05 0.06,-0.05l0.22 0c0.03,0 0.06,0.02 0.06,0.05l0 0.06c0,0.03 -0.03,0.05 -0.06,0.05l0 0 0 0.06zm-0.11 0.16c0.25,0 0.44,0.2 0.44,0.44 0,0.24 -0.19,0.44 -0.44,0.44 -0.24,0 -0.44,-0.2 -0.44,-0.44 0,-0.24 0.2,-0.44 0.44,-0.44zm-0.07 -1.18c0.21,0.02 0.4,0.11 0.54,0.25 0.15,0.15 0.25,0.36 0.25,0.6 0,0.14 -0.04,0.28 -0.1,0.4 -0.02,-0.02 -0.04,-0.05 -0.06,-0.07 0.05,-0.07 0.04,-0.16 -0.02,-0.22 0.01,-0.04 0.01,-0.07 0.01,-0.11 0,-0.19 -0.08,-0.36 -0.2,-0.48 -0.12,-0.12 -0.29,-0.2 -0.48,-0.2 -0.01,0 0,0 0,0 -0.05,0 -0.08,-0.03 -0.09,-0.07 -0.02,-0.12 -0.09,-0.23 -0.18,-0.3 -0.09,-0.08 -0.21,-0.12 -0.33,-0.12 -0.05,0 -0.09,0 -0.12,0.01 -0.04,0.01 -0.08,0.02 -0.12,0.04 -0.04,0.02 -0.09,0.01 -0.11,-0.03 -0.08,-0.13 -0.19,-0.24 -0.32,-0.31 -0.13,-0.07 -0.27,-0.11 -0.43,-0.11 -0.22,0 -0.42,0.08 -0.58,0.22 -0.15,0.13 -0.26,0.32 -0.29,0.54 0,0.03 -0.03,0.07 -0.07,0.07 -0.17,0.03 -0.33,0.11 -0.44,0.24 -0.11,0.12 -0.17,0.29 -0.17,0.46 0,0.2 0.08,0.38 0.21,0.51 0.13,0.13 0.3,0.21 0.5,0.21l1.96 0c0,0.03 0,0.06 0,0.09 0,0.02 0,0.05 0,0.07l-1.96 0c-0.24,0 -0.46,-0.09 -0.62,-0.25 -0.16,-0.16 -0.26,-0.38 -0.26,-0.63 0,-0.22 0.08,-0.42 0.21,-0.57 0.13,-0.14 0.29,-0.24 0.48,-0.28 0.05,-0.24 0.17,-0.44 0.34,-0.59 0.19,-0.16 0.43,-0.26 0.69,-0.26 0.19,0 0.36,0.05 0.51,0.13 0.14,0.08 0.25,0.18 0.34,0.31 0.03,-0.01 0.06,-0.02 0.09,-0.03 0.05,-0.01 0.1,-0.01 0.16,-0.01 0.16,0 0.32,0.06 0.44,0.16 0.1,0.08 0.18,0.2 0.22,0.33zm-1.72 0.09c0.04,-0.04 0.09,-0.04 0.12,0 0.04,0.03 0.04,0.08 0,0.12l-0.14 0.14 0.14 0.13c0.04,0.04 0.04,0.09 0,0.12 -0.03,0.04 -0.08,0.04 -0.12,0l-0.14 -0.14 -0.14 0.14c-0.03,0.04 -0.08,0.04 -0.12,0 -0.03,-0.03 -0.03,-0.08 0,-0.12l0.14 -0.13 -0.14 -0.14c-0.03,-0.04 -0.03,-0.09 0,-0.12 0.04,-0.04 0.09,-0.04 0.12,0l0.14 0.14 0.14 -0.14zm0.98 0c0.03,-0.04 0.09,-0.04 0.12,0 0.03,0.03 0.03,0.08 0,0.12l-0.14 0.14 0.14 0.13c0.03,0.04 0.03,0.09 0,0.12 -0.03,0.04 -0.09,0.04 -0.12,0l-0.14 -0.14 -0.14 0.14c-0.03,0.04 -0.09,0.04 -0.12,0 -0.03,-0.03 -0.03,-0.08 0,-0.12l0.14 -0.13 -0.14 -0.14c-0.03,-0.04 -0.03,-0.09 0,-0.12 0.03,-0.04 0.09,-0.04 0.12,0l0.14 0.14 0.14 -0.14zm-1.18 1.1c-0.03,0.03 -0.08,0.03 -0.12,0 -0.03,-0.03 -0.03,-0.08 0,-0.12l0.01 -0.01c0.16,-0.16 0.4,-0.25 0.64,-0.26 0.24,0 0.49,0.07 0.67,0.25l0.01 0.02c0.03,0.03 0.03,0.08 0,0.12 -0.03,0.03 -0.09,0.03 -0.12,-0.01l-0.01 -0.01c-0.15,-0.14 -0.35,-0.2 -0.55,-0.2 -0.2,0.01 -0.39,0.08 -0.52,0.21l-0.01 0.01zm2 0.34c0.06,0 0.1,0.05 0.1,0.1 0,0.06 -0.04,0.1 -0.1,0.1 -0.05,0 -0.09,-0.03 -0.1,-0.08l-0.22 -0.19c0,0 0,0 0,0 -0.02,-0.02 -0.02,-0.04 0,-0.05 0.01,-0.01 0.02,-0.01 0.04,-0.01l0.25 0.14c0.01,-0.01 0.02,-0.01 0.03,-0.01z"/>
 </g>
</svg>
