<?xml version="1.0" encoding="UTF-8"?>
<!DOCTYPE svg PUBLIC "-//W3C//DTD SVG 1.1//EN" "http://www.w3.org/Graphics/SVG/1.1/DTD/svg11.dtd">
<svg xmlns="http://www.w3.org/2000/svg" xml:space="preserve" width="54px" height="72px" version="1.1" style="shape-rendering:geometricPrecision; text-rendering:geometricPrecision; image-rendering:optimizeQuality; fill-rule:evenodd; clip-rule:evenodd"
viewBox="0 0 1.12 1.51"
 xmlns:xlink="http://www.w3.org/1999/xlink">
 <defs>
  <style type="text/css">
   <![CDATA[
    .fil0 {fill:white}
   ]]>
  </style>
 </defs>
 <g id="Camada_x0020_1">
  <path class="fil0" d="M0.92 0.65l0.01 0c0.05,-0.01 0.09,0.01 0.11,0.06l0.06 0.24c0.01,0.03 0.02,0.05 0.02,0.08 0,0.06 -0.02,0.14 -0.07,0.18l0.04 0.17 -0.45 0.13 -0.04 -0.13c-0.01,-0.06 -0.07,-0.08 -0.13,-0.13 -0.03,-0.02 -0.06,-0.04 -0.08,-0.06 -0.09,-0.07 -0.15,-0.15 -0.21,-0.22 -0.03,-0.03 -0.04,-0.08 -0.01,-0.12 0,0 0,0 0,0 0.03,-0.03 0.08,-0.03 0.12,0 0.06,0.03 0.11,0.07 0.15,0.11l-0.15 -0.56c-0.01,-0.05 0.02,-0.1 0.06,-0.11l0 0c0.05,-0.01 0.1,0.02 0.11,0.06l0.08 0.3c-0.01,-0.03 0.01,-0.07 0.04,-0.08l0.01 0c0.04,-0.01 0.09,0.02 0.1,0.06l0.01 0.06c-0.01,-0.04 0.02,-0.07 0.05,-0.08l0.01 0c0.04,-0.01 0.09,0.01 0.1,0.06l0.02 0.05c-0.01,-0.03 0.01,-0.06 0.04,-0.07zm-0.65 -0.65l0 0c0.01,0 0.03,0.01 0.03,0.02l0.04 0.15c0.01,0.02 0,0.03 -0.01,0.03l0 0c-0.02,0.01 -0.03,0 -0.04,-0.01l-0.04 -0.16c0,-0.01 0.01,-0.03 0.02,-0.03zm0.48 0.27l0 0c0,0.02 0,0.03 -0.02,0.04l-0.15 0.04c-0.01,0 -0.03,-0.01 -0.03,-0.02l0 0c-0.01,-0.02 0,-0.03 0.02,-0.03l0.15 -0.05c0.01,0 0.03,0.01 0.03,0.02zm-0.55 0.15l0 0c0.01,0.01 0,0.03 -0.01,0.03l-0.16 0.04c-0.01,0.01 -0.03,0 -0.03,-0.02l0 0c0,-0.01 0.01,-0.02 0.02,-0.03l0.15 -0.04c0.02,0 0.03,0.01 0.03,0.02zm0.02 -0.13l0 0c-0.01,0.01 -0.02,0.02 -0.04,0.01l-0.13 -0.08c-0.01,-0.01 -0.02,-0.02 -0.01,-0.04l0 0c0.01,-0.01 0.02,-0.02 0.04,-0.01l0.13 0.08c0.01,0.01 0.02,0.02 0.01,0.04zm0.24 -0.07l0 0c0.02,0.01 0.03,0.01 0.04,-0.01l0.08 -0.13c0.01,-0.02 0,-0.03 -0.01,-0.04l0 0c-0.01,-0.01 -0.03,0 -0.04,0.01l-0.08 0.14c0,0.01 0,0.03 0.01,0.03z"/>
 </g>
</svg>
