<?xml version="1.0" encoding="UTF-8"?>
<!DOCTYPE svg PUBLIC "-//W3C//DTD SVG 1.1//EN" "http://www.w3.org/Graphics/SVG/1.1/DTD/svg11.dtd">
<!-- Creator: CorelDRAW 2017 -->
<svg xmlns="http://www.w3.org/2000/svg" xml:space="preserve" width="99px" height="72px" version="1.1" style="shape-rendering:geometricPrecision; text-rendering:geometricPrecision; image-rendering:optimizeQuality; fill-rule:evenodd; clip-rule:evenodd"
viewBox="0 0 3.6 2.63"
 xmlns:xlink="http://www.w3.org/1999/xlink">
 <defs>
  <style type="text/css">
   <![CDATA[
    .fil0 {fill:white;fill-rule:nonzero}
   ]]>
  </style>
 </defs>
 <g id="Camada_x0020_1">
  <metadata id="CorelCorpID_0Corel-Layer"/>
  <g id="_1251697744">
   <polygon class="fil0" points="0.48,2.53 3.02,0 3.12,0.1 0.58,2.63 "/>
   <path class="fil0" d="M2.38 0.48l0 0c-0.04,0 -0.07,0 -0.11,0.01 -0.03,0.01 -0.06,0.02 -0.09,0.03 -0.04,0.02 -0.08,0.01 -0.1,-0.02 -0.06,-0.11 -0.16,-0.2 -0.27,-0.26 -0.1,-0.06 -0.23,-0.1 -0.36,-0.1 -0.19,0 -0.36,0.07 -0.49,0.18 -0.13,0.12 -0.22,0.28 -0.24,0.46 -0.01,0.03 -0.03,0.06 -0.06,0.06 -0.15,0.03 -0.28,0.1 -0.37,0.21 -0.09,0.1 -0.15,0.24 -0.15,0.39 0,0.16 0.07,0.31 0.18,0.42 0.11,0.11 0.26,0.18 0.42,0.18l0.07 0 -0.14 0.14c-0.18,-0.02 -0.34,-0.1 -0.45,-0.22 -0.14,-0.13 -0.22,-0.32 -0.22,-0.52 0,-0.19 0.07,-0.36 0.18,-0.49 0.1,-0.12 0.25,-0.2 0.41,-0.24 0.03,-0.19 0.14,-0.37 0.28,-0.49 0.16,-0.14 0.36,-0.22 0.58,-0.22 0.16,0 0.31,0.04 0.43,0.11 0.12,0.07 0.22,0.15 0.29,0.26 0.02,-0.01 0.05,-0.01 0.07,-0.02 0.04,-0.01 0.09,-0.02 0.14,-0.02 0.04,0 0.08,0.01 0.13,0.02l-0.13 0.13z"/>
   <path class="fil0" d="M3.29 1.06c-0.1,-0.1 -0.25,-0.17 -0.4,-0.17 -0.02,0 0,0 -0.01,0 -0.03,0.01 -0.07,-0.02 -0.07,-0.05 -0.02,-0.07 -0.04,-0.13 -0.08,-0.19l0.1 -0.1c0.05,0.06 0.08,0.13 0.1,0.2 0.18,0.02 0.34,0.09 0.46,0.21 0.13,0.13 0.21,0.31 0.21,0.51 0,0.19 -0.08,0.37 -0.21,0.5 -0.13,0.13 -0.31,0.21 -0.5,0.21l-1.7 0 0.15 -0.14 1.55 0c0.15,0 0.3,-0.07 0.4,-0.17 0.1,-0.1 0.17,-0.25 0.17,-0.4 0,-0.16 -0.07,-0.31 -0.17,-0.41z"/>
  </g>
 </g>
</svg>
