<?xml version="1.0" encoding="UTF-8"?>
<!DOCTYPE svg PUBLIC "-//W3C//DTD SVG 1.1//EN" "http://www.w3.org/Graphics/SVG/1.1/DTD/svg11.dtd">
<!-- Creator: CorelDRAW 2018 (64 Bit Versão de avaliação) -->
<svg xmlns="http://www.w3.org/2000/svg" xml:space="preserve" width="99px" height="72px" version="1.1" style="shape-rendering:geometricPrecision; text-rendering:geometricPrecision; image-rendering:optimizeQuality; fill-rule:evenodd; clip-rule:evenodd"
viewBox="0 0 4.27 3.11"
 xmlns:xlink="http://www.w3.org/1999/xlink">
 <defs>
  <style type="text/css">
   <![CDATA[
    .fil0 {fill:white;fill-rule:nonzero}
   ]]>
  </style>
 </defs>
 <g id="Camada_x0020_1">
  <metadata id="CorelCorpID_0Corel-Layer"/>
  <path class="fil0" d="M3.48 0.89c0.21,0.02 0.4,0.11 0.54,0.25 0.15,0.15 0.25,0.36 0.25,0.6 0,0.05 -0.01,0.1 -0.01,0.15 -0.03,-0.05 -0.08,-0.08 -0.14,-0.08 -0.01,0 -0.01,-0.01 -0.02,-0.01 0,-0.02 0,-0.04 0,-0.06 0,-0.19 -0.08,-0.36 -0.2,-0.48 -0.12,-0.12 -0.29,-0.2 -0.48,-0.2 -0.01,0 0,0 0,0 -0.04,0 -0.08,-0.03 -0.09,-0.07 -0.02,-0.12 -0.09,-0.23 -0.18,-0.3 -0.09,-0.08 -0.21,-0.12 -0.33,-0.12 -0.04,0 -0.09,0 -0.12,0.01 -0.04,0.01 -0.08,0.02 -0.12,0.04 -0.04,0.02 -0.08,0.01 -0.11,-0.03 -0.08,-0.13 -0.19,-0.24 -0.32,-0.31 -0.13,-0.07 -0.27,-0.11 -0.43,-0.11 -0.22,0 -0.42,0.08 -0.58,0.22 -0.15,0.13 -0.26,0.32 -0.29,0.54 0,0.03 -0.03,0.07 -0.07,0.07 -0.17,0.03 -0.33,0.11 -0.44,0.24 -0.11,0.12 -0.17,0.29 -0.17,0.47 0,0.19 0.08,0.37 0.21,0.5 0.13,0.13 0.3,0.21 0.5,0.21l1.99 0c0,0.02 0.01,0.05 0.02,0.08 0,0 0,0 0,0.01l0 0 0.03 0.08 -2.04 0c-0.24,0 -0.46,-0.1 -0.62,-0.26 -0.16,-0.16 -0.26,-0.38 -0.26,-0.62 0,-0.22 0.08,-0.43 0.22,-0.58 0.12,-0.14 0.28,-0.24 0.47,-0.28 0.05,-0.24 0.17,-0.44 0.34,-0.59 0.19,-0.16 0.43,-0.26 0.69,-0.26 0.19,0 0.36,0.05 0.51,0.13 0.14,0.08 0.26,0.18 0.35,0.31 0.02,-0.01 0.05,-0.02 0.08,-0.03 0.05,-0.01 0.1,-0.01 0.16,-0.01 0.16,0 0.32,0.06 0.44,0.16 0.1,0.08 0.18,0.2 0.22,0.33zm0.07 0.8c-0.01,0 -0.03,0.01 -0.07,0.02 -0.04,0.02 -0.1,0.05 -0.13,0.07 -0.06,0.04 -0.12,0.07 -0.18,0.11 -0.11,0.06 -0.16,0.05 -0.18,0.06 -0.06,0.02 -0.04,0.21 -0.01,0.35 0.07,0.32 0.2,0.56 0.45,0.74 0.06,0.05 0.09,0.07 0.12,0.07 0.04,0 0.06,-0.02 0.13,-0.07 0.25,-0.18 0.38,-0.42 0.45,-0.74 0.02,-0.14 0.05,-0.33 -0.01,-0.35 -0.02,-0.01 -0.07,0 -0.18,-0.06 -0.07,-0.04 -0.12,-0.07 -0.18,-0.11 -0.03,-0.02 -0.09,-0.05 -0.14,-0.07 -0.03,-0.01 -0.05,-0.02 -0.07,-0.02zm-0.02 0.95c-0.01,0 -0.03,-0.01 -0.03,-0.01 -0.03,-0.02 -0.18,-0.17 -0.21,-0.2 -0.03,-0.03 -0.04,-0.05 -0.01,-0.08 0.02,-0.01 0.05,-0.05 0.07,-0.05 0.02,0 0.02,0.01 0.04,0.03 0.02,0.02 0.11,0.11 0.12,0.11 0.01,0 0.09,-0.12 0.09,-0.13l0.11 -0.16c0.05,-0.07 0.05,-0.09 0.12,-0.04 0.01,0.01 0.01,0.01 0.02,0.02 0.03,0.02 0.01,0.05 0,0.06 -0.04,0.07 -0.08,0.13 -0.12,0.19l-0.14 0.2c-0.02,0.03 -0.03,0.06 -0.06,0.06zm-1.39 -0.89c0.18,0 0.33,0.09 0.33,0.21 0,0.08 -0.07,0.13 -0.16,0.1 -0.05,-0.01 -0.11,-0.03 -0.17,-0.03 -0.07,0 -0.13,0.01 -0.18,0.03 -0.1,0.04 -0.14,-0.02 -0.14,-0.1 0,-0.12 0.15,-0.21 0.32,-0.21zm-0.43 -0.93c0.18,0 0.41,0.04 0.06,0.08 -0.22,0.02 -0.36,0.23 -0.36,0.12 0,-0.11 0.13,-0.2 0.3,-0.2zm0.04 0.41c0.07,0 0.12,0.06 0.12,0.15 0,0.08 -0.05,0.14 -0.12,0.14 -0.07,0 -0.12,-0.06 -0.12,-0.14 0,-0.09 0.05,-0.15 0.12,-0.15zm0.81 -0.41c-0.18,0 -0.41,0.04 -0.06,0.08 0.22,0.02 0.36,0.23 0.36,0.12 0,-0.11 -0.13,-0.2 -0.3,-0.2zm-0.04 0.41c-0.07,0 -0.12,0.06 -0.12,0.15 0,0.08 0.05,0.14 0.12,0.14 0.07,0 0.12,-0.06 0.12,-0.14 0,-0.09 -0.05,-0.15 -0.12,-0.15z"/>
 </g>
</svg>
