<?xml version="1.0" encoding="UTF-8"?>
<!DOCTYPE svg PUBLIC "-//W3C//DTD SVG 1.1//EN" "http://www.w3.org/Graphics/SVG/1.1/DTD/svg11.dtd">
<!-- Creator: CorelDRAW 2018 (64 Bit Versão de avaliação) -->
<svg xmlns="http://www.w3.org/2000/svg" xml:space="preserve" width="128px" height="102px" version="1.1" style="shape-rendering:geometricPrecision; text-rendering:geometricPrecision; image-rendering:optimizeQuality; fill-rule:evenodd; clip-rule:evenodd"
viewBox="0 0 4.85 3.85"
 xmlns:xlink="http://www.w3.org/1999/xlink">
 <defs>
  <style type="text/css">
   <![CDATA[
    .fil0 {fill:white;fill-rule:nonzero}
   ]]>
  </style>
 </defs>
 <g id="Camada_x0020_1">
  <metadata id="CorelCorpID_0Corel-Layer"/>
  <path class="fil0" d="M2.64 2.05l0 1.04 0.32 0 -0.54 0.76 -0.53 -0.76 0.32 0 0 -1.04 0.43 0zm1.79 -0.62c-0.14,-0.14 -0.33,-0.23 -0.54,-0.23 -0.02,0 0,0 -0.01,0 -0.05,0.01 -0.09,-0.03 -0.1,-0.07 -0.02,-0.14 -0.1,-0.26 -0.2,-0.35 -0.1,-0.09 -0.24,-0.14 -0.38,-0.14 -0.05,0 -0.09,0.01 -0.14,0.02 -0.04,0.01 -0.09,0.02 -0.13,0.05 -0.04,0.02 -0.1,0 -0.12,-0.04 -0.09,-0.15 -0.22,-0.27 -0.37,-0.35 -0.14,-0.08 -0.31,-0.13 -0.48,-0.13 -0.26,0 -0.49,0.09 -0.66,0.25 -0.18,0.15 -0.3,0.37 -0.33,0.61 -0.01,0.05 -0.04,0.08 -0.09,0.09 -0.19,0.03 -0.37,0.12 -0.49,0.27 -0.12,0.14 -0.2,0.32 -0.2,0.53 0,0.22 0.09,0.42 0.24,0.57 0.14,0.14 0.35,0.23 0.57,0.23l1.06 0 0 0.2 -1.06 0c-0.28,0 -0.53,-0.12 -0.71,-0.3 -0.18,-0.18 -0.29,-0.43 -0.29,-0.7 0,-0.25 0.09,-0.48 0.24,-0.66 0.14,-0.16 0.33,-0.27 0.55,-0.32 0.05,-0.26 0.19,-0.5 0.38,-0.67 0.21,-0.18 0.49,-0.29 0.79,-0.29 0.21,0 0.4,0.06 0.58,0.15 0.15,0.09 0.28,0.21 0.38,0.35 0.04,-0.01 0.07,-0.02 0.1,-0.03 0.06,-0.01 0.12,-0.02 0.18,-0.02 0.19,0 0.36,0.07 0.5,0.18 0.12,0.1 0.21,0.23 0.25,0.38 0.24,0.02 0.46,0.12 0.62,0.28 0.17,0.18 0.28,0.42 0.28,0.68 0,0.27 -0.11,0.51 -0.28,0.68 -0.18,0.18 -0.42,0.29 -0.68,0.29l-1.1 0 0 -0.2 1.1 0c0.21,0 0.4,-0.08 0.54,-0.22 0.14,-0.14 0.23,-0.33 0.23,-0.55 0,-0.21 -0.09,-0.4 -0.23,-0.54z"/>
 </g>
</svg>
