<?xml version="1.0" encoding="UTF-8"?>
<!DOCTYPE svg PUBLIC "-//W3C//DTD SVG 1.1//EN" "http://www.w3.org/Graphics/SVG/1.1/DTD/svg11.dtd">
<!-- Creator: CorelDRAW 2017 -->
<svg xmlns="http://www.w3.org/2000/svg" xml:space="preserve" width="99px" height="72px" version="1.1" style="shape-rendering:geometricPrecision; text-rendering:geometricPrecision; image-rendering:optimizeQuality; fill-rule:evenodd; clip-rule:evenodd"
viewBox="0 0 3.59 2.62"
 xmlns:xlink="http://www.w3.org/1999/xlink">
 <defs>
  <style type="text/css">
   <![CDATA[
    .fil0 {fill:white;fill-rule:nonzero}
   ]]>
  </style>
 </defs>
 <g id="Camada_x0020_1">
  <metadata id="CorelCorpID_0Corel-Layer"/>
  <path class="fil0" d="M3.28 1.06c-0.1,-0.1 -0.25,-0.17 -0.4,-0.17 -0.02,0 0,0 -0.01,0 -0.03,0 -0.06,-0.02 -0.07,-0.06 -0.02,-0.1 -0.07,-0.19 -0.15,-0.25 -0.08,-0.07 -0.18,-0.1 -0.28,-0.1 -0.04,0 -0.07,0 -0.1,0.01 -0.04,0 -0.07,0.02 -0.1,0.03 -0.03,0.02 -0.07,0.01 -0.09,-0.02 -0.07,-0.11 -0.16,-0.2 -0.27,-0.26 -0.11,-0.06 -0.23,-0.1 -0.36,-0.1 -0.19,0 -0.36,0.07 -0.49,0.18 -0.13,0.12 -0.22,0.28 -0.24,0.46 -0.01,0.03 -0.03,0.06 -0.07,0.06 -0.14,0.02 -0.27,0.1 -0.36,0.2 -0.09,0.11 -0.15,0.24 -0.15,0.39 0,0.17 0.07,0.32 0.18,0.43 0.11,0.1 0.25,0.17 0.42,0.17l1.29 0c0,0.01 0,0.01 -0.01,0.02 -0.01,0.03 -0.02,0.06 -0.02,0.09 0,0.01 0,0.02 0,0.03l-1.26 0c-0.2,0 -0.39,-0.08 -0.52,-0.21 -0.14,-0.14 -0.22,-0.32 -0.22,-0.53 0,-0.18 0.07,-0.35 0.18,-0.48 0.1,-0.12 0.24,-0.21 0.4,-0.24 0.04,-0.19 0.14,-0.37 0.29,-0.49 0.15,-0.14 0.36,-0.22 0.58,-0.22 0.15,0 0.3,0.04 0.43,0.11 0.11,0.07 0.21,0.15 0.28,0.26 0.03,-0.01 0.05,-0.02 0.07,-0.02 0.05,-0.01 0.09,-0.02 0.14,-0.02 0.14,0 0.27,0.05 0.37,0.14 0.09,0.07 0.15,0.17 0.18,0.28 0.18,0.01 0.34,0.09 0.46,0.21 0.13,0.13 0.21,0.3 0.21,0.5 0,0.17 -0.06,0.32 -0.15,0.44l-0.11 -0.09c0.07,-0.1 0.12,-0.22 0.12,-0.35 0,-0.16 -0.07,-0.3 -0.17,-0.4zm-0.77 1.27c0.01,0.01 0.01,0.02 0.02,0.03 0,0.01 0.01,0.02 0.01,0.03 0,0.02 -0.01,0.04 -0.01,0.05 -0.01,0.02 -0.02,0.02 -0.03,0.02 0,0 -0.01,0 -0.01,0 -0.01,0 -0.01,-0.01 -0.02,-0.01l-0.32 -0.24c-0.01,-0.01 -0.02,-0.02 -0.03,-0.03 0,-0.01 0,-0.02 0,-0.04 0,-0.01 0,-0.03 0,-0.04 0.01,-0.01 0.02,-0.02 0.03,-0.03l0.32 -0.24c0.01,0 0.01,0 0.02,-0.01 0,0 0.01,0 0.01,0 0.01,0 0.02,0.01 0.03,0.02 0,0.01 0.01,0.03 0.01,0.05 0,0.01 -0.01,0.03 -0.01,0.04 -0.01,0.01 -0.01,0.01 -0.02,0.02l-0.26 0.19 0.26 0.19zm0.39 0.22l-0.23 -0.8c-0.01,-0.02 -0.01,-0.03 -0.01,-0.04 0,-0.01 0,-0.01 0,-0.02 0,-0.02 0,-0.03 0.01,-0.05 0.01,-0.01 0.02,-0.02 0.03,-0.02 0.01,0 0.02,0.01 0.02,0.02 0.01,0.01 0.02,0.03 0.02,0.05l0.24 0.8c0,0.01 0,0.01 0,0.01 0.01,0.02 0.01,0.04 0.01,0.05 0,0.02 -0.01,0.04 -0.02,0.05 -0.01,0.01 -0.02,0.02 -0.03,0.02 -0.01,0 -0.01,-0.01 -0.02,-0.02 -0.01,-0.01 -0.01,-0.02 -0.02,-0.05zm0.23 -0.6c-0.01,-0.01 -0.02,-0.01 -0.03,-0.02 0,-0.01 0,-0.03 0,-0.04 0,-0.02 0,-0.04 0.01,-0.05 0.01,-0.01 0.01,-0.02 0.02,-0.02 0.01,0 0.01,0 0.02,0 0,0 0,0.01 0.01,0.01l0.32 0.24c0.01,0.01 0.02,0.02 0.03,0.03 0,0.01 0.01,0.03 0.01,0.04 0,0.02 -0.01,0.03 -0.01,0.04 -0.01,0.01 -0.02,0.02 -0.03,0.03l-0.32 0.24c-0.01,0.01 -0.01,0.01 -0.01,0.01 -0.01,0 -0.01,0 -0.02,0 -0.01,0 -0.01,0 -0.02,-0.02 -0.01,-0.01 -0.01,-0.03 -0.01,-0.05 0,-0.01 0,-0.02 0,-0.03 0.01,-0.01 0.02,-0.02 0.03,-0.03l0.25 -0.19 -0.25 -0.19zm-1.61 -0.98c0.06,0 0.1,0.07 0.1,0.16 0,0.09 -0.04,0.16 -0.1,0.16 -0.06,0 -0.1,-0.07 -0.1,-0.16 0,-0.09 0.04,-0.16 0.1,-0.16zm0.26 0.76c-0.12,0 -0.23,-0.09 -0.25,-0.21 -0.02,-0.08 -0.01,-0.05 0.04,-0.02 0.06,0.04 0.14,0.06 0.21,0.06 0.08,0 0.16,-0.02 0.22,-0.06 0.04,-0.03 0.06,-0.06 0.04,0.02 -0.02,0.12 -0.13,0.21 -0.26,0.21zm0.46 -0.6c-0.08,-0.05 -0.18,-0.05 -0.27,-0.02 -0.07,0.03 -0.07,0.13 0.02,0.12 0.07,-0.01 0.13,-0.03 0.2,-0.02 0.09,0.03 0.14,-0.03 0.05,-0.08zm-0.79 -0.47c-0.15,0.01 -0.26,0.1 -0.29,0.28 -0.01,0.04 0.01,0.05 0.04,0.02 0.08,-0.11 0.16,-0.19 0.27,-0.24 0.05,-0.03 0.04,-0.07 -0.02,-0.06zm0.96 0.31c-0.1,-0.1 -0.23,-0.14 -0.38,-0.08 -0.06,0.03 -0.06,0.06 0.01,0.06 0.16,0 0.27,0.01 0.33,0.05 0.07,0.04 0.08,0.01 0.04,-0.03z"/>
 </g>
</svg>
