<?xml version="1.0" encoding="UTF-8"?>
<!DOCTYPE svg PUBLIC "-//W3C//DTD SVG 1.1//EN" "http://www.w3.org/Graphics/SVG/1.1/DTD/svg11.dtd">
<svg xmlns="http://www.w3.org/2000/svg" xml:space="preserve" width="72px" height="72px" version="1.1" style="shape-rendering:geometricPrecision; text-rendering:geometricPrecision; image-rendering:optimizeQuality; fill-rule:evenodd; clip-rule:evenodd"
viewBox="0 0 2.32 2.3"
 xmlns:xlink="http://www.w3.org/1999/xlink">
 <defs>
  <style type="text/css">
   <![CDATA[
    .fil1 {fill:white}
    .fil0 {fill:white;fill-rule:nonzero}
   ]]>
  </style>
 </defs>
 <g id="Camada_x0020_1">
  <g id="_2503249507888">
   <path class="fil0" d="M1.16 1.45c0,0.03 -0.01,0.05 -0.02,0.07 -0.02,0.02 -0.05,0.03 -0.07,0.03 -0.03,0 -0.05,-0.01 -0.07,-0.03 -0.02,-0.02 -0.03,-0.04 -0.03,-0.07 0,-0.03 0.01,-0.05 0.03,-0.07 0.02,-0.02 0.04,-0.03 0.07,-0.03 0.02,0 0.05,0.01 0.07,0.03 0.01,0.02 0.02,0.04 0.02,0.07zm-0.26 -0.7c0,-0.04 0.01,-0.07 0.03,-0.1 0.03,-0.06 0.07,-0.11 0.14,-0.13 0.03,-0.01 0.06,-0.01 0.08,-0.01 0.04,0 0.08,0 0.11,0.02 0.07,0.03 0.11,0.08 0.13,0.14 0.01,0.03 0.01,0.06 0.01,0.09 0,0.03 0,0.07 -0.02,0.11 -0.03,0.05 -0.07,0.11 -0.14,0.16 -0.04,0.03 -0.07,0.08 -0.1,0.12 -0.01,0.03 -0.02,0.06 -0.02,0.09l-0.13 0c0,-0.05 0.01,-0.1 0.03,-0.15 0.04,-0.07 0.09,-0.14 0.16,-0.19 0.03,-0.03 0.06,-0.06 0.07,-0.09 0.01,-0.02 0.02,-0.04 0.02,-0.05 0,-0.01 -0.01,-0.03 -0.01,-0.04 -0.01,-0.03 -0.03,-0.05 -0.06,-0.06 -0.01,-0.01 -0.03,-0.02 -0.05,-0.02 -0.01,0 -0.02,0.01 -0.03,0.01 -0.03,0.01 -0.05,0.03 -0.07,0.06 0,0.01 -0.01,0.02 -0.01,0.04l-0.14 0.04 0 -0.04 0 0z"/>
   <path class="fil1" d="M0.56 2.1l0.44 -0.22 0.03 0c0.25,0.01 0.51,-0.04 0.73,-0.16 0.25,-0.15 0.43,-0.38 0.44,-0.67 0,-0.27 -0.14,-0.53 -0.35,-0.7 -0.35,-0.27 -0.87,-0.3 -1.25,-0.09 -0.32,0.17 -0.53,0.55 -0.47,0.91 0.04,0.22 0.18,0.4 0.37,0.51l0.07 0.03 -0.01 0.39 0 0zm0.46 -0.1c0.28,0.01 0.57,-0.05 0.8,-0.18 0.68,-0.38 0.61,-1.16 0.1,-1.56 -0.39,-0.31 -0.96,-0.34 -1.38,-0.11 -0.63,0.35 -0.77,1.26 -0.1,1.63l0 0.52 0.58 -0.3z"/>
  </g>
 </g>
</svg>
