<svg xmlns="http://www.w3.org/2000/svg" width="72" height="72" shape-rendering="geometricPrecision" text-rendering="geometricPrecision" image-rendering="optimizeQuality" fill-rule="evenodd" clip-rule="evenodd" viewBox="0 0 0.96 0.96"><path fill="none" d="M0 0h.96v.96H0z"/><path fill="#fff" fill-rule="nonzero" d="M.47.83H.15C.13.83.13.83.13.8.12.75.15.72.19.7L.34.64C.38.63.38.63.38.59.38.56.38.54.36.52V.51C.35.47.32.42.32.37a.244.244 0 0 1 0-.12C.32.21.34.18.38.16.44.12.51.12.57.16.62.19.64.24.63.3v.05C.64.38.63.4.62.42.61.43.61.45.6.47v.02C.57.5.57.52.57.55.56.57.57.59.57.62c0 .01.01.01.02.01v.01c.01.04.03.07.06.1.01.01.03.02.05.04h.05C.77.76.78.75.8.74V.73C.82.76.83.8.82.82.82.83.81.83.8.83H.47zM.71.66H.7C.69.65.68.63.67.62.66.62.66.61.66.61.67.61.67.6.68.6c0-.01 0 0 .01 0 0 .01.01.01.02.02C.73.6.74.58.76.56c0-.01 0-.01.01-.01 0 .01.01.01.01.01v.01L.72.66H.71zM.72.47C.71.47.7.48.68.49.67.49.65.51.63.51.62.52.61.52.61.52.6.52.6.53.6.55c.01.03.02.07.02.07.01.04.03.07.05.09.01.02.03.03.04.04h.02C.75.74.76.73.77.71.8.69.81.66.83.62c0 0 .01-.04.01-.07V.52C.83.52.82.52.81.51.79.51.78.49.76.49A.076.076 0 0 0 .72.47z"/></svg>