<svg xmlns="http://www.w3.org/2000/svg" width="64" height="64" shape-rendering="geometricPrecision" text-rendering="geometricPrecision" image-rendering="optimizeQuality" fill-rule="evenodd" clip-rule="evenodd" viewBox="0 0 0.67 0.67"><path fill="none" d="M0 0h.67v.67H0z"/><path fill="#fff" fill-rule="nonzero" d="M.31.25C.31.27.31.28.3.3.28.32.26.34.23.33.22.34.22.35.21.36H.2c0-.01 0-.01 0 0L.19.37C.19.38.2.38.2.38S.2.39.19.39V.4C.18.4.18.41.18.41H.17s0 .01-.01.01h.01v.01L.16.44.15.45v.01C.14.47.12.47.12.46.11.46.1.45.11.44.11.43.12.42.12.41.15.38.17.34.19.31V.3a.048.048 0 0 1 0-.07C.21.2.25.19.28.21L.3.23c.01 0 .02 0 .03.01l.01.01C.35.24.38.22.4.22c.01-.01.01 0 .02 0 .05.03.09.06.14.1v.02C.55.35.55.37.54.38.53.39.53.4.52.4.51.41.5.42.49.44H.47C.42.41.38.38.33.34.33.34.32.33.32.32.33.3.33.28.33.27V.26C.32.26.31.25.31.25zM.24.22C.23.22.22.23.22.24c.02.02.03.03.05.04h.01C.29.27.29.26.29.24H.27c0-.01 0-.01.01-.01C.27.22.25.21.24.22zm.12.07C.37.29.37.28.37.27V.26C.36.25.35.25.35.26v.01s0 .01-.01.01c0 0 .01.01.02.01zM.3.24c.01 0 .02.01.03.02V.25C.32.24.31.24.3.24z"/></svg>