<svg xmlns="http://www.w3.org/2000/svg" width="64" height="64" shape-rendering="geometricPrecision" text-rendering="geometricPrecision" image-rendering="optimizeQuality" fill-rule="evenodd" clip-rule="evenodd" viewBox="0 0 0.79 0.79"><path fill="none" d="M0 0h.79v.79H0z"/><path fill="#fff" d="M.16.19h.47C.65.19.66.2.66.22v.35C.66.58.65.6.63.6H.16C.14.6.12.58.12.57V.22C.12.2.14.19.16.19zm0 .03h.47v.35H.16V.22zm.11.01v.32H.22V.23h.05zm.13 0v.32H.36V.23H.4zm-.2 0v.32H.18V.23H.2zm.14 0v.32H.31V.23h.03zm.11 0v.32H.43V.23h.02zm.07 0v.32H.49V.23h.03zm.04 0v.32H.54V.23h.02zm.05 0v.32H.58V.23h.03z"/></svg>