<?xml version="1.0" encoding="UTF-8"?>
<!DOCTYPE svg PUBLIC "-//W3C//DTD SVG 1.1//EN" "http://www.w3.org/Graphics/SVG/1.1/DTD/svg11.dtd">
<!-- Creator: CorelDRAW 2017 -->
<svg xmlns="http://www.w3.org/2000/svg" xml:space="preserve" width="72px" height="72px" version="1.1" style="shape-rendering:geometricPrecision; text-rendering:geometricPrecision; image-rendering:optimizeQuality; fill-rule:evenodd; clip-rule:evenodd"
viewBox="0 0 2.01 2.01"
 xmlns:xlink="http://www.w3.org/1999/xlink">
 <defs>
  <style type="text/css">
   <![CDATA[
    .fil0 {fill:none}
    .fil1 {fill:white}
   ]]>
  </style>
 </defs>
 <g id="Camada_x0020_1">
  <metadata id="CorelCorpID_0Corel-Layer"/>
  <g id="_1131275728">
   <rect class="fil0" width="2.01" height="2.01"/>
   <path class="fil1" d="M0.35 0.53l0 0c0.05,0 0.08,0.04 0.08,0.08l0 0.79c0,0.04 -0.03,0.08 -0.08,0.08l0 0c-0.04,0 -0.08,-0.04 -0.08,-0.08l0 -0.79c0,-0.04 0.04,-0.08 0.08,-0.08zm0.19 0l0 0c0.03,0 0.04,0.02 0.04,0.04l0 0.87c0,0.02 -0.01,0.04 -0.04,0.04l0 0c-0.02,0 -0.04,-0.02 -0.04,-0.04l0 -0.87c0,-0.02 0.02,-0.04 0.04,-0.04zm0.2 0l0 0c0.02,0 0.04,0.02 0.04,0.04l0 0.87c0,0.02 -0.02,0.04 -0.04,0.04l0 0c-0.02,0 -0.04,-0.02 -0.04,-0.04l0 -0.87c0,-0.02 0.02,-0.04 0.04,-0.04zm0.19 0l0 0c0.04,0 0.08,0.04 0.08,0.08l0 0.79c0,0.04 -0.04,0.08 -0.08,0.08l0 0c-0.04,0 -0.08,-0.04 -0.08,-0.08l0 -0.79c0,-0.04 0.04,-0.08 0.08,-0.08zm0.58 0l0 0c0.04,0 0.08,0.04 0.08,0.08l0 0.79c0,0.04 -0.04,0.08 -0.08,0.08l0 0c-0.04,0 -0.08,-0.04 -0.08,-0.08l0 -0.79c0,-0.04 0.04,-0.08 0.08,-0.08zm-0.39 0l0 0c0.03,0 0.04,0.02 0.04,0.04l0 0.87c0,0.02 -0.01,0.04 -0.04,0.04l0 0c-0.02,0 -0.04,-0.02 -0.04,-0.04l0 -0.87c0,-0.02 0.02,-0.04 0.04,-0.04zm0.2 0l0 0c0.02,0 0.04,0.02 0.04,0.04l0 0.87c0,0.02 -0.02,0.04 -0.04,0.04l0 0c-0.03,0 -0.04,-0.02 -0.04,-0.04l0 -0.87c0,-0.02 0.01,-0.04 0.04,-0.04zm0.38 0l0 0c0.02,0 0.04,0.02 0.04,0.04l0 0.87c0,0.02 -0.02,0.04 -0.04,0.04l0 0c-0.02,0 -0.04,-0.02 -0.04,-0.04l0 -0.87c0,-0.02 0.02,-0.04 0.04,-0.04z"/>
  </g>
 </g>
</svg>
