<svg xmlns="http://www.w3.org/2000/svg" width="64" height="64" shape-rendering="geometricPrecision" text-rendering="geometricPrecision" image-rendering="optimizeQuality" fill-rule="evenodd" clip-rule="evenodd" viewBox="0 0 54.97 54.97"><path fill="none" d="M0 0h54.97v54.97H0z"/><path fill="#0D7ECC" d="M15.72 25.53c-1.68-1.74-3.61-3.32-5.45-4.91-.61-.53-1.51-1.21-2.13-.28-.81 1.22-1.99 4.98-1.97 6.73.01.77.19.85.7 1.28 1.39 1.2 2.8 2.39 4.14 3.65 2.27 2.15 4.37 4.62 6.28 7.09.74.96 1.45 1.93 2.15 2.92.39.55.71.95 1.02 1.17.58.41 1.13.18 1.98-.91 1.21-1.56 2.43-3.15 3.52-4.57 2.86-3.74 5.79-7.19 8.99-10.62 2.62-2.81 5.77-5.44 8.95-7.89 1.41-1.08 2.86-2.11 4.26-3.18.5-.38 1.05-.91.2-1.15-2.59-.71-7.37-2.88-9.88-3.21-.89-.11-.67-.07-1.25.49-1.23 1.17-3.49 3.27-5.45 5.28-3.56 3.65-6.09 7.46-8.68 11.65-.27.44-.77 1.45-1.18 1.89-.33.35-.63.45-1 .3-.77-.33-3.89-4.37-5.2-5.73z"/></svg>