<?xml version="1.0" encoding="UTF-8"?>
<!DOCTYPE svg PUBLIC "-//W3C//DTD SVG 1.1//EN" "http://www.w3.org/Graphics/SVG/1.1/DTD/svg11.dtd">
<!-- Creator: CorelDRAW 2017 -->
<svg xmlns="http://www.w3.org/2000/svg" xml:space="preserve" width="72px" height="72px" version="1.1" style="shape-rendering:geometricPrecision; text-rendering:geometricPrecision; image-rendering:optimizeQuality; fill-rule:evenodd; clip-rule:evenodd"
viewBox="0 0 2.07 2.07"
 xmlns:xlink="http://www.w3.org/1999/xlink">
 <defs>
  <style type="text/css">
   <![CDATA[
    .fil1 {fill:none}
    .fil0 {fill:white}
   ]]>
  </style>
 </defs>
 <g id="Camada_x0020_1">
  <metadata id="CorelCorpID_0Corel-Layer"/>
  <g id="_1159883600">
   <path class="fil0" d="M0.8 0.59l0.35 0 0 -0.24c0,-0.04 0.03,-0.07 0.07,-0.07l0 0c0.04,0 0.07,0.03 0.07,0.07l0 0.24c0.05,0.01 0.1,0.06 0.1,0.11l0 0.97c0,0.06 -0.06,0.12 -0.12,0.12l-0.47 0c-0.06,0 -0.12,-0.06 -0.12,-0.12l0 -0.97c0,-0.06 0.06,-0.11 0.12,-0.11zm0.09 0.1l0.29 0c0.05,0 0.1,0.05 0.1,0.11l0 0.21c0,0.06 -0.05,0.1 -0.1,0.1l-0.29 0c-0.06,0 -0.1,-0.04 -0.1,-0.1l0 -0.21c0,-0.06 0.04,-0.11 0.1,-0.11zm0.33 0.51c0.04,0 0.06,0.03 0.06,0.06 0,0.03 -0.02,0.06 -0.06,0.06 -0.03,0 -0.05,-0.03 -0.05,-0.06 0,-0.03 0.02,-0.06 0.05,-0.06zm-0.19 0c0.04,0 0.06,0.03 0.06,0.06 0,0.03 -0.02,0.06 -0.06,0.06 -0.03,0 -0.05,-0.03 -0.05,-0.06 0,-0.03 0.02,-0.06 0.05,-0.06zm-0.19 0c0.03,0 0.06,0.03 0.06,0.06 0,0.03 -0.03,0.06 -0.06,0.06 -0.03,0 -0.05,-0.03 -0.05,-0.06 0,-0.03 0.02,-0.06 0.05,-0.06zm0.38 0.19c0.04,0 0.06,0.02 0.06,0.05 0,0.03 -0.02,0.06 -0.06,0.06 -0.03,0 -0.05,-0.03 -0.05,-0.06 0,-0.03 0.02,-0.05 0.05,-0.05zm-0.19 0c0.04,0 0.06,0.02 0.06,0.05 0,0.03 -0.02,0.06 -0.06,0.06 -0.03,0 -0.05,-0.03 -0.05,-0.06 0,-0.03 0.02,-0.05 0.05,-0.05zm-0.19 0c0.03,0 0.06,0.02 0.06,0.05 0,0.03 -0.03,0.06 -0.06,0.06 -0.03,0 -0.05,-0.03 -0.05,-0.06 0,-0.03 0.02,-0.05 0.05,-0.05zm0.38 0.18c0.04,0 0.06,0.03 0.06,0.06 0,0.03 -0.02,0.05 -0.06,0.05 -0.03,0 -0.05,-0.02 -0.05,-0.05 0,-0.03 0.02,-0.06 0.05,-0.06zm-0.19 0c0.04,0 0.06,0.03 0.06,0.06 0,0.03 -0.02,0.05 -0.06,0.05 -0.03,0 -0.05,-0.02 -0.05,-0.05 0,-0.03 0.02,-0.06 0.05,-0.06zm-0.19 0c0.03,0 0.06,0.03 0.06,0.06 0,0.03 -0.03,0.05 -0.06,0.05 -0.03,0 -0.05,-0.02 -0.05,-0.05 0,-0.03 0.02,-0.06 0.05,-0.06z"/>
   <rect class="fil1" width="2.07" height="2.07"/>
  </g>
 </g>
</svg>
