<svg xmlns="http://www.w3.org/2000/svg" width="64" height="64" shape-rendering="geometricPrecision" text-rendering="geometricPrecision" image-rendering="optimizeQuality" fill-rule="evenodd" clip-rule="evenodd" viewBox="0 0 0.67 0.67"><path fill="none" d="M0 0h.67v.67H0z"/><path fill="#fff" d="M.48.4H.44C.42.4.42.39.43.37.45.36.48.35.49.35c.03 0 .03.01.03.04C.52.39.49.4.48.4zm.04.12H.46C.44.51.45.5.45.47H.22C.22.48.23.52.2.52H.14S.13.51.13.5V.36C.13.34.14.34.14.33.11.33.1.33.11.3.12.29.13.29.15.29c0-.01 0-.02.01-.02L.18.2S.19.19.19.18C.2.17.24.16.26.15.31.15.39.14.44.16.46.17.48.18.49.2L.5.26l.01.01c0 .01 0 .01.01.02.01 0 .03 0 .03.01.01.03.01.03-.02.03v.01C.54.36.54.48.54.5.54.51.53.52.52.52zM.15.39c0-.03 0-.04.02-.04.01 0 .05.01.06.02C.25.39.24.4.22.4.21.4.15.4.15.39zM.43.2h.02c.01.02.01.04.01.05.01.02.02.03.02.05H.41C.36.31.31.31.26.3H.18C.19.28.2.22.21.2.22.2.24.19.25.19A.36.36 0 0 1 .43.2z"/></svg>