<svg xmlns="http://www.w3.org/2000/svg" width="64" height="64" viewBox="0 0 0.71 0.71" shape-rendering="geometricPrecision" text-rendering="geometricPrecision" image-rendering="optimizeQuality" fill-rule="evenodd" clip-rule="evenodd"><path fill="none" d="M0 0h.71v.71H0z"/><path d="M.18.23h.35C.55.23.56.21.56.2V.19C.56.17.55.16.53.16H.4V.14C.4.12.38.1.36.1H.35C.33.1.31.12.31.14v.02H.18C.16.16.15.17.15.19V.2c0 .01.01.03.03.03zm0 .03h.35v.29C.53.58.5.61.46.61H.24C.21.61.18.58.18.55V.26zm.08.06c.01 0 .01.01.01.02v.19c0 .01 0 .02-.01.02S.24.54.24.53V.34C.24.33.25.32.26.32zm.09 0c.01 0 .02.01.02.02v.19C.37.54.36.55.35.55.35.55.34.54.34.53V.34C.34.33.35.32.35.32zm.1 0c.01 0 .02.01.02.02v.19C.47.54.46.55.45.55S.44.54.44.53V.34c0-.01 0-.02.01-.02z" fill="#fff"/></svg>