<svg xmlns="http://www.w3.org/2000/svg" width="64" height="64" shape-rendering="geometricPrecision" text-rendering="geometricPrecision" image-rendering="optimizeQuality" fill-rule="evenodd" clip-rule="evenodd" viewBox="0 0 0.74 0.74"><path fill="none" d="M0 0h.74v.74H0z"/><path fill="#fff" d="M.21.49h.08v.06H.21V.49zm.12 0h.08v.06H.33V.49zM.21.41h.08v.05H.21V.41zm.12 0h.08v.05H.33V.41zm.12 0h.08v.05H.45V.41zM.21.33h.08v.05H.21V.33zm.12 0h.08v.05H.33V.33zm.12 0h.08v.05H.45V.33zM.17.27h.39v.31H.17V.27zM.48.12C.5.12.51.13.51.15v.04C.51.21.5.22.48.22.46.22.45.21.45.19V.15C.45.13.46.12.48.12zm-.22 0c.01 0 .03.01.03.03v.04C.29.21.27.22.26.22.24.22.23.21.23.19V.15C.23.13.24.12.26.12zM.18.17h.04v.02c0 .02.02.04.04.04S.3.21.3.19V.17h.14v.02c0 .02.02.04.04.04S.52.21.52.19V.17h.04C.58.17.6.19.6.22v.36C.6.6.58.62.56.62H.18C.16.62.14.6.14.58V.22C.14.19.16.17.18.17zm.29.39L.44.53.46.51l.01.01.05-.04.01.01-.06.07z"/></svg>