<svg xmlns="http://www.w3.org/2000/svg" width="64" height="64" shape-rendering="geometricPrecision" text-rendering="geometricPrecision" image-rendering="optimizeQuality" fill-rule="evenodd" clip-rule="evenodd" viewBox="0 0 0.86 0.86"><path fill="none" d="M0 0h.86v.86H0z"/><path fill="#fff" d="M.23.58h.1v.07h-.1V.58zm.15 0h.01c0 .03 0 .05.01.07H.38V.58zM.23.48h.1v.07h-.1V.48zm.15 0h.03C.4.5.39.52.39.55H.38V.48zM.23.38h.1v.07h-.1V.38zm.15 0h.1V.4C.46.41.45.43.43.45H.38V.38zM.19.3h.48v.08C.69.39.71.4.72.41V.24C.72.21.69.19.67.19H.62v.02C.62.24.6.26.57.26.54.26.52.24.52.21V.19H.34v.02C.34.24.32.26.29.26.26.26.24.24.24.21V.19H.19C.17.19.14.21.14.24v.45c0 .03.03.05.05.05h.28C.45.73.44.71.42.69H.19V.3zM.57.12c.02 0 .04.02.04.03v.06C.61.23.59.25.57.25S.53.23.53.21V.15C.53.14.55.12.57.12zm-.28 0c.02 0 .04.02.04.03v.06C.33.23.31.25.29.25S.26.23.26.21V.15C.26.14.27.12.29.12zm.22.51L.57.58.51.52V.5C.52.49.53.49.54.5l.05.05L.64.5C.65.49.66.49.67.5.68.5.68.52.67.52L.62.58l.05.05c.01 0 .01.02 0 .02C.66.66.65.66.64.65L.59.6.54.65C.53.66.52.66.51.65V.63zM.59.41c.1 0 .17.07.17.17C.76.67.69.74.59.74.5.74.42.67.42.58.42.48.5.41.59.41z"/></svg>