<svg xmlns="http://www.w3.org/2000/svg" width="64" height="64" shape-rendering="geometricPrecision" text-rendering="geometricPrecision" image-rendering="optimizeQuality" fill-rule="evenodd" clip-rule="evenodd" viewBox="0 0 0.99 0.99"><path fill="none" d="M0 0h.99v.99H0z"/><path fill="#fff" d="M.49.13C.67.13.81.2.81.28.81.36.67.42.49.42.32.42.18.36.18.28.18.2.32.13.49.13zm.32.29C.81.5.67.57.49.57.32.57.18.5.18.42V.36c.01.01.03.02.05.03.06.04.15.07.26.07C.6.46.7.43.76.39.78.38.8.37.81.36v.06zm0 .15C.81.65.67.71.49.71.32.71.18.65.18.57V.5c.01.01.03.03.05.04C.29.58.38.6.49.6.6.6.7.58.76.54.78.53.8.51.81.5v.07zm0 .14C.81.79.67.85.49.85.32.85.18.79.18.71V.64c.01.02.03.03.05.04.06.04.15.07.26.07C.6.75.7.72.76.68.78.67.8.66.81.64v.07z"/></svg>