<svg xmlns="http://www.w3.org/2000/svg" width="72" height="72" shape-rendering="geometricPrecision" text-rendering="geometricPrecision" image-rendering="optimizeQuality" fill-rule="evenodd" clip-rule="evenodd" viewBox="0 0 0.53 0.53"><path fill="none" d="M0 0h.53v.53H0z"/><path fill="#fff" d="M.33.12H.4c.02 0 .03.01.03.03v.03C.43.19.42.21.4.21v.21C.4.44.38.45.37.45H.16C.14.45.13.44.13.42V.21H.12C.11.21.09.19.09.18V.15C.09.13.11.12.12.12h.07V.1C.19.08.21.07.22.07H.3C.32.07.33.08.33.1v.02zM.16.21v.22h.21V.21H.16zM.2.23c.01 0 .02.01.02.02v.13C.22.39.21.4.2.4S.18.39.18.38V.25C.18.24.19.23.2.23zm.06 0c.01 0 .02.01.02.02v.13C.28.39.27.4.26.4S.24.39.24.38V.25C.24.24.25.23.26.23zm.06 0c.01 0 .02.01.02.02v.13C.34.39.33.4.32.4S.3.39.3.38V.25C.3.24.31.23.32.23zM.12.15v.03H.4V.15H.12zM.22.1v.02H.3V.1H.22z"/></svg>