<svg xmlns="http://www.w3.org/2000/svg" width="64" height="64" shape-rendering="geometricPrecision" text-rendering="geometricPrecision" image-rendering="optimizeQuality" fill-rule="evenodd" clip-rule="evenodd" viewBox="0 0 0.73 0.73"><path fill="none" d="M0 0h.73v.73H0z"/><path fill="#fff" d="M.14.1h.37L.46.15H.15v.43h.43V.27L.63.22V.6C.63.62.62.63.6.63H.14C.12.63.1.62.1.6V.14C.1.12.12.1.14.1zm.45.02l.03.02c.01.02.01.04 0 .05L.59.22.51.15.55.12C.56.1.58.1.59.12zm-.1.05l.08.07-.19.18L.31.35.49.17zM.36.44L.29.46C.28.46.27.46.27.45L.29.37l.07.07z"/></svg>