<svg xmlns="http://www.w3.org/2000/svg" width="64" height="64" shape-rendering="geometricPrecision" text-rendering="geometricPrecision" image-rendering="optimizeQuality" fill-rule="evenodd" clip-rule="evenodd" viewBox="0 0 0.51 0.51"><path fill="none" d="M.51.51H0V0h.51z"/><path fill="#fff" fill-rule="nonzero" d="M.27.31C.27.32.26.33.25.33.24.34.23.34.22.34c0 0-.01 0-.02-.01C.19.33.18.32.18.31.17.3.17.28.17.27c0-.02 0-.03.01-.05C.19.2.2.19.21.18.23.17.24.17.25.17c.01 0 .02 0 .03.01L.3.2V.17h.03L.31.28C.3.29.3.3.3.3.3.31.3.31.31.31S.33.31.34.3C.35.3.36.28.36.27.37.26.37.24.37.23.37.21.37.19.36.18A.078.078 0 0 0 .32.14C.3.13.28.13.26.13.24.13.22.13.2.15.17.16.16.17.15.2.14.22.13.24.13.26c0 .03.01.05.02.07.01.02.03.03.05.04.02.01.04.01.07.01.02 0 .05 0 .06-.01C.35.36.37.35.38.34H.4C.4.35.39.36.38.37.36.38.35.39.33.4.31.4.29.41.27.41.24.41.22.4.2.4.18.39.17.38.15.37A.138.138 0 0 1 .12.33C.11.31.11.29.11.27c0-.03 0-.05.01-.08C.14.17.15.14.18.13.2.11.23.11.26.11s.05 0 .07.01c.02.01.04.03.05.05C.39.19.4.21.4.23.4.26.39.28.37.31A.09.09 0 0 1 .3.34H.29L.28.33C.27.32.27.32.27.31zM.2.27C.2.29.2.3.21.3c0 .01.01.02.02.02S.24.31.25.31.26.3.27.3C.27.29.28.28.28.27.29.26.29.25.29.24.29.22.28.21.28.2.27.2.26.19.25.19.24.19.24.19.23.2L.22.21C.21.22.21.23.2.24v.03z"/></svg>