<svg xmlns="http://www.w3.org/2000/svg" width="72" height="72" viewBox="0 0 1.19 1.19" shape-rendering="geometricPrecision" text-rendering="geometricPrecision" image-rendering="optimizeQuality" fill-rule="evenodd" clip-rule="evenodd"><path fill="none" d="M0 0h1.19v1.19H0z"/><path d="M.55.64v.35c0 .02-.02.04-.04.04S.47 1.01.47.99V.65H.46v.34c0 .02-.02.04-.04.04-.01 0-.02-.01-.02-.01v-.2h.01C.43.82.45.8.45.78.45.73.43.67.38.64.39.63.4.61.4.59.4.57.39.55.37.54V.48C.36.49.36.51.35.52H.33C.32.52.31.52.3.53A.22.22 0 0 1 .44.34l.03.03.02-.03C.53.36.56.38.58.4.6.38.64.36.67.34L.7.37.72.34c.09.03.13.1.15.19H.86C.84.53.82.54.81.55.81.52.8.5.79.48V.6c0 .02.01.03.02.04C.76.67.74.73.74.79c0 .02.02.03.03.03C.77.84.76.86.76.88v.01c0 .02.01.04.02.05v.05c0 .02-.01.04-.04.04C.72 1.03.7 1.01.7.99V.84H.69v.15c0 .02-.02.04-.04.04S.61 1.01.61.99V.84C.58.83.56.81.56.77.57.72.58.66.6.61.59.61.58.6.58.59V.56v.03C.58.6.57.61.56.61v.02s0 .01-.01.01zM.47.16C.51.16.55.2.55.25.55.29.51.33.47.33.42.33.38.29.38.25.38.2.42.16.47.16zm.23 0C.75.16.78.2.78.25.78.29.75.33.7.33S.62.29.62.25C.62.2.65.16.7.16zM.37.81V1c0 .02-.01.03-.02.03S.33 1.02.33 1V.81H.32V1c0 .02-.01.03-.02.03S.28 1.02.28 1V.81S.27.81.27.8V.72C.26.74.26.76.26.78.26.79.25.8.24.8.24.8.23.79.23.78.23.72.25.66.31.65l.02.01.01-.01C.4.66.42.72.42.78.42.79.42.8.41.8S.39.79.39.78C.39.76.39.74.38.72V.8c0 .01 0 .01-.01.01zM.33.54c.02 0 .04.03.04.05C.37.62.35.64.33.64.3.64.28.62.28.59.28.57.3.54.33.54zm.48.25C.8.82.79.85.79.89c0 .02.01.03.02.03V1c0 .02.01.03.03.03.01 0 .02-.01.02-.03V.93h.01V1c0 .02.01.03.02.03S.91 1.02.91 1V.92C.93.92.94.91.94.89.93.85.93.82.91.79V.72c.02.02.02.04.02.07L.94.8C.95.8.96.79.96.79.96.73.93.67.88.65L.86.67.85.65C.79.67.76.73.77.79c0 0 0 .01.01.01S.8.79.8.79C.8.76.8.74.81.72v.07zM.86.55C.89.55.91.57.91.6.91.62.89.64.86.64.84.64.82.62.82.6.82.57.84.55.86.55z" fill="#fff"/></svg>