<svg xmlns="http://www.w3.org/2000/svg" width="64" height="64" shape-rendering="geometricPrecision" text-rendering="geometricPrecision" image-rendering="optimizeQuality" fill-rule="evenodd" clip-rule="evenodd" viewBox="0 0 0.69 0.69"><path fill="none" d="M0 0h.69v.69H0z"/><path fill="#fff" d="M.29.32h.02C.28.35.25.38.25.43H.19c0-.06.04-.11.1-.11zM.38.13c.05 0 .09.03.09.08C.47.25.43.29.38.29.34.29.3.25.3.21.3.16.34.13.38.13zm0 .18C.45.31.5.36.51.43H.26C.26.36.32.31.38.31zM.29.17H.3C.3.18.29.2.29.21c0 .03.02.06.05.08C.33.3.31.31.29.31.25.31.22.28.22.24.22.2.25.17.29.17zm.06.4C.21.57.09.5.09.41c0-.04.03-.08.06-.1C.16.3.17.31.16.32S.14.35.14.37C.14.44.23.5.35.5.46.5.55.44.55.37.55.35.55.33.53.32.53.31.54.3.54.31.58.33.6.37.6.41.6.5.49.57.35.57z"/></svg>