<svg xmlns="http://www.w3.org/2000/svg" width="72" height="72" viewBox="0 0 0.7 0.7" shape-rendering="geometricPrecision" text-rendering="geometricPrecision" image-rendering="optimizeQuality" fill-rule="evenodd" clip-rule="evenodd"><path d="M.15.43L.19.38l.04.03.09-.1.03.04.07-.09.07.11v.07H.15V.43zM.22.21c.02 0 .04.01.04.04C.26.27.24.29.22.29S.18.27.18.25C.18.22.2.21.22.21zM.12.16h.4c.01 0 .03.01.03.03v.27C.55.47.53.49.52.49h-.4C.11.49.09.47.09.46V.19C.09.17.11.16.12.16zm.01.03h.38v.26H.13V.19zm.44.02C.59.21.6.22.6.24v.27C.6.52.59.54.57.54H.18C.16.54.15.52.15.51h.38C.56.51.57.5.57.47V.21z" fill="#fff"/><path fill="none" d="M0 0h.7v.7H0z"/></svg>