<svg xmlns="http://www.w3.org/2000/svg" width="64" height="64" shape-rendering="geometricPrecision" text-rendering="geometricPrecision" image-rendering="optimizeQuality" fill-rule="evenodd" clip-rule="evenodd" viewBox="0 0 0.8 0.8"><path fill="none" d="M0 0h.8v.8H0z"/><path fill="#fff" d="M.18.17h.05V.2c0 .02.02.04.04.04C.3.24.32.22.32.2V.17h.16V.2c0 .02.02.04.05.04C.56.24.58.22.58.2V.17h.04C.65.17.67.2.67.22v.42C.67.67.65.69.62.69H.18C.15.69.13.67.13.64V.22C.13.2.15.17.18.17zM.27.11c.02 0 .04.01.04.03V.2C.31.21.29.23.27.23S.24.21.24.2V.14C.24.12.25.11.27.11zm.26 0c.02 0 .03.01.03.03V.2C.56.21.55.23.53.23.51.23.5.21.5.2V.14C.5.12.51.11.53.11zM.17.28h.46v.37H.17V.28zm.14.17L.27.41H.26C.25.42.24.45.24.46c0 .01 0 .01.01.01L.28.5C.3.51.31.53.33.55c0 .01.01.02.01.02 0 .01.01.01.01.01S.36.58.36.57L.39.54A.5.5 0 0 1 .46.46L.52.4C.53.4.54.39.55.38.56.38.56.37.56.37.54.37.5.35.48.35H.47C.46.36.45.38.43.39L.37.48.36.49H.35L.31.45z"/></svg>