<svg xmlns="http://www.w3.org/2000/svg" width="64" height="64" shape-rendering="geometricPrecision" text-rendering="geometricPrecision" image-rendering="optimizeQuality" fill-rule="evenodd" clip-rule="evenodd" viewBox="0 0 0.78 0.78"><path fill="#fff" d="M.43.15c.14 0 .25.11.25.24C.68.53.57.64.43.64A.27.27 0 0 1 .28.59L.32.54c.03.02.07.04.11.04.1 0 .19-.09.19-.19S.53.21.43.21.25.29.25.39h.08L.22.5.11.39h.08C.19.25.3.15.43.15zm.1.31L.5.49.41.4V.26h.04v.12l.08.08z"/><path fill="none" d="M0 0h.78v.78H0z"/></svg>