<?xml version="1.0" encoding="UTF-8"?>
<!DOCTYPE svg PUBLIC "-//W3C//DTD SVG 1.1//EN" "http://www.w3.org/Graphics/SVG/1.1/DTD/svg11.dtd">
<!-- Creator: CorelDRAW 2017 -->
<svg xmlns="http://www.w3.org/2000/svg" xml:space="preserve" width="64px" height="64px" version="1.1" style="shape-rendering:geometricPrecision; text-rendering:geometricPrecision; image-rendering:optimizeQuality; fill-rule:evenodd; clip-rule:evenodd"
viewBox="0 0 0.94 0.94"
 xmlns:xlink="http://www.w3.org/1999/xlink">
 <defs>
  <style type="text/css">
   <![CDATA[
    .fil0 {fill:none}
    .fil1 {fill:white;fill-rule:nonzero}
   ]]>
  </style>
 </defs>
 <g id="Camada_x0020_1">
  <metadata id="CorelCorpID_0Corel-Layer"/>
  <g id="_1212953008">
   <rect class="fil0" width="0.94" height="0.94"/>
   <path class="fil1" d="M0.27 0.68c-0.04,0 -0.07,-0.02 -0.1,-0.04 -0.03,-0.03 -0.04,-0.06 -0.04,-0.1 0,-0.04 0.01,-0.07 0.03,-0.1 0.02,-0.02 0.05,-0.03 0.08,-0.04 0.01,-0.04 0.03,-0.07 0.05,-0.1 0.03,-0.02 0.07,-0.04 0.11,-0.04 0.03,0 0.06,0.01 0.09,0.02 0.02,0.02 0.04,0.03 0.05,0.05 0.01,0 0.01,0 0.01,0 0.01,0 0.02,0 0.03,0 0.03,0 0.05,0.01 0.07,0.02 0.02,0.02 0.03,0.04 0.04,0.06 0.03,0 0.06,0.01 0.08,0.04 0.03,0.02 0.04,0.05 0.04,0.09 0,0.04 -0.01,0.07 -0.04,0.1 -0.02,0.02 -0.06,0.04 -0.09,0.04 -0.14,0 -0.27,0 -0.41,0z"/>
  </g>
 </g>
</svg>
