<?xml version="1.0" encoding="UTF-8"?>
<!DOCTYPE svg PUBLIC "-//W3C//DTD SVG 1.1//EN" "http://www.w3.org/Graphics/SVG/1.1/DTD/svg11.dtd">
<!-- Creator: CorelDRAW 2017 -->
<svg xmlns="http://www.w3.org/2000/svg" xml:space="preserve" width="72px" height="72px" version="1.1" style="shape-rendering:geometricPrecision; text-rendering:geometricPrecision; image-rendering:optimizeQuality; fill-rule:evenodd; clip-rule:evenodd"
viewBox="0 0 3.55 3.55"
 xmlns:xlink="http://www.w3.org/1999/xlink">
 <defs>
  <style type="text/css">
   <![CDATA[
    .fil0 {fill:none}
    .fil1 {fill:white}
    .fil2 {fill:white;fill-rule:nonzero}
   ]]>
  </style>
 </defs>
 <g id="Camada_x0020_1">
  <metadata id="CorelCorpID_0Corel-Layer"/>
  <g id="_1157794800">
   <rect class="fil0" width="3.55" height="3.55"/>
   <g>
    <path class="fil1" d="M1.78 0.48c0.71,0 1.28,0.58 1.28,1.3 0,0.71 -0.57,1.28 -1.28,1.28 -0.72,0 -1.3,-0.57 -1.3,-1.28 0,-0.72 0.58,-1.3 1.3,-1.3zm0 0.16c0.62,0 1.13,0.51 1.13,1.14 0,0.62 -0.51,1.13 -1.13,1.13 -0.63,0 -1.14,-0.51 -1.14,-1.13 0,-0.63 0.51,-1.14 1.14,-1.14z"/>
    <path class="fil2" d="M2.07 2.49l-0.56 0 0 -0.06c0.02,0 0.04,0 0.06,0 0.02,0 0.03,-0.01 0.05,-0.01 0.02,0 0.03,-0.01 0.04,-0.03 0.02,-0.01 0.02,-0.03 0.02,-0.05l0 -0.58c0,-0.02 -0.01,-0.04 -0.02,-0.06 -0.01,-0.02 -0.02,-0.03 -0.04,-0.04 -0.02,-0.01 -0.04,-0.02 -0.07,-0.02 -0.02,-0.01 -0.05,-0.01 -0.07,-0.01l0 -0.06 0.4 -0.02 0.02 0.01 0 0.76c0,0.03 0,0.04 0.02,0.06 0.01,0.01 0.02,0.02 0.04,0.03 0.02,0.01 0.04,0.01 0.05,0.02 0.02,0 0.04,0 0.06,0l0 0.06zm-0.15 -1.32c0,0.04 -0.01,0.07 -0.04,0.1 -0.03,0.03 -0.07,0.04 -0.11,0.04 -0.04,0 -0.07,-0.01 -0.1,-0.04 -0.03,-0.03 -0.04,-0.05 -0.04,-0.09 0,-0.03 0.01,-0.06 0.04,-0.09 0.03,-0.03 0.06,-0.04 0.1,-0.04 0.05,0 0.08,0.01 0.11,0.04 0.03,0.02 0.04,0.05 0.04,0.08z"/>
   </g>
  </g>
 </g>
</svg>
