<svg xmlns="http://www.w3.org/2000/svg" width="72" height="72" viewBox="0 0 0.86 0.86" shape-rendering="geometricPrecision" text-rendering="geometricPrecision" image-rendering="optimizeQuality" fill-rule="evenodd" clip-rule="evenodd"><path fill="none" d="M0 0h.86v.86H0z"/><path d="M.27.19h.47V.12H.27v.07zm-.15 0h.07V.12H.12v.07zm.15.19h.47V.3H.27v.08zm-.15 0h.07V.3H.12v.08zm.15.18h.2C.47.53.48.5.49.48H.27v.08zm-.15 0h.07V.48H.12v.08zm.15.18h.19V.73C.45.72.44.71.44.7a.03.03 0 0 1 0-.04H.27v.08zm-.15 0h.07V.66H.12v.08zM.61.43c.01 0 .02.01.02.03h.01c.04.02.07.06.07.1v.09c.01.01.02.02.03.02v.02H.48S.47.7.47.69s0-.01.01-.02L.5.65V.56C.5.52.53.48.58.46.58.44.59.43.6.43h.01zM.6.74C.59.73.58.73.58.72.57.71.57.71.58.71h.05c.01 0 .01 0 .01.01L.62.74H.6z" fill="#fff"/></svg>