<svg xmlns="http://www.w3.org/2000/svg" width="72" height="72" shape-rendering="geometricPrecision" text-rendering="geometricPrecision" image-rendering="optimizeQuality" fill-rule="evenodd" clip-rule="evenodd" viewBox="0 0 0.76 0.76"><circle fill="#9B313E" stroke="#FC0505" stroke-width=".01" stroke-linecap="round" stroke-linejoin="round" stroke-miterlimit="22.926" cx=".38" cy=".38" r=".37"/><path fill="#fff" d="M.38.06C.21.06.06.21.06.38.06.56.21.7.38.7.56.7.7.56.7.38.7.21.56.06.38.06zm0-.06a.38.38 0 1 1 0 .76.38.38 0 0 1 0-.76zM.2.5L.32.38.2.26C.19.25.19.22.2.2.22.19.25.19.26.2l.12.12L.5.2C.52.19.54.19.56.2c.02.02.02.05 0 .06L.44.38.56.5c.02.02.02.04 0 .06C.54.58.52.58.5.56L.38.44.26.56C.25.58.22.58.2.56A.064.064 0 0 1 .2.5z"/></svg>