<?xml version="1.0" encoding="UTF-8"?>
<!DOCTYPE svg PUBLIC "-//W3C//DTD SVG 1.1//EN" "http://www.w3.org/Graphics/SVG/1.1/DTD/svg11.dtd">
<!-- Creator: CorelDRAW 2017 -->
<svg xmlns="http://www.w3.org/2000/svg" xml:space="preserve" width="72px" height="72px" version="1.1" style="shape-rendering:geometricPrecision; text-rendering:geometricPrecision; image-rendering:optimizeQuality; fill-rule:evenodd; clip-rule:evenodd"
viewBox="0 0 2.04 2.04"
 xmlns:xlink="http://www.w3.org/1999/xlink">
 <defs>
  <style type="text/css">
   <![CDATA[
    .fil0 {fill:none}
    .fil1 {fill:white}
   ]]>
  </style>
 </defs>
 <g id="Camada_x0020_1">
  <metadata id="CorelCorpID_0Corel-Layer"/>
  <g id="_1177977104">
   <rect class="fil0" width="2.04" height="2.04"/>
   <path class="fil1" d="M0.8 1.56c0,0.01 0,0.01 0,0.01l0 0.16c0,0.02 -0.01,0.03 -0.03,0.03l-0.01 0c-0.01,0 -0.03,-0.01 -0.03,-0.03l0 -0.16c0,0 0,0 0,-0.01l0.07 0zm0.17 0c0,0.01 0,0.01 0,0.01l0 0.16c0,0.02 -0.01,0.03 -0.03,0.03l-0.01 0c-0.02,0 -0.03,-0.01 -0.03,-0.03l0 -0.16c0,0 0,0 0,-0.01l0.07 0zm0.17 0c0,0.01 0,0.01 0,0.01l0 0.16c0,0.02 -0.02,0.03 -0.03,0.03l-0.01 0c-0.02,0 -0.03,-0.01 -0.03,-0.03l0 -0.16c0,0 0,0 0,-0.01l0.07 0zm0.16 0c0,0.01 0,0.01 0,0.01l0 0.16c0,0.02 -0.01,0.03 -0.02,0.03l-0.02 0c-0.01,0 -0.02,-0.01 -0.02,-0.03l0 -0.16c0,0 0,0 0,-0.01l0.06 0zm0.46 -0.8l0 0.01c0,0.02 -0.01,0.03 -0.03,0.03l-0.16 0c0,0 0,0 -0.01,0l0 -0.07c0.01,0 0.01,0 0.01,0l0.16 0c0.02,0 0.03,0.02 0.03,0.03zm0 0.17l0 0.01c0,0.02 -0.01,0.03 -0.03,0.03l-0.16 0c0,0 0,0 -0.01,0l0 -0.07c0.01,0 0.01,0 0.01,0l0.16 0c0.02,0 0.03,0.01 0.03,0.03zm0 0.17l0 0.01c0,0.01 -0.01,0.03 -0.03,0.03l-0.16 0c0,0 0,0 -0.01,0l0 -0.07c0.01,0 0.01,0 0.01,0l0.16 0c0.02,0 0.03,0.01 0.03,0.03zm0 0.16l0 0.02c0,0.01 -0.01,0.02 -0.03,0.02l-0.16 0c0,0 0,0 -0.01,0l0 -0.06c0.01,0 0.01,0 0.01,0l0.16 0c0.02,0 0.03,0.01 0.03,0.02zm-1 -0.98l0.01 0c0.02,0 0.03,0.01 0.03,0.03l0 0.16c0,0 0,0 0,0l-0.07 0c0,0 0,0 0,0l0 -0.16c0,-0.02 0.02,-0.03 0.03,-0.03zm0.17 0l0.01 0c0.02,0 0.03,0.01 0.03,0.03l0 0.16c0,0 0,0 0,0l-0.07 0c0,0 0,0 0,0l0 -0.16c0,-0.02 0.01,-0.03 0.03,-0.03zm0.17 0l0.01 0c0.01,0 0.03,0.01 0.03,0.03l0 0.16c0,0 0,0 0,0l-0.07 0c0,0 0,0 0,0l0 -0.16c0,-0.02 0.01,-0.03 0.03,-0.03zm0.16 0l0.02 0c0.01,0 0.02,0.01 0.02,0.03l0 0.16c0,0 0,0 0,0l-0.06 0c0,0 0,0 0,0l0 -0.16c0,-0.02 0.01,-0.03 0.02,-0.03zm-0.79 0.52c0,0 0,0 0,0l-0.16 0c-0.02,0 -0.03,-0.01 -0.03,-0.03l0 -0.01c0,-0.01 0.01,-0.03 0.03,-0.03l0.16 0c0,0 0,0 0,0l0 0.07zm0 0.17c0,0 0,0 0,0l-0.16 0c-0.02,0 -0.03,-0.01 -0.03,-0.03l0 -0.01c0,-0.02 0.01,-0.03 0.03,-0.03l0.16 0c0,0 0,0 0,0l0 0.07zm0 0.17c0,0 0,0 0,0l-0.16 0c-0.02,0 -0.03,-0.02 -0.03,-0.03l0 -0.01c0,-0.02 0.01,-0.03 0.03,-0.03l0.16 0c0,0 0,0 0,0l0 0.07zm0 0.16c0,0 0,0 0,0l-0.16 0c-0.02,0 -0.03,-0.01 -0.03,-0.02l0 -0.02c0,-0.01 0.01,-0.02 0.03,-0.02l0.16 0c0,0 0,0 0,0l0 0.06zm0.16 -0.8l0.78 0c0.07,0 0.13,0.06 0.13,0.13l0 0.78c0,0.07 -0.06,0.13 -0.13,0.13l-0.78 0c-0.07,0 -0.13,-0.06 -0.13,-0.13l0 -0.78c0,-0.07 0.06,-0.13 0.13,-0.13zm0.3 0.57l0.07 -0.17 0.05 0 0.1 0.24 -0.06 0 -0.03 -0.07 -0.06 0 -0.03 0.07 -0.1 0 0 -0.1 -0.04 0.1 -0.04 0 -0.04 -0.1 0 0.1 -0.06 0 0 -0.24 0.06 0 0.06 0.14 0.06 -0.14 0.06 0 0 0.17zm0.19 -0.07c0,-0.02 0.01,-0.04 0.02,-0.05 0.01,-0.02 0.03,-0.03 0.04,-0.04 0.02,-0.01 0.04,-0.01 0.06,-0.01 0.02,0 0.04,0 0.06,0.01 0.02,0.02 0.03,0.03 0.05,0.05l0.01 0.03 -0.06 0 -0.01 -0.01c-0.01,-0.01 -0.03,-0.02 -0.05,-0.02 -0.01,0 -0.02,0 -0.03,0.01 -0.01,0 -0.02,0.01 -0.02,0.02 -0.01,0.01 -0.01,0.02 -0.01,0.03 0,0.01 0,0.02 0.01,0.03 0,0.01 0.01,0.02 0.02,0.02 0.01,0.01 0.02,0.01 0.03,0.01 0.02,0 0.04,-0.01 0.05,-0.03l0.01 -0.01 0.06 0 -0.01 0.04c-0.01,0.01 -0.02,0.02 -0.03,0.03 -0.01,0.01 -0.03,0.02 -0.04,0.02 -0.01,0.01 -0.03,0.01 -0.04,0.01 -0.02,0 -0.04,-0.01 -0.06,-0.02 -0.02,-0.01 -0.04,-0.03 -0.05,-0.05 -0.01,-0.02 -0.01,-0.04 -0.01,-0.07zm-0.09 0l-0.01 0.01 0.01 0 0 -0.01z"/>
  </g>
 </g>
</svg>
