<svg xmlns="http://www.w3.org/2000/svg" width="64" height="64" shape-rendering="geometricPrecision" text-rendering="geometricPrecision" image-rendering="optimizeQuality" fill-rule="evenodd" clip-rule="evenodd" viewBox="0 0 0.57 0.57"><path fill="none" d="M.57.57H0V0h.57z"/><path fill="#fff" fill-rule="nonzero" d="M.47.18C.47.15.45.13.43.13H.4v.03c.01 0 .02.01.02.01.01.01.02.02.02.03v.07H.13V.2s0-.01.01-.02C.14.17.15.16.17.16V.13H.14C.13.13.12.14.11.15.1.16.1.17.1.18v.25C.1.45.1.46.12.47c0 0 .01.01.02.01h.28C.44.48.45.47.46.46.47.45.47.44.47.43V.18zM.19.09H.2C.21.09.21.09.21.1v.08S.21.19.2.19H.19C.18.19.18.18.18.18V.1c0-.01 0-.01.01-.01zm.18 0h.02v.1H.37C.36.19.36.18.36.18V.1c0-.01 0-.01.01-.01zM.22.13h.13v.03H.22V.13zM.27.3S.28.3.28.29V.28v.01C.29.29.29.3.3.3v.01C.3.32.29.32.29.32H.28h.01V.31S.28.31.28.3v.02S.27.32.27.31V.3zm0 .03C.28.33.29.33.29.32H.3v.05H.27V.34H.26C.26.33.27.33.27.33zM.21.4s0-.01.01-.01c0 0 0-.01.01-.01h.12v.03H.32S.31.41.31.4L.3.41H.27C.26.41.26.4.26.4L.25.41H.22V.4H.21zm.16.04S.36.44.36.45H.21L.2.44h.01V.41h.01s0 .01.01.01h.01S.25.42.25.41h.01s.01.01.02.01h.01S.3.42.3.41h.01l.01.01h.02L.35.41v.03h.02z"/></svg>