<svg xmlns="http://www.w3.org/2000/svg" width="64" height="64" shape-rendering="geometricPrecision" text-rendering="geometricPrecision" image-rendering="optimizeQuality" fill-rule="evenodd" clip-rule="evenodd" viewBox="0 0 0.43 0.43"><path fill="none" d="M.43.43H0V0h.43z"/><path fill="#093" d="M.11.2C.1.18.08.17.07.16.06.15.05.15.05.15.04.16.03.2.03.21c0 .01 0 .01.01.01.01.01.02.02.03.04.02.01.04.04.06.06 0 .01.01.01.02.02v.01c.01.01.01.01.02 0C.18.33.19.32.2.31.23.27.25.24.28.21.3.19.33.17.36.14.37.13.39.13.4.12.4.11.41.11.4.11A.318.318 0 0 0 .31.08H.3L.25.13a.36.36 0 0 0-.07.1S.17.24.17.25H.16C.15.25.12.21.11.2z"/></svg>