<svg xmlns="http://www.w3.org/2000/svg" width="64" height="64" shape-rendering="geometricPrecision" text-rendering="geometricPrecision" image-rendering="optimizeQuality" fill-rule="evenodd" clip-rule="evenodd" viewBox="0 0 0.92 0.92"><path fill="none" d="M0 0h.92v.92H0z"/><path fill="#fff" d="M.59.4H.32C.3.4.32.36.32.36.33.35.33.35.34.35h.27c.01 0 0 .02 0 .03C.6.39.6.4.59.4zM.1.69V.61L.13.57V.56C.13.55.14.54.14.53.16.49.15.48.15.47h.01C.17.44.19.42.19.39.2.35.18.36.21.33A.19.19 0 0 0 .24.25c0-.02 0-.02.01-.04C.26.21.26.2.26.2.27.19.27.18.27.18.28.17.28.16.29.14.31.12.33.13.34.13H.7c.02 0 .03.01.04.01.02.03.01.07 0 .1l-.1.32C.63.6.63.62.61.65.59.68.57.68.55.68H.17C.13.68.15.74.2.74h.42C.63.74.64.73.65.72c0 0 0-.01.01-.02L.69.57.73.45C.75.41.76.36.77.32.78.3.79.28.79.26.8.26.8.27.81.28S.82.3.82.32C.82.33.79.43.78.45l-.03.1c0 .01 0 .02-.01.03C.73.62.72.67.7.71.7.72.7.73.69.74.68.77.65.79.62.79H.2C.18.79.15.77.13.76.12.75.12.74.11.73.1.71.1.7.1.69zm.52-.4H.36C.34.29.35.27.36.25c0 0 0-.01.01-.01h.27c.02 0 .01.02 0 .04C.64.29.63.29.62.29z"/></svg>