<?xml version="1.0" encoding="UTF-8"?>
<!DOCTYPE svg PUBLIC "-//W3C//DTD SVG 1.1//EN" "http://www.w3.org/Graphics/SVG/1.1/DTD/svg11.dtd">
<!-- Creator: CorelDRAW 2017 -->
<svg xmlns="http://www.w3.org/2000/svg" xml:space="preserve" width="128px" height="128px" version="1.1" style="shape-rendering:geometricPrecision; text-rendering:geometricPrecision; image-rendering:optimizeQuality; fill-rule:evenodd; clip-rule:evenodd"
viewBox="0 0 7.62 7.62"
 xmlns:xlink="http://www.w3.org/1999/xlink">
 <defs>
  <style type="text/css">
   <![CDATA[
    .fil0 {fill:none}
    .fil1 {fill:white}
   ]]>
  </style>
 </defs>
 <g id="Camada_x0020_1">
  <metadata id="CorelCorpID_0Corel-Layer"/>
  <g id="_1195796928">
   <rect class="fil0" width="7.62" height="7.62"/>
   <path class="fil1" d="M1.34 2.6l4.94 0c0.17,0 0.3,0.14 0.3,0.31l0 1.81c0,0.16 -0.13,0.3 -0.3,0.3l-4.94 0c-0.16,0 -0.3,-0.14 -0.3,-0.3l0 -1.81c0,-0.17 0.14,-0.31 0.3,-0.31zm0 0.23l4.94 0c0.04,0 0.08,0.03 0.08,0.08l0 1.81c0,0.04 -0.04,0.07 -0.08,0.07l-4.94 0c-0.04,0 -0.07,-0.03 -0.07,-0.07l0 -1.81c0,-0.05 0.03,-0.08 0.07,-0.08zm0.73 0.18l3.48 0c0.11,0 0.2,0.09 0.2,0.2l0 0c0,0.1 -0.09,0.19 -0.2,0.19l-3.48 0c-0.11,0 -0.2,-0.09 -0.2,-0.19l0 0c0,-0.11 0.09,-0.2 0.2,-0.2zm-0.27 1.4l0.21 -0.33 -0.19 -0.29 0.14 0 0.13 0.18 0.12 -0.18 0.14 0 -0.19 0.29 0.21 0.33 -0.15 0 -0.13 -0.21 -0.14 0.21 -0.15 0zm0.59 0l0.21 -0.33 -0.19 -0.29 0.14 0 0.13 0.18 0.12 -0.18 0.14 0 -0.19 0.29 0.21 0.33 -0.15 0 -0.14 -0.21 -0.13 0.21 -0.15 0zm0.59 0l0.21 -0.33 -0.19 -0.29 0.14 0 0.12 0.18 0.13 -0.18 0.14 0 -0.19 0.29 0.21 0.33 -0.15 0 -0.14 -0.21 -0.13 0.21 -0.15 0zm0.63 -0.17l0 -0.12 0.24 0 0 0.12 -0.24 0zm0.49 -0.46c0.06,0 0.11,0.02 0.14,0.07 0.05,0.05 0.07,0.13 0.07,0.25 0,0.12 -0.02,0.2 -0.07,0.25 -0.03,0.05 -0.08,0.07 -0.14,0.07 -0.06,0 -0.11,-0.02 -0.14,-0.07 -0.04,-0.05 -0.06,-0.13 -0.06,-0.25 0,-0.12 0.02,-0.2 0.06,-0.25 0.04,-0.05 0.08,-0.07 0.14,-0.07zm0 0.1c-0.01,0 -0.02,0.01 -0.03,0.02 -0.02,0 -0.02,0.02 -0.03,0.04 -0.01,0.04 -0.01,0.09 -0.01,0.16 0,0.07 0,0.12 0.01,0.15 0.01,0.03 0.02,0.05 0.03,0.06 0.01,0 0.02,0.01 0.03,0.01 0.02,0 0.03,-0.01 0.04,-0.01 0.01,-0.01 0.02,-0.03 0.03,-0.05 0.01,-0.03 0.01,-0.09 0.01,-0.16 0,-0.07 0,-0.12 -0.01,-0.15 -0.01,-0.03 -0.02,-0.05 -0.03,-0.05 -0.01,-0.01 -0.02,-0.02 -0.04,-0.02zm0.5 -0.1c0.06,0 0.1,0.02 0.14,0.07 0.04,0.05 0.06,0.13 0.06,0.25 0,0.12 -0.02,0.2 -0.06,0.25 -0.04,0.05 -0.08,0.07 -0.14,0.07 -0.06,0 -0.11,-0.02 -0.15,-0.07 -0.04,-0.05 -0.05,-0.13 -0.05,-0.25 0,-0.12 0.02,-0.2 0.06,-0.25 0.03,-0.05 0.08,-0.07 0.14,-0.07zm0 0.1c-0.02,0 -0.03,0.01 -0.04,0.02 -0.01,0 -0.02,0.02 -0.03,0.04 0,0.04 -0.01,0.09 -0.01,0.16 0,0.07 0.01,0.12 0.01,0.15 0.01,0.03 0.02,0.05 0.03,0.06 0.01,0 0.02,0.01 0.04,0.01 0.01,0 0.02,-0.01 0.04,-0.01 0.01,-0.01 0.02,-0.03 0.02,-0.05 0.01,-0.03 0.01,-0.09 0.01,-0.16 0,-0.07 0,-0.12 -0.01,-0.15 0,-0.03 -0.01,-0.05 -0.02,-0.05 -0.02,-0.01 -0.03,-0.02 -0.04,-0.02zm0.49 -0.1c0.06,0 0.11,0.02 0.14,0.07 0.04,0.05 0.06,0.13 0.06,0.25 0,0.12 -0.02,0.2 -0.06,0.25 -0.03,0.05 -0.08,0.07 -0.14,0.07 -0.06,0 -0.11,-0.02 -0.14,-0.07 -0.04,-0.05 -0.06,-0.13 -0.06,-0.25 0,-0.12 0.02,-0.2 0.06,-0.25 0.03,-0.05 0.08,-0.07 0.14,-0.07zm0 0.1c-0.01,0 -0.03,0.01 -0.04,0.02 -0.01,0 -0.02,0.02 -0.02,0.04 -0.01,0.04 -0.01,0.09 -0.01,0.16 0,0.07 0,0.12 0.01,0.15 0,0.03 0.01,0.05 0.02,0.06 0.01,0 0.03,0.01 0.04,0.01 0.02,0 0.03,-0.01 0.04,-0.01 0.01,-0.01 0.02,-0.03 0.03,-0.05 0,-0.03 0.01,-0.09 0.01,-0.16 0,-0.07 -0.01,-0.12 -0.01,-0.15 -0.01,-0.03 -0.02,-0.05 -0.03,-0.05 -0.01,-0.01 -0.02,-0.02 -0.04,-0.02zm0.49 -0.1c0.07,0 0.11,0.02 0.15,0.07 0.04,0.05 0.06,0.13 0.06,0.25 0,0.12 -0.02,0.2 -0.06,0.25 -0.04,0.05 -0.08,0.07 -0.15,0.07 -0.06,0 -0.1,-0.02 -0.14,-0.07 -0.04,-0.05 -0.06,-0.13 -0.06,-0.25 0,-0.12 0.02,-0.2 0.06,-0.25 0.04,-0.05 0.08,-0.07 0.14,-0.07zm0 0.1c-0.01,0 -0.02,0.01 -0.03,0.02 -0.01,0 -0.02,0.02 -0.03,0.04 -0.01,0.04 -0.01,0.09 -0.01,0.16 0,0.07 0,0.12 0.01,0.15 0.01,0.03 0.02,0.05 0.03,0.06 0.01,0 0.02,0.01 0.03,0.01 0.02,0 0.03,-0.01 0.04,-0.01 0.01,-0.01 0.02,-0.03 0.03,-0.05 0.01,-0.03 0.01,-0.09 0.01,-0.16 0,-0.07 0,-0.12 -0.01,-0.15 -0.01,-0.03 -0.02,-0.05 -0.03,-0.05 -0.01,-0.01 -0.02,-0.02 -0.04,-0.02z"/>
  </g>
 </g>
</svg>
