<svg xmlns="http://www.w3.org/2000/svg" width="64" height="64" shape-rendering="geometricPrecision" text-rendering="geometricPrecision" image-rendering="optimizeQuality" fill-rule="evenodd" clip-rule="evenodd" viewBox="0 0 0.51 0.51"><path fill="none" d="M.51.51H0V0h.51z"/><path fill="#fff" d="M.36.2V.17A.09.09 0 0 0 .27.08H.24a.09.09 0 0 0-.09.09V.2h.03V.17C.18.14.21.12.24.12h.03C.3.12.33.14.33.17V.2h.03zM.14.21h.22C.39.21.4.23.4.25v.14C.4.41.39.43.36.43H.14C.12.43.11.41.11.39V.25C.11.23.12.21.14.21zm.03.08C.19.29.2.31.2.32.2.34.19.35.17.35.16.35.15.34.15.32.15.31.16.29.17.29zm.08 0c.02 0 .03.02.03.03C.28.34.27.35.25.35.24.35.23.34.23.32.23.31.24.29.25.29zm.09 0c.01 0 .02.02.02.03C.36.34.35.35.34.35.32.35.31.34.31.32.31.31.32.29.34.29z"/></svg>