<svg xmlns="http://www.w3.org/2000/svg" width="64" height="64" shape-rendering="geometricPrecision" text-rendering="geometricPrecision" image-rendering="optimizeQuality" fill-rule="evenodd" clip-rule="evenodd" viewBox="0 0 0.91 0.91"><path fill="none" d="M0 0h.91v.91H0z"/><path fill="#fff" d="M.17.19C.24.2.34.18.39.22l.25.26c.02.01.02.04 0 .05L.47.71C.45.72.43.72.41.71L.16.45C.11.41.13.3.13.24.13.21.15.19.17.19zm.04.08C.22.26.25.26.27.27c.02.02.02.05 0 .07C.25.35.22.35.21.34a.048.048 0 0 1 0-.07zm.2-.08C.45.19.49.2.52.22l.25.26c.02.01.02.04 0 .05L.6.71C.59.72.56.72.54.71L.53.7.67.56C.7.53.7.48.67.45L.41.19z"/></svg>