<svg xmlns="http://www.w3.org/2000/svg" width="64" height="64" shape-rendering="geometricPrecision" text-rendering="geometricPrecision" image-rendering="optimizeQuality" fill-rule="evenodd" clip-rule="evenodd" viewBox="0 0 3.45 3.45"><path fill="none" d="M0 0h3.45v3.45H0z"/><path fill="#fff" d="M.93 2.34h.41v.27H.93v-.27zm.59 0h.41v.27h-.41v-.27zm-.59-.41h.41v.27H.93v-.27zm.59 0h.41v.27h-.41v-.27zm.59 0h.41v.27h-.41v-.27zM.93 1.52h.41v.27H.93v-.27zm.59 0h.41v.27h-.41v-.27zm.59 0h.41v.27h-.41v-.27zm-1.35-.3H2.7v1.56H.76V1.22zM2.29.47c.07 0 .14.07.14.14v.23c0 .08-.07.15-.14.15-.09 0-.15-.07-.15-.15V.61c0-.07.06-.14.15-.14zm-1.11 0c.07 0 .15.07.15.14v.23c0 .08-.08.15-.15.15-.09 0-.14-.07-.14-.15V.61c0-.07.05-.14.14-.14zM.77.76h.2v.08c0 .11.09.2.21.2a.2.2 0 0 0 .2-.2V.76h.69v.08c0 .11.09.2.22.2.1 0 .19-.09.19-.2V.76h.2c.1 0 .21.08.21.21v1.8c0 .12-.11.21-.21.21H.77c-.1 0-.21-.09-.21-.21V.97C.56.84.67.76.77.76zm1.48 1.9l-.18-.14.09-.09.09.05.23-.21.07.05-.3.34z"/></svg>