<?xml version="1.0" encoding="UTF-8"?>
<!DOCTYPE svg PUBLIC "-//W3C//DTD SVG 1.1//EN" "http://www.w3.org/Graphics/SVG/1.1/DTD/svg11.dtd">
<!-- Creator: CorelDRAW 2017 -->
<svg xmlns="http://www.w3.org/2000/svg" xml:space="preserve" width="72px" height="72px" version="1.1" style="shape-rendering:geometricPrecision; text-rendering:geometricPrecision; image-rendering:optimizeQuality; fill-rule:evenodd; clip-rule:evenodd"
viewBox="0 0 1 1"
 xmlns:xlink="http://www.w3.org/1999/xlink">
 <defs>
  <style type="text/css">
   <![CDATA[
    .fil0 {fill:none}
    .fil1 {fill:white}
   ]]>
  </style>
 </defs>
 <g id="Camada_x0020_1">
  <metadata id="CorelCorpID_0Corel-Layer"/>
  <g id="_1175941152">
   <rect class="fil0" width="1" height="1"/>
   <path class="fil1" d="M0.72 0.65c0.06,0 0.11,0.04 0.11,0.1 0,0.06 -0.05,0.11 -0.11,0.11 -0.06,0 -0.11,-0.05 -0.11,-0.11 0,0 0,-0.01 0,-0.02l-0.26 -0.15c-0.01,0.02 -0.04,0.03 -0.07,0.03 -0.06,0 -0.11,-0.05 -0.11,-0.11 0,-0.06 0.05,-0.11 0.11,-0.11 0.03,0 0.05,0.01 0.07,0.03l0.26 -0.15c0,-0.01 0,-0.02 0,-0.03 0,-0.06 0.05,-0.1 0.11,-0.1 0.06,0 0.11,0.04 0.11,0.1 0,0.06 -0.05,0.11 -0.11,0.11 -0.03,0 -0.06,-0.01 -0.08,-0.03l-0.25 0.16c0,0 0,0.01 0,0.02 0,0.01 0,0.02 0,0.03l0.25 0.15c0.02,-0.02 0.05,-0.03 0.08,-0.03z"/>
  </g>
 </g>
</svg>
