<svg xmlns="http://www.w3.org/2000/svg" width="64" height="64" shape-rendering="geometricPrecision" text-rendering="geometricPrecision" image-rendering="optimizeQuality" fill-rule="evenodd" clip-rule="evenodd" viewBox="0 0 0.67 0.67"><path fill="none" d="M0 0h.67v.67H0z"/><g fill="#fff" fill-rule="nonzero"><path d="M.57.3H.48C.47.3.47.3.47.29V.27C.46.24.44.22.41.22H.27C.26.22.25.22.24.23.22.23.21.25.21.27.21.28.2.29.2.29V.3H.11V.27C.11.26.12.24.12.22.14.19.17.18.2.16.24.15.28.15.32.15h.07c.03 0 .06.01.09.02.04.01.07.04.08.08 0 .01 0 .02.01.03V.3zM.11.31h.08C.2.31.2.31.2.32S.19.34.18.34H.13C.12.34.11.34.11.32V.31zm.46.01C.56.34.55.34.54.34H.5C.48.34.47.33.47.32s0-.01.01-.01h.09v.01z"/><path d="M.33.53H.16C.15.53.14.52.14.51V.44c0-.01 0-.01.01-.02C.17.38.2.34.23.3.24.3.24.3.24.29V.28c0-.01 0-.01.01-.01h.03v.01c0 .01 0 .01.02.01h.08C.38.27.38.27.4.27h.02s.01 0 .01.01C.42.29.43.31.44.32c.03.03.06.06.08.1 0 .01.01.01.01.02C.52.46.53.48.53.5.53.52.52.53.5.53H.33zM.32.34c0 .01.01.01.01.01.01 0 .01 0 .01-.01S.34.33.33.33c0 0-.01 0-.01.01zM.29.43C.29.42.29.42.28.42S.27.42.27.43s0 .01.01.01.01 0 .01-.01zm.1-.01C.38.42.37.42.37.43s.01.01.02.01C.39.44.4.44.4.43S.39.42.39.42zM.32.39L.33.4C.34.4.34.39.34.39.34.38.34.37.33.37c0 0-.01.01-.01.02zM.28.37C.27.37.27.38.27.39c0 0 0 .01.01.01S.29.39.29.39C.29.38.29.37.28.37zm.11 0C.38.37.37.38.37.39c0 0 .01.01.02.01L.4.39C.4.38.39.37.39.37zM.28.35C.29.35.29.35.29.34S.29.33.28.33.27.33.27.34s0 .01.01.01zM.39.33C.38.33.37.33.37.34s.01.01.02.01C.39.35.4.35.4.34S.39.33.39.33zm-.07.1c0 .01.01.01.01.01.01 0 .01 0 .01-.01S.34.42.33.42c0 0-.01 0-.01.01z"/></g></svg>