<svg xmlns="http://www.w3.org/2000/svg" width="64" height="64" shape-rendering="geometricPrecision" text-rendering="geometricPrecision" image-rendering="optimizeQuality" fill-rule="evenodd" clip-rule="evenodd" viewBox="0 0 1.08 1.08"><path fill="none" d="M0 0h1.08v1.08H0z"/><path fill="#fff" fill-rule="nonzero" d="M.23.27L.15.79h.07l.02-.1h.09l.02.1h.08L.34.27H.23zm.09.35H.25L.28.36l.04.26zM.5.35v.44h.08V.35h.09V.27H.41v.08H.5zM.71.27v.52h.22V.72H.79V.56H.9V.48H.79V.35h.14V.27H.71zM.82.15L.77.24h.06L.91.15H.82z"/></svg>