<svg xmlns="http://www.w3.org/2000/svg" width="64" height="64" shape-rendering="geometricPrecision" text-rendering="geometricPrecision" image-rendering="optimizeQuality" fill-rule="evenodd" clip-rule="evenodd" viewBox="0 0 1.04 1.04"><path fill="none" d="M0 0h1.04v1.04H0z"/><path fill="#fff" fill-rule="nonzero" d="M.27.27v.49h.12C.43.76.45.75.47.73.49.71.5.68.5.64V.39C.5.35.49.32.47.3.45.28.43.27.39.27H.27zm.12.42H.35V.34h.04C.4.34.41.34.41.35c.01.01.02.02.02.04v.26C.43.66.42.68.41.68.41.69.4.69.39.69zM.55.27v.49h.22V.69H.63V.54h.11V.47H.63V.34h.14V.27H.55z"/></svg>