<?xml version="1.0" encoding="UTF-8"?>
<!DOCTYPE svg PUBLIC "-//W3C//DTD SVG 1.1//EN" "http://www.w3.org/Graphics/SVG/1.1/DTD/svg11.dtd">
<!-- Creator: CorelDRAW 2017 -->
<svg xmlns="http://www.w3.org/2000/svg" xml:space="preserve" width="72px" height="72px" version="1.1" style="shape-rendering:geometricPrecision; text-rendering:geometricPrecision; image-rendering:optimizeQuality; fill-rule:evenodd; clip-rule:evenodd"
viewBox="0 0 1.23 1.23"
 xmlns:xlink="http://www.w3.org/1999/xlink">
 <defs>
  <style type="text/css">
   <![CDATA[
    .fil0 {fill:none}
    .fil1 {fill:white}
   ]]>
  </style>
 </defs>
 <g id="Camada_x0020_1">
  <metadata id="CorelCorpID_0Corel-Layer"/>
  <g id="_1195702528">
   <rect class="fil0" width="1.23" height="1.23"/>
   <path class="fil1" d="M0.31 0.2l0.61 0c0.01,0 0.02,0.01 0.02,0.02l0 0.26 0 0.53c0,0.01 -0.01,0.01 -0.02,0.01l-0.61 0c-0.01,0 -0.02,0 -0.02,-0.01l0 -0.79c0,-0.01 0.01,-0.02 0.02,-0.02l0 0zm0.24 0.53l0 -0.17 -0.09 0 0.15 -0.16 0.15 0.16 -0.08 0 0 0.17 -0.13 0zm-0.16 0.06l0.44 0 0 0.05 -0.44 0 0 -0.05z"/>
  </g>
 </g>
</svg>
