<svg xmlns="http://www.w3.org/2000/svg" width="64" height="64" shape-rendering="geometricPrecision" text-rendering="geometricPrecision" image-rendering="optimizeQuality" fill-rule="evenodd" clip-rule="evenodd" viewBox="0 0 0.79 0.79"><path fill="none" d="M0 0h.79v.79H0z"/><path fill="#fff" d="M.56.44V.31H.52L.6.19l.08.12H.64v.13H.56zM.33.68h.23V.56C.56.53.55.51.54.5A.357.357 0 0 0 .41.44S.37.47.36.48l.03.03-.03.02.02.05-.05.09L.28.58.31.53.28.51.31.48A.852.852 0 0 0 .26.44C.25.44.15.47.13.5.12.51.11.53.11.56v.12h.22zM.17.22c0 .01.02.02.03.03h.01C.26.22.38.21.44.24c.01 0 .01.01.02 0 0 0 .03-.01.03-.02C.48.2.47.22.47.17.46.14.42.17.37.13.34.12.33.09.31.12.28.14.27.15.24.15.21.16.2.15.19.18.19.2.18.2.17.22zm.25.35H.5v.01H.42V.57zM.33.47l.04.04-.02.02.02.05-.04.06L.3.58.32.53.3.51.33.47zM.45.29c0 .01.01.02.01.03C.46.38.4.44.33.44S.21.38.21.32V.29c.03.03.07.05.12.05C.38.34.42.32.45.29zM.33.23c.04 0 .08.01.11.02v.02C.41.25.37.25.33.25.29.25.25.25.22.27V.25A.36.36 0 0 1 .33.23zm.11.05a.16.16 0 0 1-.11.05C.28.33.24.31.22.28A.36.36 0 0 1 .33.26c.04 0 .08.01.11.02z"/></svg>