<svg xmlns="http://www.w3.org/2000/svg" width="72" height="72" shape-rendering="geometricPrecision" text-rendering="geometricPrecision" image-rendering="optimizeQuality" fill-rule="evenodd" clip-rule="evenodd" viewBox="0 0 0.75 0.75"><path fill="none" d="M0 0h.75v.75H0z"/><path fill="#fff" d="M.53.41C.47.41.42.46.42.52s.05.11.11.11S.64.58.64.52.59.41.53.41zm0 .04L.58.5c.01 0 0 0 0 0H.55C.54.5.54.51.54.51l.01.07C.55.59.54.59.54.59H.52C.51.59.51.59.51.58V.5H.47L.53.45zM.35.42V.41H.3S.29.41.3.42l.01.02L.3.46v.01l.02.08c0 .01.01.01.01 0L.35.47V.46L.34.44c-.01 0-.01 0 0 0L.35.42zm.1 0H.44L.4.4C.4.39.39.4.39.41L.4.45S.4.46.39.46L.33.6C.33.61.32.61.32.61L.31.6.25.46V.45L.26.41C.26.4.25.39.24.4L.2.42H.19C.18.43.14.44.13.48c0 0-.03.13-.01.15 0 .02.24.02.35.01A.139.139 0 0 1 .4.52C.4.48.42.44.45.42zM.22.29h.01c0 .02.01.04.01.04.05.09.12.05.12.05A.18.18 0 0 0 .42.29C.43.29.43.29.43.28L.44.23c.01 0 0-.01 0-.01H.43C.44.14.38.12.38.12.29.07.24.14.24.14.21.18.22.22.22.22H.21L.2.23l.01.05c0 .01.01.01.01.01z"/></svg>