<svg xmlns="http://www.w3.org/2000/svg" width="64" height="64" shape-rendering="geometricPrecision" text-rendering="geometricPrecision" image-rendering="optimizeQuality" fill-rule="evenodd" clip-rule="evenodd" viewBox="0 0 0.78 0.78"><path fill="none" d="M0 0h.78v.78H0z"/><path fill="#fff" d="M.39.18C.27.18.18.27.18.39S.27.6.39.6.6.51.6.39.51.18.39.18zm0-.06c.15 0 .27.12.27.27C.66.54.54.66.39.66.24.66.12.54.12.39.12.24.24.12.39.12zm.02.3v.07C.41.48.42.48.42.48.43.47.43.46.43.45.43.44.43.43.42.43.42.42.41.42.41.42zM.37.36V.29L.36.3C.35.31.35.32.35.33c0 .01 0 .02.01.02 0 .01.01.01.01.01zm.04.16v.03H.37V.52C.36.52.34.52.33.5.32.49.31.48.3.45L.35.44c0 .02 0 .03.01.04 0 0 .01 0 .01.01V.4C.36.4.34.39.33.38.31.36.31.35.31.33c0-.02 0-.04.02-.06C.34.26.36.26.37.25V.23h.04v.02c.01.01.03.01.04.02.01.02.02.03.02.05L.43.34C.43.32.43.31.42.3L.41.29v.09C.42.38.44.39.45.4c.02.01.02.03.02.05C.47.47.47.49.45.5.44.52.42.52.41.52z"/></svg>