<svg xmlns="http://www.w3.org/2000/svg" width="72" height="72" shape-rendering="geometricPrecision" text-rendering="geometricPrecision" image-rendering="optimizeQuality" fill-rule="evenodd" clip-rule="evenodd" viewBox="0 0 0.8 0.8"><path fill="none" d="M0 0h.8v.8H0z"/><path fill="#fff" d="M.4.22h.14l.01.01v.03H.4V.22zM.26.34v.08h.08V.34H.26zm0-.01h.08c.01 0 .01.01.01.01v.08c0 .01 0 .02-.01.02H.26C.25.44.25.43.25.42V.34s0-.01.01-.01zM.3.23C.29.23.29.22.28.22L.27.23c0 .01.01.01.01.01l.01.01.01.01c0 .01.01.01.01.01C.32.27.32.26.32.26.33.25.34.24.34.23.35.23.36.22.37.21h.01V.2H.35L.34.21C.33.22.32.23.32.24H.31L.3.23zM.26.19h.09L.34.2H.26v.08h.08V.25C.34.24.35.24.35.24V.23v.05c0 .01 0 .01-.01.01H.26C.25.29.25.29.25.28V.2s0-.01.01-.01zM.21.15v.5h.38v-.5H.21zM.4.69H.19V.68H.18V.67H.17V.15C.17.13.19.11.21.11h.4v.01h.01v.01h.01v.52C.63.67.61.69.59.69H.4zM.26.49v.07h.08V.49H.26zm0-.02h.08c.01 0 .01.01.01.02v.07c0 .01 0 .02-.01.02H.26C.25.58.25.57.25.56V.49c0-.01 0-.02.01-.02zM.4.5h.14l.01.01v.03L.54.55H.4V.5zm0-.14h.14l.01.01V.4L.54.41H.4V.36z"/></svg>