<svg xmlns="http://www.w3.org/2000/svg" width="64" height="64" shape-rendering="geometricPrecision" text-rendering="geometricPrecision" image-rendering="optimizeQuality" fill-rule="evenodd" clip-rule="evenodd" viewBox="0 0 0.7 0.7"><path fill="none" d="M0 0h.7v.7H0z"/><path fill="#fff" d="M.48.36c.06 0 .11.05.11.12C.59.54.54.59.48.59.41.59.36.54.36.48.36.41.41.36.48.36zm.07-.2H.48V.13C.48.12.48.11.47.11S.45.12.45.13v.03H.36V.13C.36.12.36.11.35.11S.34.12.34.13v.03H.25V.13C.25.12.24.11.23.11S.21.12.21.13v.03H.15C.13.16.11.17.11.2v.35c0 .02.02.04.04.04h.26L.38.56H.15L.14.55V.2C.14.19.15.19.15.19h.06v.03s.01.01.02.01S.25.22.25.22V.19h.09v.03s0 .01.01.01S.36.22.36.22V.19h.09v.03s.01.01.02.01S.48.22.48.22V.19h.07S.56.19.56.2v.18l.03.03V.2C.59.17.57.16.55.16zM.42.34h.06V.29H.42v.05zm-.1 0h.06V.29H.32v.05zm0 .07h.05C.37.4.37.4.38.39V.36H.32v.05zm0 .07h.03V.44H.32v.04zm-.11 0h.06V.44H.21v.04zm0-.07h.06V.36H.21v.05zm0-.07h.06V.29H.21v.05zm.28.2v.02H.47V.54C.46.54.45.54.45.53.44.53.44.52.43.51L.45.5c.01.01.01.02.01.02s.01 0 .01.01V.48C.46.48.45.48.45.47.44.46.43.46.43.44.43.43.44.43.45.42.45.41.46.41.47.41V.4h.02v.01S.5.41.51.42c0 0 .01.01.01.02L.5.45C.5.44.49.43.49.43v.04S.5.48.51.48c0 .01.01.02.01.03C.52.52.51.53.51.53.5.54.49.54.49.54zM.47.46V.43H.46v.03h.01zm.02.03v.03C.5.52.5.51.5.51.5.5.5.5.49.49z"/></svg>