<svg xmlns="http://www.w3.org/2000/svg" width="64" height="64" shape-rendering="geometricPrecision" text-rendering="geometricPrecision" image-rendering="optimizeQuality" fill-rule="evenodd" clip-rule="evenodd" viewBox="0 0 0.76 0.76"><path fill="none" d="M0 0h.76v.76H0z"/><path fill="#fff" d="M.18.18h.04V.2c0 .02.02.04.05.04C.29.24.31.22.31.2V.18h.14V.2c0 .02.02.04.04.04C.52.24.53.22.53.2V.18h.05C.6.18.62.2.62.22v.37C.62.62.6.64.58.64h-.4C.16.64.14.62.14.59V.22C.14.2.16.18.18.18zM.27.12C.28.12.3.13.3.15V.2C.3.21.28.23.27.23.25.23.24.21.24.2V.15C.24.13.25.12.27.12zm.22 0c.02 0 .03.01.03.03V.2C.52.21.51.23.49.23.48.23.46.21.46.2V.15C.46.13.48.12.49.12zM.18.27h.4V.6h-.4V.27zm.05.08h.06v.03H.23V.35zM.22.34H.3v.22H.22V.34zm.01.09h.06v.04H.23V.43zm0 .08h.06v.04H.23V.51zM.35.35h.06v.03H.35V.35zM.34.34h.08v.22H.34V.34zm.01.09h.06v.04H.35V.43zm0 .08h.06v.04H.35V.51zM.47.35h.06v.03H.47V.35zM.46.34h.08v.22H.46V.34zm.01.09h.06v.04H.47V.43zm0 .08h.06v.04H.47V.51z"/></svg>