<svg xmlns="http://www.w3.org/2000/svg" width="72" height="72" viewBox="0 0 15.67 15.67" shape-rendering="geometricPrecision" text-rendering="geometricPrecision" image-rendering="optimizeQuality" fill-rule="evenodd" clip-rule="evenodd"><path fill="none" d="M0 0h15.67v15.67H0z"/><path fill="#373435" d="M2.1.56h7.46l3.96 4.01v10.55H2.1z"/><path d="M1.41 7.96v1.67h-.8l1.54 1.48L3.7 9.63h-.74V7.96H1.41zm1.55-.18v-.37H1.41v.37h1.55zm0-.56v-.18H1.41v.18h1.55zm0-.37v-.12H1.41v.12h1.55zM9.56.56l3.96 4.01H9.56V.56z"/><path d="M4.67 5.39h6.27v6.27H4.67V5.39zm1.18 5.94c.35-.49.7-.5 1.28-.63 1.17-.25 1.19-.55 2.02-1.33.3-.27.61-.76 1.12-.76.16-.01.15-.03.34-.02V5.71H4.99v5.62h.86zm.49-4.8c.31 0 .57.25.57.56a.57.57 0 1 1-1.14 0c0-.31.26-.56.57-.56zm2.34.91c.07.5.31.75.31.99 0 .25-.08.5-.31.5-.24 0-.32-.25-.32-.5 0-.24.24-.49.32-.99zM7.4 8.73c.06.38.24.57.24.76 0 .18-.06.37-.24.37s-.24-.19-.24-.37c0-.19.18-.38.24-.76z" fill="#fff"/></svg>