<svg xmlns="http://www.w3.org/2000/svg" width="72" height="72" viewBox="0 0 9.98 9.98" shape-rendering="geometricPrecision" text-rendering="geometricPrecision" image-rendering="optimizeQuality" fill-rule="evenodd" clip-rule="evenodd"><path fill="none" d="M0 0h9.98v9.98H0z"/><path fill="#373435" d="M1.34.35h4.75l2.52 2.56v6.71H1.34z"/><path fill="#fff" fill-rule="nonzero" d="M3.97 6.91L3 3.43h.63l.58 2.43.57-2.43h.45l.55 2.43.58-2.43H7l-.97 3.48h-.48L5 4.61l-.54 2.3z"/><path d="M.9 5.07v1.06H.39l.98.94.98-.94h-.47V5.07H.9zm.98-.12v-.24H.9v.24h.98zm0-.35v-.12H.9v.12h.98zm0-.24v-.08H.9v.08h.98zM6.09.35l2.52 2.56H6.09V.35z"/></svg>