<svg xmlns="http://www.w3.org/2000/svg" width="72" height="72" viewBox="0 0 5.46 5.46" shape-rendering="geometricPrecision" text-rendering="geometricPrecision" image-rendering="optimizeQuality" fill-rule="evenodd" clip-rule="evenodd"><path fill="none" d="M0 0h5.46v5.46H0z"/><path fill="#373435" d="M.73.19h2.6l1.38 1.4v3.68H.73z"/><path d="M1.76 3.59c0-.13.18-.21.31-.26-.03.15-.13.28-.31.26zm1.96-.34c-.13.08-.39-.04-.45-.13.09 0 .19 0 .28.02.09.02.15.04.17.11zm-1.38-.13c.07-.15.13-.28.18-.5.04.05.19.24.38.41-.06.05-.47.09-.56.09zm.22-.86c-.02-.07-.04-.13-.04-.22-.02-.06-.02-.13.02-.17.06.07.06.3.02.39zm-.9 1.48c.23.11.56-.21.6-.45.28 0 .6-.19.9-.04.2.08.5.21.67.04 0-.24-.41-.26-.58-.26-.09 0-.13.02-.24-.04-.13-.11-.32-.37-.39-.49-.02-.07-.02-.09-.02-.11.09-.2.09-.65-.15-.69-.19.15-.06.45-.02.64.04.16 0 .2-.13.52-.02.07-.04.11-.06.15-.15.37-.17.2-.43.37-.11.08-.2.21-.15.36z" fill="#fff"/><path d="M.47 2.78v.58H.19l.54.51.54-.51h-.26v-.58H.47zm.54-.07v-.13H.47v.13h.54zm0-.19v-.07H.47v.07h.54zm0-.13v-.05H.47v.05h.54zM3.33.19l1.38 1.4H3.33V.19z"/></svg>