<svg xmlns="http://www.w3.org/2000/svg" width="72" height="72" viewBox="0 0 6.84 6.84" shape-rendering="geometricPrecision" text-rendering="geometricPrecision" image-rendering="optimizeQuality" fill-rule="evenodd" clip-rule="evenodd"><path fill="none" d="M0 0h6.84v6.84H0z"/><path fill="#373435" d="M.92.25h3.26l1.75 1.74V6.6H.92z"/><path d="M3.42 3.42c.2 0 .36.23.36.47 0 .25-.16.45-.36.45-.22 0-.38-.2-.38-.45 0-.24.16-.47.38-.47zm0 .22c.07 0 .14.07.14.18 0 .09-.07.18-.14.18-.09 0-.15-.09-.15-.18 0-.11.06-.18.15-.18zm-.18-.67h.36c.09 0 .18.09.18.18s-.09.18-.18.18h-.36c-.09 0-.15-.09-.15-.18s.06-.18.15-.18zm-.15-.39h.33v.33h-.33v-.33zm.36-.39h.36v.35h-.36v-.35zm-.36-.37h.33v.34h-.33v-.34zm.36-.39h.36v.36h-.36v-.36zm-.36-.39h.33v.36h-.33v-.36zm.36-.36h.36v.33h-.36V.68zM3.09.29h.33v.36h-.33V.29z" fill="#fff"/><path d="M.59 3.48v.72H.24l.68.65.67-.65h-.32v-.72H.59zm.68-.09v-.16H.59v.16h.68zm0-.24v-.08H.59v.08h.68zm0-.16v-.05H.59v.05h.68zM4.18.25l1.75 1.74H4.18V.25z"/></svg>