<svg xmlns="http://www.w3.org/2000/svg" width="72" height="72" shape-rendering="geometricPrecision" text-rendering="geometricPrecision" image-rendering="optimizeQuality" fill-rule="evenodd" clip-rule="evenodd" viewBox="0 0 2.78 2.78"><path fill="none" d="M0 0h2.78v2.78H0z"/><path fill="#fff" d="M1.39.16c.68 0 1.22.56 1.22 1.23 0 .68-.54 1.22-1.22 1.22-.67 0-1.23-.54-1.23-1.22C.16.72.72.16 1.39.16zm0 .15c.6 0 1.08.49 1.08 1.08 0 .6-.48 1.08-1.08 1.08C.8 2.47.31 1.99.31 1.39.31.8.8.31 1.39.31zM.78 1.86c.08-.09.17-.16.28-.21.1-.04.22-.07.34-.07.12 0 .23.03.33.07.11.05.21.12.28.21l-.09.09a.69.69 0 0 0-.24-.18.868.868 0 0 0-.28-.05c-.11 0-.2.02-.29.05-.09.04-.17.1-.23.18l-.1-.09zM1.8.98c.08 0 .14.07.14.15 0 .07-.06.14-.14.14-.08 0-.14-.07-.14-.14 0-.08.06-.15.14-.15zm-.81 0c.08 0 .15.07.15.15 0 .07-.07.14-.15.14a.15.15 0 0 1-.14-.14c0-.08.07-.15.14-.15z"/></svg>