<?xml version="1.0" encoding="UTF-8"?>
<!DOCTYPE svg PUBLIC "-//W3C//DTD SVG 1.1//EN" "http://www.w3.org/Graphics/SVG/1.1/DTD/svg11.dtd">
<!-- Creator: CorelDRAW 2017 -->
<svg xmlns="http://www.w3.org/2000/svg" xml:space="preserve" width="72px" height="72px" version="1.1" style="shape-rendering:geometricPrecision; text-rendering:geometricPrecision; image-rendering:optimizeQuality; fill-rule:evenodd; clip-rule:evenodd"
viewBox="0 0 1.63 1.63"
 xmlns:xlink="http://www.w3.org/1999/xlink">
 <defs>
  <style type="text/css">
   <![CDATA[
    .fil0 {fill:none}
    .fil1 {fill:white}
   ]]>
  </style>
 </defs>
 <g id="Camada_x0020_1">
  <metadata id="CorelCorpID_0Corel-Layer"/>
  <g id="_2810991794256">
   <rect class="fil0" width="1.63" height="1.63"/>
   <path class="fil1" d="M0.65 1.25c0.03,-0.02 0.19,0.02 0.2,0.1 -0.05,0.03 -0.15,0.02 -0.2,0l0 -0.1zm0.61 0.1c-0.01,-0.05 0.01,-0.05 0.07,-0.07 0.06,-0.03 0.07,-0.04 0.13,-0.03l0 0.1 -0.2 0zm-0.57 -0.28c0.04,-0.23 0.12,-0.23 0.36,-0.23 0.26,0 0.32,0 0.37,0.24 -0.29,0.03 -0.43,0.05 -0.73,-0.01zm-0.08 -0.05c-0.06,0.01 -0.09,0.01 -0.11,0.07 -0.03,0.08 0.01,0.07 0.06,0.09 -0.03,0.08 -0.04,0.35 -0.01,0.45l0.19 -0.01 0.01 -0.09 0.61 -0.01 0.01 0.1c0.05,0.01 0.14,0.02 0.19,0 0.04,-0.09 0.01,-0.37 -0.02,-0.45 0.12,0 0.08,-0.06 0.05,-0.13l-0.1 -0.02c-0.03,-0.07 -0.05,-0.19 -0.12,-0.23 -0.07,-0.03 -0.23,-0.04 -0.32,-0.04 -0.1,0 -0.23,0.01 -0.31,0.05 -0.08,0.03 -0.07,0.1 -0.13,0.22zm0.65 -0.42c-0.01,-0.06 0.01,-0.05 0.07,-0.08 0.06,-0.03 0.07,-0.03 0.13,-0.02l0 0.1c-0.05,0.01 -0.13,0.02 -0.19,0.01l-0.01 -0.01zm-0.62 -0.39l0.08 0c0.05,-0.1 0.05,-0.13 0.3,-0.13 0.08,0 0.26,0 0.31,0.04 0.04,0.03 0.08,0.16 0.09,0.2 -0.15,0.02 -0.25,0.04 -0.41,0.04 0.06,0.17 0.05,0.1 0.12,0.15 0.05,0.03 0.07,0.1 0.07,0.19 0.3,0.01 0.26,0.11 0.31,0.17 0.09,-0.01 0.06,-0.12 0.06,-0.34 0,-0.06 -0.01,-0.07 -0.03,-0.12 0.12,0 0.08,-0.06 0.05,-0.13l-0.09 -0.01c-0.1,-0.23 -0.04,-0.27 -0.47,-0.27 -0.17,0 -0.38,0 -0.39,0.21zm-0.46 0.56c0.06,-0.01 0.19,0.03 0.19,0.11 -0.07,0.02 -0.14,0.01 -0.2,-0.01l0 -0.09c0.01,0 0.01,-0.01 0.01,-0.01zm0.03 -0.17c0.04,-0.23 0.09,-0.25 0.37,-0.24 0.25,0 0.31,0 0.36,0.24 -0.31,0.04 -0.43,0.04 -0.73,0zm-0.08 -0.05c-0.09,0 -0.13,0.04 -0.12,0.13l0.08 0.01c-0.04,0.09 -0.04,0.35 -0.02,0.45 0.21,0.04 0.2,-0.02 0.2,-0.09 0.17,0 0.16,0.01 0.2,-0.04 0.1,-0.09 0.07,0 0.11,-0.08 0.04,-0.08 0.03,-0.12 0.1,-0.17 0.19,-0.15 0.57,0.05 0.42,-0.2 -0.1,-0.03 -0.08,0.02 -0.11,-0.09 -0.06,-0.16 -0.07,-0.19 -0.37,-0.19 -0.34,-0.01 -0.41,0 -0.49,0.27z"/>
  </g>
 </g>
</svg>
