<svg xmlns="http://www.w3.org/2000/svg" width="118" height="31" shape-rendering="geometricPrecision" text-rendering="geometricPrecision" image-rendering="optimizeQuality" fill-rule="evenodd" clip-rule="evenodd" viewBox="0 0 2.2 0.58"><path fill="#fff" d="M1.9.41h-.02V.38c.01-.01.01-.01.02-.01 0 0 .01 0 .01.01l.01.01H1.9V.38c-.01 0-.01 0-.01.01V.4h.01c0 .01.01.01.01.01.01.01.01.01.01.02s0 .01-.01.02L1.9.46c-.01 0-.02-.01-.02-.01-.01 0-.01-.01-.01-.02h.01s0 .01.01.01c0 0 0 .01.01.01 0 0 0-.01.01-.01V.42c-.01 0-.01 0-.01-.01zM1.82.37v.09h-.01V.37h.01zm-.09.05L1.72.4l-.01.02h.02zM1.72.37l.03.09h-.01L1.73.43h-.02L1.7.46h-.01l.03-.09zm-.09.01v.08h-.02V.38H1.6V.37h.04v.01h-.01zM1.54.37v.09h-.01V.37h.01zm-.07.07c-.01.01-.02.02-.03.02-.01 0-.02-.01-.03-.02 0 0-.01-.01-.01-.03 0-.01.01-.02.01-.02.01-.01.02-.02.03-.02.01 0 .02.01.03.02-.01 0-.02-.01-.03-.01-.01 0-.01.01-.02.01 0 .01-.01.02-.01.02 0 .01.01.02.01.03.01 0 .01.01.02.01s.02-.01.02-.01V.42h.01v.02zM1.34.37v.09h-.01V.37h.01zm-.1.01v.07s.01-.01.02-.01c0-.01.01-.02.01-.03 0 0-.01-.01-.01-.02-.01 0-.02-.01-.02-.01zM1.23.37c.02 0 .03.01.03.01.01.01.02.02.02.03 0 .02-.01.03-.02.03 0 .01-.01.02-.03.02V.37zm-.16.04h-.01C1.05.4 1.05.4 1.05.39c0 0 0-.01.01-.01 0-.01 0-.01.01-.01 0 0 .01 0 .01.01.01 0 .01 0 .01.01h-.01L1.07.38s-.01 0-.01.01V.4h.01c.01.01.01.01.02.01v.04c-.01 0-.01.01-.02.01S1.06.45 1.05.45c0 0-.01-.01-.01-.02h.01l.01.01.01.01.01-.01V.42s-.01 0-.01-.01zM.99.37v.01H.96v.03h.03v.01H.96v.03h.03v.01H.95V.37h.04zM.85.36h.01V.35h.01C.86.36.86.37.86.37.85.37.85.37.85.36H.84v.01H.83C.83.36.84.35.84.35c.01 0 .01 0 .01.01zm0 .02C.84.38.83.39.83.39.82.4.82.41.82.41c0 .01 0 .02.01.03 0 0 .01.01.02.01S.87.44.87.44C.88.43.88.42.88.41c0 0 0-.01-.01-.02C.87.39.86.38.85.38zm.03 0C.89.39.89.4.89.41c0 .02 0 .03-.01.03C.87.45.86.46.85.46.84.46.83.45.82.44.81.44.81.43.81.41.81.4.81.39.82.38.83.38.84.37.85.37c.01 0 .02.01.03.01zM.71.46C.71.45.7.45.69.44.69.44.68.43.68.41.68.4.69.39.69.39.7.38.71.37.72.37c.01 0 .02.01.03.02C.74.39.73.38.72.38.71.38.71.39.7.39.7.4.69.41.69.41.69.42.7.43.7.44c.01 0 .01.01.02.01S.74.44.75.44C.74.45.73.46.72.46h.01v.01H.71h.01V.46H.71zM.61.37h.01v.08C.61.45.6.46.6.46.59.46.58.45.58.45.57.44.57.44.57.43V.37h.01v.07C.59.44.59.45.6.45L.61.44V.37zM.48.46V.37h.01v.08h.03v.01H.48zM.38.38C.37.38.36.39.36.39.35.4.35.41.35.41c0 .01 0 .02.01.03 0 0 .01.01.02.01S.39.44.4.44C.41.43.41.42.41.41.41.41.41.4.4.39.39.39.39.38.38.38zm.03 0C.42.39.42.4.42.41c0 .02 0 .03-.01.03C.4.45.39.46.38.46.37.46.36.45.35.44.34.44.34.43.34.41.34.4.34.39.35.38.36.38.37.37.38.37.39.37.4.38.41.38zM.26.41H.25C.24.4.24.4.24.39c0 0 0-.01.01-.01 0-.01 0-.01.01-.01 0 0 .01 0 .01.01 0 0 .01 0 .01.01H.27L.26.38S.25.38.25.39V.4h.01c.01.01.01.01.02.01v.04C.27.45.27.46.26.46S.25.45.24.45C.24.45.23.44.23.43h.01l.01.01.01.01.01-.01V.42S.26.42.26.41zM.81.1H.8L.75.12l.01.01-.1.13-.01.01-.01.01L.63.27.62.26.52.13C.52.12.51.12.51.12.5.12.5.12.49.13v.03L.6.3s.01.01.02.01c0 .01.01.01.02.01S.66.32.67.31C.67.31.68.3.69.3l.1-.14h.02V.1zm1.05.11C1.85.21 1.83.2 1.81.2h-.16V.17h.19c.01 0 .02 0 .03.01v.04s0-.01-.01-.01zm.08.07C1.93.26 1.93.25 1.92.24V.2c0-.01 0-.02-.01-.02C1.9.13 1.87.13 1.82.13c-.04 0-.16-.01-.17 0-.01 0-.02 0-.02.01-.01 0-.01.01-.01.01v.01c-.01 0-.01.01-.01.02v.11s0 .01.01.01c0 .01.01.01.01.01.01 0 .01 0 .01-.01.01 0 .01-.01.01-.01V.24h.14c.02 0 .03 0 .04.01.01 0 .02 0 .03.01h.01l.01.01c.01.01.01.01.02.01 0 .01 0 .01.01.02 0 0 .01 0 .01.01h.01s.01 0 .01-.01c.01 0 .01-.01.01-.01 0-.01 0-.01-.01-.01zM1.41.26c0 .01 0 .02.01.02 0 .01.01.01.02.01 0 0 .01 0 .02-.01V.24h-.04c-.01.01-.01.02-.01.02zM1.32.3c-.01.01-.01.01-.02.01 0 0-.01 0-.01-.01-.01 0-.01-.01-.01-.01 0-.01 0-.01.01-.01l.1-.14c.01-.01.01-.02.02-.02s.02-.01.03-.01c.01 0 .01.01.02.01s.01.01.02.01l.1.14.01.01v.01s0 .01-.01.01c0 .01 0 .01-.01.01s-.01 0-.02-.01l-.1-.13V.16h-.02c-.01 0-.01.01-.01.01l-.1.13zm.02-.16c0-.01-.01-.01-.01-.02h-.32C1 .13 1 .13 1 .14s0 .01.01.01h.14V.3c0 .01.01.02.02.02l.01-.01c.01 0 .01-.01.01-.02V.15h.13c.01 0 .02 0 .02-.01zM.87.26c0 .01 0 .02.01.02 0 .01.01.01.02.01S.91.29.92.28c0 0 .01-.01.01-.02C.93.26.92.25.92.24H.88C.87.25.87.26.87.26zM.78.3C.78.31.77.31.77.31.76.31.75.31.75.3L.74.29C.74.28.75.28.75.28l.1-.14C.86.13.86.12.87.12S.89.11.9.11c.01 0 .02.01.02.01.01 0 .02.01.02.01l.11.14V.3c-.01.01-.01.01-.02.01s-.01 0-.01-.01L.92.17C.91.17.91.16.91.16H.89L.88.17.78.3zM.38.28S.39.29.39.3h.04C.43.29.44.28.44.28.44.27.43.26.43.26.42.25.42.25.41.25S.4.25.39.26c0 0-.01.01-.01.02zM.29.32H.26V.29L.37.15C.37.14.38.14.38.13h.06c0 .01.01.01.01.02l.11.14v.03H.53L.43.18S.42.18.42.17H.4C.4.18.4.18.39.18l-.1.14zm1.9.26H.02C.01.58 0 .57 0 .56V.02C0 .01.01 0 .02 0h2.17c.01 0 .01.01.01.02v.54c0 .01 0 .02-.01.02zM.04.54h2.13v-.5H.04v.5z"/></svg>