<svg xmlns="http://www.w3.org/2000/svg" width="262" height="82" shape-rendering="geometricPrecision" text-rendering="geometricPrecision" image-rendering="optimizeQuality" fill-rule="evenodd" clip-rule="evenodd" viewBox="0 0 14.46 4.5"><path fill="#fff" fill-rule="nonzero" d="M14.45 1.2c0 .03-.04.04-.07.02l-.03-.03c-.04-.03-.07-.06-.11-.08a.774.774 0 0 0-.56-.02c-.16.05-.32.23-.31.4.01.29.33.51.54.66.32.24.66.6.5 1.03a.63.63 0 0 1-.43.41c-.19.06-.41.03-.62.01-.14-.01-.27-.03-.4-.07-.02 0-.03-.01-.03-.02-.02-.05-.02-.1-.03-.15 0-.04-.02-.09-.02-.14 0-.01.01-.03.03-.04.01-.01.05.01.06.02.07.04.13.07.19.11.22.1.5.17.73.09.25-.08.37-.34.23-.57-.12-.19-.31-.34-.48-.47-.17-.12-.37-.27-.48-.44-.11-.17-.11-.44-.04-.62.11-.28.35-.42.65-.43.2 0 .4.02.6.06.02 0 .05.01.07.02.01 0 .02.01.02.02.01.04 0 .19-.01.23zM7.04 3.62c-.09 0-.1-.05-.04-.06.15-.02.21-.12.23-.28.07-.55.14-1.1.18-1.64.01-.18.03-.37.03-.54 0-.29.05-.3.19-.02.07.14.15.28.22.42.26.51.5 1.04.75 1.55.29-.68.56-1.36.88-2.02.07-.17.15-.21.15-.06.03.77.1 1.54.21 2.3.03.16.09.23.16.27.03.01.1.02.12.04.02.02.01.05-.09.05l-.65-.03c-.1 0-.14-.05-.07-.06.03 0 .05 0 .08-.02.1-.04.13-.12.12-.24-.06-.5-.11-.99-.16-1.48-.25.57-.49 1.14-.73 1.71-.05.12-.1.11-.15 0-.19-.4-.37-.8-.56-1.19-.1-.2-.21-.4-.3-.6-.05.53-.11 1.06-.17 1.59-.02.12.04.2.15.23h.05c.06 0 .06.06-.05.07-.18 0-.36.01-.55.01zm-1.1-.32c.57-.16.78-.82.6-1.38-.1-.27-.3-.51-.55-.64-.2-.11-.48-.15-.7-.14-.31.03-.57.19-.71.44-.17.29-.17.79-.02 1.11.13.27.37.48.65.58.2.07.53.09.73.03zM5.8.89c.62.08 1.09.61 1.07 1.26l-.01.2c-.02.58-.42 1.07-.96 1.22-.21.07-.53.07-.74.03-.59-.11-1.02-.63-1.01-1.25l.01-.2c.02-.67.55-1.22 1.22-1.27.12-.01.3-.01.42.01zm6.75 1.68c0 .59-.48 1.06-1.07 1.06-.59 0-1.07-.47-1.07-1.06.01-.44.02-.89-.01-1.33-.01-.17-.08-.24-.15-.27-.03-.02-.1-.02-.12-.04-.02-.02 0-.06.09-.05.22 0 .44.01.66.02.11 0 .14.06.07.06-.03.01-.05.01-.08.02-.1.05-.13.13-.13.25 0 .45.01.9.01 1.34 0 .44.36.8.8.8a.8.8 0 0 0 .79-.8c0-.46.01-.92.02-1.38 0-.12-.03-.2-.15-.23-.02-.01-.04-.01-.04-.01-.07 0-.07-.06.04-.06.18 0 .37-.01.56-.02.09 0 .11.06.05.06-.16.03-.24.12-.25.3-.02.47-.02.87-.02 1.34zM.05 4.5h1.34c1.33 0 2.42-1.01 2.42-2.25S2.72 0 1.39 0H.05C.02 0 0 .02 0 .05v.33C0 .4.02.43.05.43h1.34c1.1 0 1.99.81 1.99 1.82s-.89 1.82-1.99 1.82H.05c-.03 0-.05.03-.05.06v.32c0 .03.02.05.05.05zm.36-.85h.95c.01 0 .03-.02.03-.04v-.07c0-.03-.02-.05-.03-.05H.41c-.02 0-.03.02-.03.05v.07c0 .02.01.04.03.04zm-.26.27h1.47c.02 0 .04-.02.04-.04V3.8c0-.02-.02-.04-.04-.04H.15c-.03 0-.05.02-.05.04v.08c0 .02.02.04.05.04zm.44-2.81c.04 0 .07.03.07.07v2.14c0 .04-.03.07-.07.07-.03 0-.06-.03-.06-.07V1.18c0-.04.03-.07.06-.07zm.29 0c.04 0 .07.03.07.07v2.14c0 .04-.03.07-.07.07-.03 0-.06-.03-.06-.07V1.18c0-.04.03-.07.06-.07zm.29 0c.04 0 .07.03.07.07v2.14c0 .04-.03.07-.07.07-.04 0-.07-.03-.07-.07V1.18c0-.04.03-.07.07-.07zM.41.85h.95c.01 0 .03.02.03.04v.08c0 .02-.02.04-.03.04H.41C.39 1.01.38.99.38.97V.89C.38.87.39.85.41.85zM.15.58h1.47c.02 0 .04.02.04.04V.7c0 .02-.02.04-.04.04H.15C.12.74.1.72.1.7V.62C.1.6.12.58.15.58z"/></svg>