<?xml version="1.0" encoding="UTF-8"?>
<!DOCTYPE svg PUBLIC "-//W3C//DTD SVG 1.1//EN" "http://www.w3.org/Graphics/SVG/1.1/DTD/svg11.dtd">
<!-- Creator: CorelDRAW 2017 -->
<svg xmlns="http://www.w3.org/2000/svg" xml:space="preserve" width="72px" height="72px" version="1.1" style="shape-rendering:geometricPrecision; text-rendering:geometricPrecision; image-rendering:optimizeQuality; fill-rule:evenodd; clip-rule:evenodd"
viewBox="0 0 1.63 1.63"
 xmlns:xlink="http://www.w3.org/1999/xlink">
 <defs>
  <style type="text/css">
   <![CDATA[
    .fil0 {fill:none}
    .fil1 {fill:white}
   ]]>
  </style>
 </defs>
 <g id="Camada_x0020_1">
  <metadata id="CorelCorpID_0Corel-Layer"/>
  <g id="_2098028126080">
   <rect class="fil0" width="1.63" height="1.63"/>
   <path class="fil1" d="M0.44 0.27l0.75 0c0.09,0 0.17,0.08 0.17,0.17l0 0.32c0,0.02 0,0.04 -0.01,0.05 -0.02,-0.02 -0.05,-0.03 -0.08,-0.03 0,-0.01 0,-0.02 0,-0.02l0 -0.32c0,-0.04 -0.04,-0.08 -0.08,-0.08l-0.75 0c-0.04,0 -0.08,0.04 -0.08,0.08l0 0.32c0,0.04 0.04,0.07 0.08,0.07l0.39 0 0.02 0.06c-0.04,-0.01 -0.08,0 -0.11,0.03l0 0.01 -0.3 0c-0.09,0 -0.17,-0.08 -0.17,-0.17l0 -0.32c0,-0.09 0.08,-0.17 0.17,-0.17zm0.8 0.58l0.01 0c0.03,-0.01 0.05,0 0.06,0.03l0.04 0.15c0,0.01 0.01,0.03 0.01,0.04 0,0.04 -0.01,0.09 -0.04,0.11l0.02 0.11 -0.27 0.07 -0.02 -0.08c-0.01,-0.03 -0.04,-0.04 -0.08,-0.07 -0.01,-0.01 -0.03,-0.03 -0.05,-0.04 -0.05,-0.04 -0.09,-0.09 -0.12,-0.13 -0.02,-0.02 -0.02,-0.05 -0.01,-0.07 0,0 0,0 0,0 0.02,-0.02 0.05,-0.02 0.08,0 0.03,0.02 0.06,0.04 0.09,0.06l-0.09 -0.33c-0.01,-0.03 0.01,-0.06 0.03,-0.07l0 0c0.03,0 0.06,0.01 0.06,0.04l0.05 0.18c0,-0.02 0.01,-0.04 0.03,-0.05l0 0c0.03,-0.01 0.06,0.01 0.06,0.04l0.01 0.03c0,-0.02 0.01,-0.04 0.03,-0.05l0.01 0c0.02,-0.01 0.05,0.01 0.06,0.04l0 0.03c0,-0.02 0.01,-0.04 0.03,-0.04zm-0.39 -0.39l0 0c0.01,0 0.02,0 0.02,0.01l0.03 0.09c0,0.01 -0.01,0.02 -0.01,0.02l0 0c-0.01,0 -0.02,0 -0.02,-0.01l-0.03 -0.09c0,-0.01 0,-0.02 0.01,-0.02zm0.29 0.16l0 0c0,0.01 0,0.02 -0.01,0.02l-0.09 0.03c-0.01,0 -0.02,-0.01 -0.02,-0.01l0 0c0,-0.01 0,-0.02 0.01,-0.02l0.09 -0.03c0.01,0 0.02,0 0.02,0.01zm-0.33 0.09l0 0c0.01,0.01 0,0.02 -0.01,0.02l-0.09 0.02c-0.01,0.01 -0.02,0 -0.02,-0.01l0 0c0,-0.01 0,-0.02 0.01,-0.02l0.09 -0.02c0.01,0 0.02,0 0.02,0.01zm0.01 -0.08l0 0c0,0.01 -0.01,0.01 -0.02,0.01l-0.08 -0.05c-0.01,0 -0.01,-0.01 -0.01,-0.02l0 0c0.01,-0.01 0.02,-0.01 0.03,-0.01l0.08 0.05c0.01,0 0.01,0.01 0,0.02zm0.15 -0.04l0 0c0.01,0.01 0.02,0 0.02,0l0.05 -0.09c0,0 0,-0.01 -0.01,-0.02l0 0c-0.01,0 -0.02,0 -0.02,0.01l-0.05 0.08c0,0.01 0,0.02 0.01,0.02z"/>
  </g>
 </g>
</svg>
