<?xml version="1.0" encoding="UTF-8"?>
<!DOCTYPE svg PUBLIC "-//W3C//DTD SVG 1.1//EN" "http://www.w3.org/Graphics/SVG/1.1/DTD/svg11.dtd">
<!-- Creator: CorelDRAW 2017 -->
<svg xmlns="http://www.w3.org/2000/svg" xml:space="preserve" width="72px" height="72px" version="1.1" style="shape-rendering:geometricPrecision; text-rendering:geometricPrecision; image-rendering:optimizeQuality; fill-rule:evenodd; clip-rule:evenodd"
viewBox="0 0 1.42 1.42"
 xmlns:xlink="http://www.w3.org/1999/xlink">
 <defs>
  <style type="text/css">
   <![CDATA[
    .fil0 {fill:none}
    .fil1 {fill:white}
   ]]>
  </style>
 </defs>
 <g id="Camada_x0020_1">
  <metadata id="CorelCorpID_0Corel-Layer"/>
  <g id="_2097919222640">
   <rect class="fil0" width="1.42" height="1.42"/>
   <path class="fil1" d="M1.14 0.95c0.03,-0.05 0.04,-0.11 0.05,-0.17l-0.14 0c0,0.04 -0.02,0.07 -0.03,0.1l0.12 0.07zm-0.15 -0.01c-0.02,0.03 -0.05,0.06 -0.08,0.08l0.07 0.12c0.05,-0.03 0.09,-0.08 0.13,-0.13l-0.12 -0.07zm-0.14 0.12c-0.03,0.01 -0.07,0.02 -0.1,0.02l0 0.14c0.06,0 0.12,-0.02 0.17,-0.05l-0.07 -0.11zm-0.17 0.02c-0.17,-0.01 -0.31,-0.16 -0.31,-0.33 0,-0.12 0.06,-0.22 0.14,-0.28l-0.06 -0.12c-0.13,0.09 -0.21,0.23 -0.21,0.4 0,0.25 0.19,0.45 0.44,0.47l0 -0.14 0 0zm0.37 -0.37l0.14 0c-0.01,-0.06 -0.02,-0.12 -0.05,-0.17l-0.12 0.07c0.02,0.03 0.03,0.07 0.03,0.1zm-0.06 -0.16l0.12 -0.07c-0.04,-0.05 -0.08,-0.09 -0.13,-0.13l-0.07 0.12c0.03,0.02 0.06,0.05 0.08,0.08zm-0.35 0.06l0.14 0 0 -0.41 -0.14 0 0 0.41z"/>
  </g>
 </g>
</svg>
