<?xml version="1.0" encoding="UTF-8"?>
<!DOCTYPE svg PUBLIC "-//W3C//DTD SVG 1.1//EN" "http://www.w3.org/Graphics/SVG/1.1/DTD/svg11.dtd">
<!-- Creator: CorelDRAW 2017 -->
<svg xmlns="http://www.w3.org/2000/svg" xml:space="preserve" width="128px" height="128px" version="1.1" style="shape-rendering:geometricPrecision; text-rendering:geometricPrecision; image-rendering:optimizeQuality; fill-rule:evenodd; clip-rule:evenodd"
viewBox="0 0 3.44 3.44"
 xmlns:xlink="http://www.w3.org/1999/xlink">
 <defs>
  <style type="text/css">
   <![CDATA[
    .fil0 {fill:none}
    .fil1 {fill:white}
   ]]>
  </style>
 </defs>
 <g id="Camada_x0020_1">
  <metadata id="CorelCorpID_0Corel-Layer"/>
  <g id="_2621908980576">
   <rect class="fil0" width="3.44" height="3.44"/>
   <path class="fil1" d="M1.1 0.72l1.24 0 0 0.42 -1.24 0 0 -0.42zm1.24 1.14l0 0.51 0 0.35 -1.24 0 0 -0.35 0 -0.51 1.24 0zm-1.56 -0.72l0.17 0 0 -0.49c0,-0.04 0.03,-0.08 0.07,-0.08l1.4 0c0.04,0 0.07,0.04 0.07,0.08l0 0.49 0.17 0c0.11,0 0.2,0.09 0.2,0.2l0 0.82c0,0.12 -0.09,0.21 -0.2,0.21l-0.17 0 0 0.42c0,0.04 -0.03,0.08 -0.07,0.08l-1.4 0c-0.04,0 -0.07,-0.04 -0.07,-0.08l0 -0.42 -0.17 0c-0.11,0 -0.2,-0.09 -0.2,-0.21l0 -0.82c0,-0.11 0.09,-0.2 0.2,-0.2zm1.79 0.21c0.04,0 0.08,0.04 0.08,0.09 0,0.04 -0.04,0.08 -0.08,0.08 -0.05,0 -0.08,-0.04 -0.08,-0.08 0,-0.05 0.03,-0.09 0.08,-0.09zm-0.36 1.13l-0.98 0 0 -0.16 0.98 0 0 0.16zm0 -0.27l-0.98 0 0 -0.17 0.98 0 0 0.17z"/>
  </g>
 </g>
</svg>
