<?xml version="1.0" encoding="UTF-8"?>
<!DOCTYPE svg PUBLIC "-//W3C//DTD SVG 1.1//EN" "http://www.w3.org/Graphics/SVG/1.1/DTD/svg11.dtd">
<!-- Creator: CorelDRAW 2017 -->
<svg xmlns="http://www.w3.org/2000/svg" xml:space="preserve" width="72px" height="72px" version="1.1" style="shape-rendering:geometricPrecision; text-rendering:geometricPrecision; image-rendering:optimizeQuality; fill-rule:evenodd; clip-rule:evenodd"
viewBox="0 0 1.19 1.19"
 xmlns:xlink="http://www.w3.org/1999/xlink">
 <defs>
  <style type="text/css">
   <![CDATA[
    .fil0 {fill:none}
    .fil1 {fill:white}
   ]]>
  </style>
 </defs>
 <g id="Camada_x0020_1">
  <metadata id="CorelCorpID_0Corel-Layer"/>
  <g id="_1242565424">
   <rect class="fil0" width="1.19" height="1.19"/>
   <path class="fil1" d="M0.3 0.2l0.59 0c0.01,0 0.01,0 0.01,0.01l0 0.25 0 0.51c0,0.01 0,0.02 -0.01,0.02l-0.59 0c-0.01,0 -0.02,-0.01 -0.02,-0.02l0 -0.76c0,-0.01 0.01,-0.01 0.02,-0.01l0 0zm0.08 0.56l0.43 0 0 0.05 -0.43 0 0 -0.05zm0.15 -0.38l0 0.17 -0.08 0 0.14 0.16 0.15 -0.16 -0.09 0 0 -0.17 -0.12 0z"/>
  </g>
 </g>
</svg>
