<?xml version="1.0" encoding="UTF-8"?>
<!DOCTYPE svg PUBLIC "-//W3C//DTD SVG 1.1//EN" "http://www.w3.org/Graphics/SVG/1.1/DTD/svg11.dtd">
<!-- Creator: CorelDRAW 2017 -->
<svg xmlns="http://www.w3.org/2000/svg" xml:space="preserve" width="72px" height="72px" version="1.1" style="shape-rendering:geometricPrecision; text-rendering:geometricPrecision; image-rendering:optimizeQuality; fill-rule:evenodd; clip-rule:evenodd"
viewBox="0 0 1.24 1.24"
 xmlns:xlink="http://www.w3.org/1999/xlink">
 <defs>
  <style type="text/css">
   <![CDATA[
    .fil0 {fill:none}
    .fil1 {fill:white}
   ]]>
  </style>
 </defs>
 <g id="Camada_x0020_1">
  <metadata id="CorelCorpID_0Corel-Layer"/>
  <g id="_1254901856">
   <rect class="fil0" width="1.24" height="1.24"/>
   <path class="fil1" d="M0.26 0.21l0.59 0 -0.08 0.07 -0.49 0 0 0.67 0.67 0 0 -0.48 0.08 -0.08 0 0.58c0,0.04 -0.02,0.06 -0.06,0.06l-0.71 0c-0.03,0 -0.05,-0.02 -0.05,-0.06l0 -0.7c0,-0.04 0.02,-0.06 0.05,-0.06zm0.7 0.02l0.05 0.05c0.02,0.01 0.02,0.04 0,0.06l-0.05 0.05 -0.11 -0.11 0.05 -0.05c0.01,-0.02 0.05,-0.02 0.06,0zm-0.14 0.08l0.11 0.11 -0.28 0.29 -0.12 -0.12 0.29 -0.28zm-0.2 0.43l-0.01 0 -0.11 0.02c-0.02,0.01 -0.03,0 -0.03,-0.02l0.03 -0.12 0.12 0.12z"/>
  </g>
 </g>
</svg>
