<?xml version="1.0" encoding="UTF-8"?>
<!DOCTYPE svg PUBLIC "-//W3C//DTD SVG 1.1//EN" "http://www.w3.org/Graphics/SVG/1.1/DTD/svg11.dtd">
<!-- Creator: CorelDRAW 2017 -->
<svg xmlns="http://www.w3.org/2000/svg" xml:space="preserve" width="128px" height="128px" version="1.1" style="shape-rendering:geometricPrecision; text-rendering:geometricPrecision; image-rendering:optimizeQuality; fill-rule:evenodd; clip-rule:evenodd"
viewBox="0 0 2.64 2.64"
 xmlns:xlink="http://www.w3.org/1999/xlink">
 <defs>
  <style type="text/css">
   <![CDATA[
    .fil0 {fill:none}
    .fil1 {fill:white}
   ]]>
  </style>
 </defs>
 <g id="Camada_x0020_1">
  <metadata id="CorelCorpID_0Corel-Layer"/>
  <g id="_2833709329936">
   <rect class="fil0" width="2.64" height="2.64"/>
   <path class="fil1" d="M0.55 0.49l1.54 0c0.06,0 0.11,0.05 0.11,0.11l0 0.99 -0.06 0 0 -0.3 -0.35 0 0 0.3 -0.15 0 0 -0.17c0,-0.01 -0.02,-0.02 -0.03,-0.02l-0.18 0c-0.01,0 -0.02,0.01 -0.02,0.02l0 0.18c0,0.01 0.01,0.03 0.02,0.03l0.17 0 0.14 0.17 -1.19 0c-0.06,0 -0.11,-0.05 -0.11,-0.11l0 -1.09c0,-0.06 0.05,-0.11 0.11,-0.11zm0.35 0.18l1.08 0c0.02,0 0.04,0.02 0.04,0.04l0 0.43c0,0.02 -0.02,0.04 -0.04,0.04l-1.08 0c-0.02,0 -0.04,-0.02 -0.04,-0.04l0 -0.43c0,-0.02 0.02,-0.04 0.04,-0.04zm-0.25 0.04l0 0c0.05,0 0.09,0.04 0.09,0.08l0 0.01c0,0.04 -0.04,0.08 -0.09,0.08l0 0c-0.05,0 -0.09,-0.04 -0.09,-0.08l0 -0.01c0,-0.04 0.04,-0.08 0.09,-0.08zm-0.03 0.69l0.18 0c0.01,0 0.02,0.01 0.02,0.02l0 0.18c0,0.01 -0.01,0.03 -0.02,0.03l-0.18 0c-0.01,0 -0.02,-0.02 -0.02,-0.03l0 -0.18c0,-0.01 0.01,-0.02 0.02,-0.02zm0.41 0l0.17 0c0.02,0 0.03,0.01 0.03,0.02l0 0.18c0,0.01 -0.01,0.03 -0.03,0.03l-0.17 0c-0.02,0 -0.03,-0.02 -0.03,-0.03l0 -0.18c0,-0.01 0.01,-0.02 0.03,-0.02zm0.84 -0.03l0 0.3 -0.15 0 0.25 0.29 0.24 -0.29 -0.14 0 0 -0.3 -0.2 0zm-0.15 0.68l0.48 0 0 0.1 -0.48 0 0 -0.1z"/>
  </g>
 </g>
</svg>
