<?xml version="1.0" encoding="UTF-8"?>
<!DOCTYPE svg PUBLIC "-//W3C//DTD SVG 1.1//EN" "http://www.w3.org/Graphics/SVG/1.1/DTD/svg11.dtd">
<!-- Creator: CorelDRAW 2017 -->
<svg xmlns="http://www.w3.org/2000/svg" xml:space="preserve" width="128px" height="128px" version="1.1" style="shape-rendering:geometricPrecision; text-rendering:geometricPrecision; image-rendering:optimizeQuality; fill-rule:evenodd; clip-rule:evenodd"
viewBox="0 0 2.07 2.06"
 xmlns:xlink="http://www.w3.org/1999/xlink">
 <defs>
  <style type="text/css">
   <![CDATA[
    .fil0 {fill:none}
    .fil1 {fill:white;fill-rule:nonzero}
   ]]>
  </style>
 </defs>
 <g id="Camada_x0020_1">
  <metadata id="CorelCorpID_0Corel-Layer"/>
  <g id="_2638882530368">
   <rect class="fil0" width="2.07" height="2.07"/>
   <path class="fil1" d="M0.97 1.78c-0.21,0 -0.42,0 -0.63,0 -0.05,0 -0.05,0 -0.05,-0.06 -0.01,-0.1 0.03,-0.17 0.13,-0.21 0.11,-0.05 0.22,-0.09 0.33,-0.13 0.08,-0.03 0.08,-0.03 0.08,-0.11 0.01,-0.06 0,-0.11 -0.04,-0.15 0,-0.01 0,-0.01 0,-0.01 -0.03,-0.1 -0.08,-0.2 -0.09,-0.31 -0.01,-0.08 -0.02,-0.17 -0.01,-0.25 0.01,-0.09 0.06,-0.16 0.14,-0.2 0.13,-0.08 0.27,-0.08 0.4,0 0.12,0.07 0.16,0.18 0.14,0.31 -0.01,0.03 -0.01,0.07 0,0.1 0.01,0.05 -0.01,0.1 -0.03,0.14 -0.02,0.03 -0.02,0.07 -0.03,0.1 -0.01,0.05 -0.03,0.1 -0.06,0.14 -0.03,0.04 -0.03,0.09 -0.02,0.14 -0.03,0.01 -0.06,0.03 -0.08,0.05 -0.12,0.1 -0.21,0.28 -0.18,0.45zm0.52 -0.47l0 -0.17 0.29 0.29 -0.29 0.29 0 -0.17c0,0 -0.26,-0.07 -0.43,0.23 0,0 -0.05,-0.23 0.15,-0.39 0,0 0.09,-0.08 0.28,-0.08z"/>
  </g>
 </g>
</svg>
