<?xml version="1.0" encoding="UTF-8"?>
<!DOCTYPE svg PUBLIC "-//W3C//DTD SVG 1.1//EN" "http://www.w3.org/Graphics/SVG/1.1/DTD/svg11.dtd">
<!-- Creator: CorelDRAW 2018 (64 Bit Versão de avaliação) -->
<svg xmlns="http://www.w3.org/2000/svg" xml:space="preserve" width="72px" height="72px" version="1.1" style="shape-rendering:geometricPrecision; text-rendering:geometricPrecision; image-rendering:optimizeQuality; fill-rule:evenodd; clip-rule:evenodd"
viewBox="0 0 1.19 1.19"
 xmlns:xlink="http://www.w3.org/1999/xlink">
 <defs>
  <style type="text/css">
   <![CDATA[
    .fil0 {fill:none}
    .fil1 {fill:white}
   ]]>
  </style>
 </defs>
 <g id="Camada_x0020_1">
  <metadata id="CorelCorpID_0Corel-Layer"/>
  <g id="_2022551231952">
   <rect class="fil0" width="1.19" height="1.19"/>
   <path class="fil1" d="M0.21 0.9c-0.01,-0.01 -0.01,-0.02 -0.01,-0.03l0 -0.4c0,-0.01 0,-0.02 0.01,-0.03l0.23 0.23 -0.23 0.23zm0.76 0.01c-0.01,0.01 -0.02,0.01 -0.03,0.01l-0.68 0c-0.02,0 -0.03,0 -0.03,-0.01l0.22 -0.22 0.06 0.05c0.02,0.03 0.06,0.04 0.09,0.04 0.03,0 0.06,-0.01 0.08,-0.04l0.06 -0.05 0.23 0.22zm0.02 -0.28l0 0.24c0,0.01 0,0.02 0,0.03l-0.23 -0.23 0.01 -0.02c0.01,0.02 0.02,0.03 0.04,0.03l0 0.01 0.01 0c0.01,0 0.01,0 0.02,0l0.01 0 0.01 -0.01c0.02,-0.01 0.03,-0.02 0.04,-0.05 0,0 0,0 0,0 0.03,0 0.05,0 0.08,0 0,0 0.01,0 0.01,0l0 0zm-0.73 -0.22l0.41 0c0,0.01 0,0.02 0,0.03 0,0.03 0,0.05 0,0.08 -0.01,0.01 -0.01,0.02 -0.02,0.03 -0.02,0.01 -0.02,0.03 -0.02,0.05 0.01,0.02 0.03,0.03 0.05,0.03 0.03,0 0.05,0 0.08,0l0 0 -0.03 0.03 -0.06 0.06c-0.02,0.02 -0.05,0.03 -0.07,0.03 -0.03,0 -0.05,-0.01 -0.07,-0.03l-0.07 -0.06 0 0 -0.23 -0.24c0,0 0.01,-0.01 0.03,-0.01zm0.56 0.24c-0.01,0 -0.02,-0.01 -0.03,-0.03 0,0 0,-0.01 0.01,-0.01 0.02,0 0.04,0 0.06,0 0.01,0 0.01,0.01 0.01,0.01 -0.01,0.02 -0.02,0.03 -0.03,0.03 -0.01,0 -0.01,0 -0.02,0zm0.02 -0.38c0.01,0.01 0.02,0.02 0.02,0.03 0,0.01 0,0.01 0.01,0.01 0.05,0.02 0.09,0.07 0.09,0.12 0,0.03 0,0.07 0,0.1 0,0 0,0.01 0,0.01 0.01,0.01 0.02,0.02 0.03,0.03 0.01,0.01 0,0.01 0,0.02 0,0.01 0,0.01 0,0.01 0,0 -0.01,0 -0.01,0 -0.1,0 -0.2,0 -0.3,0 0,0 -0.01,0 -0.01,-0.01 0,0 -0.01,-0.01 0,-0.02 0.01,-0.01 0.02,-0.02 0.03,-0.03 0,0 0,-0.01 0,-0.01 0,-0.03 0,-0.06 0,-0.09 0,-0.06 0.04,-0.11 0.09,-0.13 0.01,0 0.01,0 0.01,-0.01 0,-0.01 0.01,-0.02 0.02,-0.03 0.01,0 0.01,0 0.02,0z"/>
  </g>
 </g>
</svg>
