<?xml version="1.0" encoding="UTF-8"?>
<!DOCTYPE svg PUBLIC "-//W3C//DTD SVG 1.1//EN" "http://www.w3.org/Graphics/SVG/1.1/DTD/svg11.dtd">
<!-- Creator: CorelDRAW 2017 -->
<svg xmlns="http://www.w3.org/2000/svg" xml:space="preserve" width="72px" height="72px" version="1.1" style="shape-rendering:geometricPrecision; text-rendering:geometricPrecision; image-rendering:optimizeQuality; fill-rule:evenodd; clip-rule:evenodd"
viewBox="0 0 1.56 1.56"
 xmlns:xlink="http://www.w3.org/1999/xlink">
 <defs>
  <style type="text/css">
   <![CDATA[
    .fil0 {fill:none}
    .fil1 {fill:white;fill-rule:nonzero}
   ]]>
  </style>
 </defs>
 <g id="Camada_x0020_1">
  <metadata id="CorelCorpID_0Corel-Layer"/>
  <g id="_2097916629008">
   <rect class="fil0" width="1.56" height="1.56"/>
   <path class="fil1" d="M0.32 0.84c-0.03,0 -0.06,-0.02 -0.06,-0.06 0,-0.03 0.03,-0.06 0.06,-0.06l0.12 0 0.09 -0.15c0.01,-0.03 0.05,-0.04 0.08,-0.02 0.01,0 0.02,0.02 0.03,0.03l0 0 0.12 0.34 0.16 -0.48c0.02,-0.03 0.05,-0.05 0.08,-0.04 0.02,0.01 0.03,0.03 0.04,0.04l0.1 0.28 0.1 0c0.03,0 0.06,0.03 0.06,0.06 0,0.04 -0.03,0.06 -0.06,0.06l-0.15 0 0 0c-0.02,0 -0.05,-0.01 -0.05,-0.04l-0.06 -0.15 -0.17 0.47c0,0.02 -0.02,0.03 -0.03,0.04 -0.04,0.01 -0.07,-0.01 -0.08,-0.04l-0.13 -0.38 -0.04 0.07c-0.01,0.02 -0.03,0.03 -0.06,0.03l-0.15 0z"/>
  </g>
 </g>
</svg>
