<?xml version="1.0" encoding="UTF-8"?>
<!DOCTYPE svg PUBLIC "-//W3C//DTD SVG 1.1//EN" "http://www.w3.org/Graphics/SVG/1.1/DTD/svg11.dtd">
<!-- Creator: CorelDRAW 2017 -->
<svg xmlns="http://www.w3.org/2000/svg" xml:space="preserve" width="192px" height="192px" version="1.1" style="shape-rendering:geometricPrecision; text-rendering:geometricPrecision; image-rendering:optimizeQuality; fill-rule:evenodd; clip-rule:evenodd"
viewBox="0 0 4.91 4.91"
 xmlns:xlink="http://www.w3.org/1999/xlink">
 <defs>
  <style type="text/css">
   <![CDATA[
    .fil0 {fill:none}
    .fil1 {fill:white}
   ]]>
  </style>
 </defs>
 <g id="Camada_x0020_1">
  <metadata id="CorelCorpID_0Corel-Layer"/>
  <g id="_2621904504768">
   <rect class="fil0" width="4.91" height="4.91"/>
   <path class="fil1" d="M1.47 1.2l0 -0.38 0.2 0 0 0.38c0.18,0.04 0.31,0.2 0.31,0.39 0,0.2 -0.13,0.36 -0.31,0.4l0 2.1 -0.2 0 0 -2.1c-0.17,-0.04 -0.31,-0.2 -0.31,-0.4 0,-0.19 0.14,-0.35 0.31,-0.39zm0.1 0.19c0.12,0 0.21,0.09 0.21,0.2 0,0.12 -0.09,0.21 -0.21,0.21 -0.11,0 -0.2,-0.09 -0.2,-0.21 0,-0.11 0.09,-0.2 0.2,-0.2zm0.79 2.32l0 0.38 0.19 0 0 -0.38c0.18,-0.04 0.31,-0.2 0.31,-0.39 0,-0.2 -0.13,-0.36 -0.31,-0.4l0 -2.1 -0.19 0 0 2.1c-0.18,0.04 -0.31,0.2 -0.31,0.4 0,0.19 0.13,0.35 0.31,0.39zm0.1 -0.19c0.11,0 0.2,-0.09 0.2,-0.2 0,-0.12 -0.09,-0.21 -0.2,-0.21 -0.12,0 -0.21,0.09 -0.21,0.21 0,0.11 0.09,0.2 0.21,0.2zm0.78 -2.32l0 -0.38 0.2 0 0 0.38c0.18,0.04 0.31,0.2 0.31,0.39 0,0.2 -0.13,0.36 -0.31,0.4l0 2.1 -0.2 0 0 -2.1c-0.18,-0.04 -0.31,-0.2 -0.31,-0.4 0,-0.19 0.13,-0.35 0.31,-0.39zm0.1 0.19c0.11,0 0.2,0.09 0.2,0.2 0,0.12 -0.09,0.21 -0.2,0.21 -0.11,0 -0.21,-0.09 -0.21,-0.21 0,-0.11 0.1,-0.2 0.21,-0.2z"/>
  </g>
 </g>
</svg>
