<?xml version="1.0" encoding="UTF-8"?>
<!DOCTYPE svg PUBLIC "-//W3C//DTD SVG 1.1//EN" "http://www.w3.org/Graphics/SVG/1.1/DTD/svg11.dtd">
<!-- Creator: CorelDRAW 2017 -->
<svg xmlns="http://www.w3.org/2000/svg" xml:space="preserve" width="128px" height="128px" version="1.1" style="shape-rendering:geometricPrecision; text-rendering:geometricPrecision; image-rendering:optimizeQuality; fill-rule:evenodd; clip-rule:evenodd"
viewBox="0 0 1.85 1.85"
 xmlns:xlink="http://www.w3.org/1999/xlink">
 <defs>
  <style type="text/css">
   <![CDATA[
    .fil0 {fill:none}
    .fil1 {fill:white}
   ]]>
  </style>
 </defs>
 <g id="Camada_x0020_1">
  <metadata id="CorelCorpID_0Corel-Layer"/>
  <g id="_2638820743984">
   <rect class="fil0" width="1.85" height="1.85"/>
   <path class="fil1" d="M0.31 1.49l0.15 0 0 -0.16 -0.15 0 0 0.16zm0.31 0l0.92 0 0 -0.16 -0.92 0 0 0.16zm-0.31 -0.33l0.15 0 0 -0.15 -0.15 0 0 0.15zm0.31 0l0.92 0 0 -0.15 -0.92 0 0 0.15zm-0.31 -0.32l0.15 0 0 -0.16 -0.15 0 0 0.16zm0.31 0l0.92 0 0 -0.16 -0.92 0 0 0.16zm-0.31 -0.33l0.15 0 0 -0.15 -0.15 0 0 0.15zm0.3 0l0.93 0 0 -0.15 -0.93 0 0 0.15z"/>
  </g>
 </g>
</svg>
