<?xml version="1.0" encoding="UTF-8"?>
<!DOCTYPE svg PUBLIC "-//W3C//DTD SVG 1.1//EN" "http://www.w3.org/Graphics/SVG/1.1/DTD/svg11.dtd">
<!-- Creator: CorelDRAW 2017 -->
<svg xmlns="http://www.w3.org/2000/svg" xml:space="preserve" width="128px" height="128px" version="1.1" style="shape-rendering:geometricPrecision; text-rendering:geometricPrecision; image-rendering:optimizeQuality; fill-rule:evenodd; clip-rule:evenodd"
viewBox="0 0 1.85 1.85"
 xmlns:xlink="http://www.w3.org/1999/xlink">
 <defs>
  <style type="text/css">
   <![CDATA[
    .fil0 {fill:none}
    .fil1 {fill:white}
   ]]>
  </style>
 </defs>
 <g id="Camada_x0020_1">
  <metadata id="CorelCorpID_0Corel-Layer"/>
  <g id="_2638882519200">
   <rect class="fil0" width="1.85" height="1.85"/>
   <path class="fil1" d="M0.53 1.22l0.21 0 0 0.14 -0.21 0 0 -0.14zm0.29 0l0.2 0 0 0.14 -0.2 0 0 -0.14zm-0.29 -0.2l0.21 0 0 0.14 -0.21 0 0 -0.14zm0.29 0l0.2 0 0 0.14 -0.2 0 0 -0.14zm0.29 0l0.2 0 0 0.14 -0.2 0 0 -0.14zm-0.58 -0.2l0.21 0 0 0.13 -0.21 0 0 -0.13zm0.29 0l0.2 0 0 0.13 -0.2 0 0 -0.13zm0.29 0l0.2 0 0 0.13 -0.2 0 0 -0.13zm-0.66 -0.14l0.95 0 0 0.76 -0.95 0 0 -0.76zm0.74 -0.37l0 0c0.04,0 0.07,0.03 0.07,0.07l0 0.11c0,0.04 -0.03,0.07 -0.07,0.07l0 0c-0.03,0 -0.06,-0.03 -0.06,-0.07l0 -0.11c0,-0.04 0.03,-0.07 0.06,-0.07zm-0.54 0l0 0c0.04,0 0.07,0.03 0.07,0.07l0 0.11c0,0.04 -0.03,0.07 -0.07,0.07l0 0c-0.03,0 -0.07,-0.03 -0.07,-0.07l0 -0.11c0,-0.04 0.04,-0.07 0.07,-0.07zm-0.19 0.14l0.09 0 0 0.04c0,0.06 0.05,0.1 0.1,0.1 0.06,0 0.1,-0.04 0.1,-0.1l0 -0.04 0.35 0 0 0.04c0,0.06 0.04,0.1 0.09,0.1 0.06,0 0.1,-0.04 0.1,-0.1l0 -0.04 0.1 0c0.06,0 0.1,0.04 0.1,0.1l0 0.89c0,0.05 -0.04,0.1 -0.1,0.1l-0.93 0c-0.06,0 -0.11,-0.05 -0.11,-0.1l0 -0.89c0,-0.06 0.05,-0.1 0.11,-0.1l0 0zm0.72 0.94l-0.08 -0.08 0.04 -0.04 0.04 0.03 0.11 -0.11 0.04 0.02 -0.15 0.18z"/>
  </g>
 </g>
</svg>
