<?xml version="1.0" encoding="UTF-8"?>
<!DOCTYPE svg PUBLIC "-//W3C//DTD SVG 1.1//EN" "http://www.w3.org/Graphics/SVG/1.1/DTD/svg11.dtd">
<!-- Creator: CorelDRAW 2017 -->
<svg xmlns="http://www.w3.org/2000/svg" xml:space="preserve" width="128px" height="128px" version="1.1" style="shape-rendering:geometricPrecision; text-rendering:geometricPrecision; image-rendering:optimizeQuality; fill-rule:evenodd; clip-rule:evenodd"
viewBox="0 0 2.21 2.21"
 xmlns:xlink="http://www.w3.org/1999/xlink">
 <defs>
  <style type="text/css">
   <![CDATA[
    .fil0 {fill:none}
   ]]>
  </style>
 </defs>
 <g id="Camada_x0020_1">
  <metadata id="CorelCorpID_0Corel-Layer"/>
  <g id="_2833711648960">
   <rect class="fil0" width="2.21" height="2.21"/>
   <path class="fil0" d="M0.58 1.46l0.24 0 0 0.16 -0.24 0 0 -0.16zm0.34 0l0.1 0 0 0.01c0,0.05 0.01,0.1 0.02,0.15l-0.12 0 0 -0.16zm-0.34 -0.24l0.24 0 0 0.16 -0.24 0 0 -0.16zm0.34 0l0.17 0c-0.03,0.05 -0.05,0.1 -0.06,0.16l-0.11 0 0 -0.16zm-0.34 -0.24l0.24 0 0 0.16 -0.24 0 0 -0.16zm0.34 0l0.24 0 0 0.16 0 0 -0.24 0 0 -0.16zm0.35 0l0.24 0 0 0.03c-0.09,0 -0.17,0.01 -0.24,0.05l0 -0.08zm-0.8 -0.17l1.14 0 0 0.22 0.05 0.02 0.06 0 0 -0.39c0,-0.07 -0.05,-0.13 -0.12,-0.13l-0.12 0 0 0.06c0,0.06 -0.05,0.12 -0.11,0.12 -0.07,0 -0.12,-0.06 -0.12,-0.12l0 -0.06 -0.41 0 0 0.06c0,0.06 -0.06,0.12 -0.12,0.12 -0.07,0 -0.12,-0.06 -0.12,-0.12l0 -0.06 -0.12 0 0 0c-0.06,0 -0.12,0.06 -0.12,0.13l0 1.06c0,0.07 0.06,0.12 0.12,0.12l0.5 0 0.11 -0.11 -0.62 0 0 -0.92zm0.9 -0.44l0 0c0.04,0 0.08,0.04 0.08,0.08l0 0.14c0,0.04 -0.04,0.08 -0.08,0.08l0 0c-0.05,0 -0.09,-0.04 -0.09,-0.08l0 -0.14c0,-0.04 0.04,-0.08 0.09,-0.08zm-0.65 0l0 0c0.04,0 0.08,0.04 0.08,0.08l0 0.14c0,0.04 -0.04,0.08 -0.08,0.08l0 0c-0.05,0 -0.08,-0.04 -0.08,-0.08l0 -0.14c0,-0.04 0.03,-0.08 0.08,-0.08zm0.61 1.25l0 0.18 -0.18 0 0.07 -0.07c-0.08,-0.07 -0.11,-0.17 -0.11,-0.26 0,-0.1 0.04,-0.19 0.11,-0.26 0.09,-0.09 0.23,-0.13 0.35,-0.1l0 0.07c-0.11,-0.03 -0.22,-0.01 -0.31,0.07 -0.06,0.06 -0.09,0.14 -0.09,0.22 0,0.08 0.03,0.16 0.09,0.22l0.07 -0.07zm0.3 -0.47l0.18 0 -0.07 0.06c0.06,0.06 0.1,0.14 0.11,0.22 0.01,0.11 -0.03,0.22 -0.11,0.3 -0.1,0.1 -0.23,0.13 -0.35,0.1l0 -0.06c0.1,0.03 0.22,0 0.31,-0.08 0.07,-0.07 0.1,-0.17 0.08,-0.26 -0.01,-0.07 -0.04,-0.13 -0.08,-0.18l-0.07 0.07 0 -0.17z"/>
  </g>
 </g>
</svg>
