<?xml version="1.0" encoding="UTF-8"?>
<!DOCTYPE svg PUBLIC "-//W3C//DTD SVG 1.1//EN" "http://www.w3.org/Graphics/SVG/1.1/DTD/svg11.dtd">
<!-- Creator: CorelDRAW 2018 (64 Bit Versão de avaliação) -->
<svg xmlns="http://www.w3.org/2000/svg" xml:space="preserve" width="128px" height="128px" version="1.1" style="shape-rendering:geometricPrecision; text-rendering:geometricPrecision; image-rendering:optimizeQuality; fill-rule:evenodd; clip-rule:evenodd"
viewBox="0 0 3.15 3.15"
 xmlns:xlink="http://www.w3.org/1999/xlink">
 <defs>
  <style type="text/css">
   <![CDATA[
    .fil0 {fill:none}
    .fil1 {fill:white}
   ]]>
  </style>
 </defs>
 <g id="Camada_x0020_1">
  <metadata id="CorelCorpID_0Corel-Layer"/>
  <g id="_2802012439120">
   <rect class="fil0" width="3.15" height="3.15"/>
   <path class="fil1" d="M2.16 2.14l-1.13 0 0 -0.12 1.13 0 0 0.12zm0 -0.25l-1.13 0 0 -0.12 1.13 0 0 0.12zm0 -0.25l-1.13 0 0 -0.13 1.13 0 0 0.13zm0 -0.25l-1.13 0 0 -0.13 1.13 0 0 0.13zm0 -0.25l-1.13 0 0 -0.13 1.13 0 0 0.13zm0 -0.25l-1.13 0 0 -0.13 1.13 0 0 0.13zm-1.37 -0.36l1.57 0c0.03,0 0.05,0.01 0.05,0.04l0 0.65 0 1.37c0,0.02 -0.02,0.04 -0.05,0.04l-1.57 0c-0.03,0 -0.04,-0.02 -0.04,-0.04l0 -2.02c0,-0.03 0.01,-0.04 0.04,-0.04l0 0z"/>
  </g>
 </g>
</svg>
