<?xml version="1.0" encoding="UTF-8"?>
<!DOCTYPE svg PUBLIC "-//W3C//DTD SVG 1.1//EN" "http://www.w3.org/Graphics/SVG/1.1/DTD/svg11.dtd">
<!-- Creator: CorelDRAW 2017 -->
<svg xmlns="http://www.w3.org/2000/svg" xml:space="preserve" width="72px" height="72px" version="1.1" style="shape-rendering:geometricPrecision; text-rendering:geometricPrecision; image-rendering:optimizeQuality; fill-rule:evenodd; clip-rule:evenodd"
viewBox="0 0 1.69 1.69"
 xmlns:xlink="http://www.w3.org/1999/xlink">
 <defs>
  <style type="text/css">
   <![CDATA[
    .fil0 {fill:none}
    .fil1 {fill:white}
   ]]>
  </style>
 </defs>
 <g id="Camada_x0020_1">
  <metadata id="CorelCorpID_0Corel-Layer"/>
  <g id="_2097916638352">
   <rect class="fil0" width="1.69" height="1.69"/>
   <path class="fil1" d="M0.84 0.27c-0.31,0 -0.56,0.25 -0.56,0.56 0,0.31 0.25,0.56 0.56,0.56l0.01 0c0,-0.01 -0.01,-0.02 -0.01,-0.04 -0.01,-0.02 -0.01,-0.05 0,-0.07 -0.25,-0.01 -0.44,-0.2 -0.44,-0.45 0,-0.25 0.2,-0.44 0.44,-0.44 0.25,0 0.45,0.19 0.45,0.44 0,0.01 0,0.03 0,0.04 0.04,0.02 0.07,0.05 0.1,0.09 0.01,-0.04 0.01,-0.08 0.01,-0.13 0,-0.31 -0.25,-0.56 -0.56,-0.56zm-0.05 0.48c-0.02,0.01 -0.04,0.03 -0.04,0.06l-0.16 0c-0.02,0 -0.05,0.03 -0.05,0.05 0,0.03 0.03,0.05 0.05,0.05l0.2 0c0.02,0.01 0.03,0.02 0.05,0.02 0.06,0 0.1,-0.04 0.1,-0.1 0,-0.04 -0.02,-0.07 -0.05,-0.08l0 -0.23c0,-0.03 -0.02,-0.05 -0.05,-0.05 -0.03,0 -0.05,0.02 -0.05,0.05l0 0.23zm0.38 0.12c0.02,0.01 0.03,0.03 0.03,0.05 0,0.01 0,0.01 0.01,0.02 0.08,0.02 0.12,0.09 0.12,0.17 0.01,0.04 0,0.08 0,0.13 0,0.01 0.01,0.02 0.01,0.02 0.02,0.02 0.03,0.03 0.04,0.04 0.01,0.01 0.01,0.02 0.01,0.03 0,0 0,0.01 -0.01,0.01 0,0 -0.01,0 -0.01,0 -0.14,0 -0.28,0 -0.42,0 -0.01,0 -0.02,0 -0.02,-0.01 -0.01,-0.01 -0.01,-0.02 0,-0.03 0.01,-0.01 0.03,-0.02 0.04,-0.04 0.01,0 0.01,-0.01 0.01,-0.02 0,-0.04 0,-0.09 0,-0.13 0,-0.08 0.05,-0.15 0.13,-0.17 0,-0.01 0.01,-0.01 0.01,-0.02 -0.01,-0.02 0.01,-0.04 0.03,-0.05 0,0 0.01,0 0.02,0zm-0.03 0.55c-0.02,-0.01 -0.03,-0.02 -0.04,-0.04 0,-0.02 0,-0.02 0.02,-0.02 0.02,0 0.05,0 0.08,0 0.01,0 0.01,0 0.01,0.02 0,0.02 -0.02,0.03 -0.04,0.04 -0.01,0 -0.02,0 -0.03,0z"/>
  </g>
 </g>
</svg>
