<?xml version="1.0" encoding="UTF-8"?>
<!DOCTYPE svg PUBLIC "-//W3C//DTD SVG 1.1//EN" "http://www.w3.org/Graphics/SVG/1.1/DTD/svg11.dtd">
<!-- Creator: CorelDRAW 2017 -->
<svg xmlns="http://www.w3.org/2000/svg" xml:space="preserve" width="192px" height="192px" version="1.1" style="shape-rendering:geometricPrecision; text-rendering:geometricPrecision; image-rendering:optimizeQuality; fill-rule:evenodd; clip-rule:evenodd"
viewBox="0 0 4.42 4.42"
 xmlns:xlink="http://www.w3.org/1999/xlink">
 <defs>
  <style type="text/css">
   <![CDATA[
    .fil0 {fill:none}
    .fil1 {fill:white}
   ]]>
  </style>
 </defs>
 <g id="Camada_x0020_1">
  <metadata id="CorelCorpID_0Corel-Layer"/>
  <g id="_2621911089920">
   <rect class="fil0" width="4.42" height="4.42"/>
   <path class="fil1" d="M1.1 0.74l2.21 0c0.03,0 0.06,0.02 0.06,0.05l0 0.92 0 1.91c0,0.03 -0.03,0.06 -0.06,0.06l-2.21 0c-0.03,0 -0.05,-0.03 -0.05,-0.06l0 -2.83c0,-0.03 0.02,-0.05 0.05,-0.05l0 0zm1.93 1.91l-0.17 0c0.01,-0.06 0.02,-0.12 0.02,-0.18l0.15 0 0 0.18zm0 -0.35l-0.16 0c-0.01,-0.06 -0.03,-0.12 -0.05,-0.18l0.21 0 0 0.18zm0 -0.35l-0.32 0c-0.06,-0.07 -0.12,-0.13 -0.2,-0.18l0.52 0 0 0.18zm0 -0.36l-1.59 0 0 -0.17 1.59 0 0 0.17zm0 -0.35l-1.59 0 0 -0.17 1.59 0 0 0.17zm-0.93 0.54c0.36,0 0.66,0.29 0.66,0.66 0,0.13 -0.04,0.25 -0.1,0.36l0.34 0.34c0.04,0.04 0.04,0.1 0,0.15l-0.06 0.05c-0.04,0.04 -0.1,0.04 -0.15,0l-0.34 -0.34c-0.1,0.07 -0.22,0.1 -0.35,0.1 -0.37,0 -0.67,-0.29 -0.67,-0.66 0,-0.37 0.3,-0.66 0.67,-0.66zm0 0.21c0.25,0 0.45,0.2 0.45,0.45 0,0.25 -0.2,0.45 -0.45,0.45 -0.25,0 -0.45,-0.2 -0.45,-0.45 0,-0.25 0.2,-0.45 0.45,-0.45z"/>
  </g>
 </g>
</svg>
