<?xml version="1.0" encoding="UTF-8"?>
<!DOCTYPE svg PUBLIC "-//W3C//DTD SVG 1.1//EN" "http://www.w3.org/Graphics/SVG/1.1/DTD/svg11.dtd">
<!-- Creator: CorelDRAW 2017 -->
<svg xmlns="http://www.w3.org/2000/svg" xml:space="preserve" width="192px" height="192px" version="1.1" style="shape-rendering:geometricPrecision; text-rendering:geometricPrecision; image-rendering:optimizeQuality; fill-rule:evenodd; clip-rule:evenodd"
viewBox="0 0 4.69 4.69"
 xmlns:xlink="http://www.w3.org/1999/xlink">
 <defs>
  <style type="text/css">
   <![CDATA[
    .fil0 {fill:none}
    .fil1 {fill:white}
   ]]>
  </style>
 </defs>
 <g id="Camada_x0020_1">
  <metadata id="CorelCorpID_0Corel-Layer"/>
  <g id="_2621910574336">
   <rect class="fil0" width="4.69" height="4.69"/>
   <path class="fil1" d="M2.08 1.21c0.49,0 0.88,0.39 0.88,0.87 0,0.49 -0.39,0.88 -0.88,0.88 -0.48,0 -0.87,-0.39 -0.87,-0.88 0,-0.48 0.39,-0.87 0.87,-0.87zm0 -0.43c0.72,0 1.3,0.58 1.3,1.3 0,0.26 -0.07,0.5 -0.2,0.7l0.67 0.67c0.08,0.08 0.08,0.21 0,0.29l-0.11 0.11c-0.08,0.08 -0.21,0.08 -0.29,0l-0.67 -0.67c-0.2,0.13 -0.44,0.2 -0.7,0.2 -0.72,0 -1.3,-0.58 -1.3,-1.3 0,-0.72 0.58,-1.3 1.3,-1.3z"/>
  </g>
 </g>
</svg>
