<?xml version="1.0" encoding="UTF-8"?>
<!DOCTYPE svg PUBLIC "-//W3C//DTD SVG 1.1//EN" "http://www.w3.org/Graphics/SVG/1.1/DTD/svg11.dtd">
<!-- Creator: CorelDRAW 2017 -->
<svg xmlns="http://www.w3.org/2000/svg" xml:space="preserve" width="72px" height="72px" version="1.1" style="shape-rendering:geometricPrecision; text-rendering:geometricPrecision; image-rendering:optimizeQuality; fill-rule:evenodd; clip-rule:evenodd"
viewBox="0 0 1.31 1.31"
 xmlns:xlink="http://www.w3.org/1999/xlink">
 <defs>
  <style type="text/css">
   <![CDATA[
    .fil0 {fill:none}
    .fil1 {fill:white}
   ]]>
  </style>
 </defs>
 <g id="Camada_x0020_1">
  <metadata id="CorelCorpID_0Corel-Layer"/>
  <g id="_1173091696">
   <rect class="fil0" width="1.31" height="1.31"/>
   <path class="fil1" d="M0.8 0.81l-0.29 0c-0.01,0 -0.03,0.01 -0.03,0.03 0,0.02 0.02,0.03 0.03,0.03l0.29 0c0.01,0 0.03,-0.01 0.03,-0.03 0,-0.02 -0.02,-0.03 -0.03,-0.03zm0.06 -0.12l-0.41 0c-0.01,0 -0.02,0.01 -0.02,0.03 0,0.02 0.01,0.03 0.02,0.03l0.41 0c0.01,0 0.03,-0.01 0.03,-0.03 0,-0.02 -0.02,-0.03 -0.03,-0.03zm0.22 -0.25l-0.19 -0.19 0 0.11c0,0.05 -0.03,0.08 -0.07,0.08l-0.33 0c-0.04,0 -0.07,-0.03 -0.07,-0.08l0 -0.14 -0.12 0c-0.05,0 -0.08,0.03 -0.08,0.08l0 0.71c0,0.05 0.03,0.08 0.08,0.08l0.71 0c0.05,0 0.08,-0.03 0.08,-0.08l0 -0.54c0,-0.01 0,-0.02 -0.01,-0.03l0 0zm-0.12 0.47c0,0.02 -0.03,0.05 -0.05,0.05l-0.51 0c-0.03,0 -0.05,-0.03 -0.05,-0.05l0 -0.25c0,-0.02 0.02,-0.04 0.05,-0.04l0.51 0c0.02,0 0.05,0.02 0.05,0.04l0 0.25zm-0.47 -0.53l0.33 0c0.01,0 0.02,-0.01 0.02,-0.02l0 -0.14 -0.37 0 0 0.14c0,0.01 0.01,0.02 0.02,0.02z"/>
  </g>
 </g>
</svg>
