<?xml version="1.0" encoding="UTF-8"?>
<!DOCTYPE svg PUBLIC "-//W3C//DTD SVG 1.1//EN" "http://www.w3.org/Graphics/SVG/1.1/DTD/svg11.dtd">
<!-- Creator: CorelDRAW 2017 -->
<svg xmlns="http://www.w3.org/2000/svg" xml:space="preserve" width="128px" height="128px" version="1.1" style="shape-rendering:geometricPrecision; text-rendering:geometricPrecision; image-rendering:optimizeQuality; fill-rule:evenodd; clip-rule:evenodd"
viewBox="0 0 2.51 2.51"
 xmlns:xlink="http://www.w3.org/1999/xlink">
 <defs>
  <style type="text/css">
   <![CDATA[
    .fil1 {fill:none}
    .fil0 {fill:white}
   ]]>
  </style>
 </defs>
 <g id="Camada_x0020_1">
  <metadata id="CorelCorpID_0Corel-Layer"/>
  <g id="_2833806657904">
   <path class="fil0" d="M0.52 0.47l1.47 0c0.06,0 0.1,0.04 0.1,0.1l0 0.7 -0.22 0 0.01 -0.05 -0.06 -0.01c-0.33,-0.09 -0.62,0.18 -0.58,0.5l-0.72 0c-0.05,0 -0.1,-0.04 -0.1,-0.1l0 -1.04c0,-0.06 0.05,-0.1 0.1,-0.1zm0.34 0.17l1.02 0c0.03,0 0.04,0.01 0.04,0.04l0 0.41c0,0.02 -0.01,0.04 -0.04,0.04l-1.02 0c-0.03,0 -0.04,-0.02 -0.04,-0.04l0 -0.41c0,-0.03 0.01,-0.04 0.04,-0.04zm-0.24 0.03l0 0c0.04,0 0.08,0.04 0.08,0.09l0 0c0,0.04 -0.04,0.08 -0.08,0.08l0 0c-0.05,0 -0.09,-0.04 -0.09,-0.08l0 0c0,-0.05 0.04,-0.09 0.09,-0.09zm-0.03 0.66l0.17 0c0.01,0 0.03,0.01 0.03,0.03l0 0.17c0,0.01 -0.02,0.02 -0.03,0.02l-0.17 0c-0.01,0 -0.02,-0.01 -0.02,-0.02l0 -0.17c0,-0.02 0.01,-0.03 0.02,-0.03zm0.39 0l0.17 0c0.01,0 0.02,0.01 0.02,0.03l0 0.17c0,0.01 -0.01,0.02 -0.02,0.02l-0.17 0c-0.01,0 -0.02,-0.01 -0.02,-0.02l0 -0.17c0,-0.02 0.01,-0.03 0.02,-0.03zm1 0.05c0.15,0.15 0.15,0.4 0,0.55 -0.1,0.11 -0.25,0.14 -0.38,0.11l0.01 -0.13c0.1,0.04 0.21,0.02 0.29,-0.06 0.1,-0.11 0.1,-0.28 0,-0.39l-0.05 0.04 0 -0.16 0.17 0 -0.04 0.04zm-0.43 0.43l0 0.17 -0.17 0 0.04 -0.05c-0.15,-0.15 -0.15,-0.4 0,-0.55 0.11,-0.1 0.25,-0.14 0.38,-0.1l-0.01 0.12c-0.09,-0.04 -0.2,-0.01 -0.28,0.06 -0.11,0.11 -0.11,0.28 0,0.39l0.04 -0.04z"/>
   <rect class="fil1" width="2.51" height="2.51"/>
  </g>
 </g>
</svg>
