<?xml version="1.0" encoding="UTF-8"?>
<!DOCTYPE svg PUBLIC "-//W3C//DTD SVG 1.1//EN" "http://www.w3.org/Graphics/SVG/1.1/DTD/svg11.dtd">
<!-- Creator: CorelDRAW 2017 -->
<svg xmlns="http://www.w3.org/2000/svg" xml:space="preserve" width="192px" height="192px" version="1.1" style="shape-rendering:geometricPrecision; text-rendering:geometricPrecision; image-rendering:optimizeQuality; fill-rule:evenodd; clip-rule:evenodd"
viewBox="0 0 5.01 5.01"
 xmlns:xlink="http://www.w3.org/1999/xlink">
 <defs>
  <style type="text/css">
   <![CDATA[
    .fil0 {fill:none}
    .fil1 {fill:white}
   ]]>
  </style>
 </defs>
 <g id="Camada_x0020_1">
  <metadata id="CorelCorpID_0Corel-Layer"/>
  <g id="_2621910391200">
   <rect class="fil0" width="5.01" height="5.01"/>
   <path class="fil1" d="M2.81 3.04l0.17 0 0.1 0.36c0.02,0.1 0.04,0.18 0.05,0.23 0.01,-0.08 0.02,-0.13 0.03,-0.17l0.11 -0.42 0.17 0 -0.24 0.78 -0.16 0 -0.23 -0.78zm-0.06 0.22l-0.16 0.01c-0.01,-0.08 -0.04,-0.12 -0.09,-0.12 -0.03,0 -0.05,0 -0.06,0.02 -0.02,0.01 -0.03,0.03 -0.03,0.05 0,0.02 0.01,0.04 0.03,0.06 0.01,0.02 0.05,0.04 0.12,0.07 0.07,0.04 0.13,0.07 0.16,0.11 0.03,0.04 0.05,0.08 0.05,0.14 0,0.07 -0.03,0.13 -0.07,0.17 -0.05,0.04 -0.11,0.07 -0.19,0.07 -0.17,0 -0.26,-0.09 -0.27,-0.27l0.16 -0.01c0,0.05 0.01,0.09 0.03,0.12 0.02,0.02 0.05,0.03 0.08,0.03 0.04,0 0.06,-0.01 0.08,-0.03 0.02,-0.02 0.03,-0.04 0.03,-0.07 0,-0.02 -0.01,-0.05 -0.03,-0.07 -0.02,-0.02 -0.06,-0.04 -0.14,-0.08 -0.08,-0.03 -0.13,-0.07 -0.15,-0.1 -0.03,-0.04 -0.04,-0.08 -0.04,-0.12 0,-0.05 0.01,-0.09 0.04,-0.12 0.02,-0.03 0.05,-0.06 0.08,-0.07 0.04,-0.02 0.08,-0.03 0.13,-0.03 0.08,0 0.14,0.02 0.17,0.06 0.04,0.04 0.06,0.1 0.07,0.18zm-0.6 -0.01l-0.15 0.04c-0.01,-0.09 -0.05,-0.14 -0.1,-0.14 -0.03,0 -0.05,0.01 -0.06,0.03 -0.02,0.01 -0.03,0.03 -0.04,0.07 -0.01,0.03 -0.01,0.09 -0.01,0.17 0,0.08 0,0.14 0.01,0.18 0,0.03 0.02,0.06 0.03,0.08 0.02,0.02 0.04,0.03 0.07,0.03 0.06,0 0.1,-0.06 0.11,-0.17l0.15 0.05c-0.02,0.16 -0.11,0.25 -0.26,0.25 -0.09,0 -0.16,-0.04 -0.2,-0.1 -0.05,-0.07 -0.07,-0.17 -0.07,-0.3 0,-0.1 0.01,-0.18 0.02,-0.24 0.02,-0.05 0.05,-0.1 0.09,-0.13 0.04,-0.03 0.1,-0.05 0.16,-0.05 0.07,0 0.13,0.02 0.17,0.06 0.04,0.03 0.07,0.09 0.08,0.17zm-0.5 -2.04l0.14 0 0.09 0.19 0.1 -0.19 0.13 0 -0.16 0.32 0.17 0.34 -0.13 0 -0.11 -0.21 -0.11 0.21 -0.13 0 0.17 -0.34 -0.16 -0.32zm1.13 0.22l-0.49 0 0 -0.22 0.49 0 0 0.22zm0.65 0l-0.49 0 0 -0.22 0.49 0 0 0.22zm-0.65 0.44l-0.49 0 0 -0.22 0.49 0 0 0.22zm0.65 0l-0.49 0 0 -0.22 0.49 0 0 0.22zm-1.3 0.45l-0.5 0 0 -0.22 0.5 0 0 0.22zm0.65 0l-0.49 0 0 -0.22 0.49 0 0 0.22zm0.65 0l-0.49 0 0 -0.22 0.49 0 0 0.22zm-1.3 0.44l-0.5 0 0 -0.22 0.5 0 0 0.22zm0.65 0l-0.49 0 0 -0.22 0.49 0 0 0.22zm0.65 0l-0.49 0 0 -0.22 0.49 0 0 0.22zm-2.18 -1.92l2.51 0c0.04,0 0.07,0.02 0.07,0.06l0 1.04 0 2.17c0,0.04 -0.03,0.07 -0.07,0.07l-2.51 0c-0.03,0 -0.06,-0.03 -0.06,-0.07l0 -3.21c0,-0.04 0.03,-0.06 0.06,-0.06l0 0z"/>
  </g>
 </g>
</svg>
