<?xml version="1.0" encoding="UTF-8"?>
<!DOCTYPE svg PUBLIC "-//W3C//DTD SVG 1.1//EN" "http://www.w3.org/Graphics/SVG/1.1/DTD/svg11.dtd">
<!-- Creator: CorelDRAW 2017 -->
<svg xmlns="http://www.w3.org/2000/svg" xml:space="preserve" width="128px" height="128px" version="1.1" style="shape-rendering:geometricPrecision; text-rendering:geometricPrecision; image-rendering:optimizeQuality; fill-rule:evenodd; clip-rule:evenodd"
viewBox="0 0 2.4 2.4"
 xmlns:xlink="http://www.w3.org/1999/xlink">
 <defs>
  <style type="text/css">
   <![CDATA[
    .fil0 {fill:none}
    .fil1 {fill:white}
   ]]>
  </style>
 </defs>
 <g id="Camada_x0020_1">
  <metadata id="CorelCorpID_0Corel-Layer"/>
  <g id="_1620432420768">
   <rect class="fil0" width="2.4" height="2.4"/>
   <path class="fil1" d="M0.69 1.05l0.01 0 0 -0.15c0,-0.28 0.23,-0.5 0.5,-0.5 0.27,0 0.5,0.22 0.5,0.5l0 0.15 0.02 0c0.05,0 0.09,0.04 0.09,0.1l0 0.75c0,0.06 -0.04,0.1 -0.09,0.1l-1.03 0c-0.06,0 -0.1,-0.04 -0.1,-0.1l0 -0.75c0,-0.06 0.04,-0.1 0.1,-0.1zm0.22 0l0.58 0 0 -0.15c0,-0.16 -0.13,-0.29 -0.29,-0.29 -0.16,0 -0.29,0.13 -0.29,0.29l0 0.15zm0.29 0.25c0.07,0 0.13,0.06 0.13,0.13 0,0.03 -0.01,0.06 -0.03,0.08l0 0.23c0,0.03 -0.02,0.05 -0.05,0.05l-0.1 0c-0.03,0 -0.05,-0.02 -0.05,-0.05l0 -0.23c-0.02,-0.02 -0.03,-0.05 -0.03,-0.08 0,-0.07 0.06,-0.13 0.13,-0.13z"/>
  </g>
 </g>
</svg>
