<?xml version="1.0" encoding="UTF-8"?>
<!DOCTYPE svg PUBLIC "-//W3C//DTD SVG 1.1//EN" "http://www.w3.org/Graphics/SVG/1.1/DTD/svg11.dtd">
<!-- Creator: CorelDRAW 2018 (64 Bit Versão de avaliação) -->
<svg xmlns="http://www.w3.org/2000/svg" xml:space="preserve" width="72px" height="72px" version="1.1" style="shape-rendering:geometricPrecision; text-rendering:geometricPrecision; image-rendering:optimizeQuality; fill-rule:evenodd; clip-rule:evenodd"
viewBox="0 0 1.23 1.23"
 xmlns:xlink="http://www.w3.org/1999/xlink">
 <defs>
  <style type="text/css">
   <![CDATA[
    .fil0 {fill:none}
    .fil1 {fill:white}
   ]]>
  </style>
 </defs>
 <g id="Camada_x0020_1">
  <metadata id="CorelCorpID_0Corel-Layer"/>
  <g id="_1981779722064">
   <rect class="fil0" width="1.23" height="1.23"/>
   <path class="fil1" d="M0.62 0.45l0 0.08 0.14 -0.14 -0.14 -0.15 0 0.09c0,0 -0.13,0.03 -0.22,-0.12 0,0 -0.02,0.12 0.08,0.2 0,0 0.04,0.04 0.14,0.04zm-0.35 0.04l0.31 0 0 0.04c0,0.02 0.01,0.03 0.02,0.03 0.02,0.01 0.03,0.01 0.04,0l0.07 -0.07 0.26 0c0.01,0 0.02,0.01 0.03,0.01l-0.24 0.25 -0.07 0.06c-0.02,0.02 -0.05,0.03 -0.07,0.03 -0.03,0 -0.06,-0.01 -0.08,-0.03l-0.06 -0.06 0 0 -0.25 -0.25c0.01,0 0.02,-0.01 0.04,-0.01zm0.75 0.03c0,0.01 0.01,0.02 0.01,0.03l0 0.41c0,0.01 -0.01,0.02 -0.01,0.03l-0.24 -0.23 0.24 -0.24zm-0.02 0.49c-0.01,0.01 -0.02,0.01 -0.03,0.01l-0.7 0c-0.02,0 -0.03,0 -0.04,-0.01l0.24 -0.24 0.06 0.06c0.02,0.03 0.05,0.04 0.09,0.04 0.03,0 0.06,-0.01 0.09,-0.04l0.05 -0.06 0.24 0.24zm-0.78 -0.02c-0.01,-0.01 -0.01,-0.02 -0.01,-0.03l0 -0.41c0,-0.01 0,-0.02 0.01,-0.03l0.23 0.24 -0.23 0.23z"/>
  </g>
 </g>
</svg>
