<?xml version="1.0" encoding="UTF-8"?>
<!DOCTYPE svg PUBLIC "-//W3C//DTD SVG 1.1//EN" "http://www.w3.org/Graphics/SVG/1.1/DTD/svg11.dtd">
<!-- Creator: CorelDRAW 2017 -->
<svg xmlns="http://www.w3.org/2000/svg" xml:space="preserve" width="72px" height="72px" version="1.1" style="shape-rendering:geometricPrecision; text-rendering:geometricPrecision; image-rendering:optimizeQuality; fill-rule:evenodd; clip-rule:evenodd"
viewBox="0 0 1.12 1.12"
 xmlns:xlink="http://www.w3.org/1999/xlink">
 <defs>
  <style type="text/css">
   <![CDATA[
    .fil0 {fill:none}
    .fil1 {fill:white}
   ]]>
  </style>
 </defs>
 <g id="Camada_x0020_1">
  <metadata id="CorelCorpID_0Corel-Layer"/>
  <g id="_1005039152">
   <rect class="fil0" width="1.12" height="1.12"/>
   <g>
    <path class="fil1" d="M0.56 0.47l0.37 0 0 0.46 -0.37 0 0 -0.46zm0.06 0.04l0.09 0 0 0.1 -0.09 0 0 -0.1zm0.16 0l0.1 0 0 0.1 -0.1 0 0 -0.1zm-0.16 0.14l0.09 0 0 0.1 -0.09 0 0 -0.1zm0.16 0l0.1 0 0 0.1 -0.1 0 0 -0.1z"/>
    <path class="fil1" d="M0.24 0.65l0.1 0 0 0.09 -0.1 0 0 -0.09zm0.17 0l0.09 0 0 0.09 -0.09 0 0 -0.09zm-0.17 -0.14l0.1 0 0 0.1 -0.1 0 0 -0.1zm0.17 0l0.09 0 0 0.1 -0.09 0 0 -0.1zm-0.17 -0.14l0.1 0 0 0.1 -0.1 0 0 -0.1zm0.17 0l0.09 0 0 0.1 -0.09 0 0 -0.1zm-0.17 -0.14l0.1 0 0 0.1 -0.1 0 0 -0.1zm0.17 0l0.09 0 0 0.1 -0.09 0 0 -0.1zm-0.22 -0.04l0.37 0 0 0.74 -0.37 0 0 -0.74z"/>
   </g>
  </g>
 </g>
</svg>
