<?xml version="1.0" encoding="UTF-8"?>
<!DOCTYPE svg PUBLIC "-//W3C//DTD SVG 1.1//EN" "http://www.w3.org/Graphics/SVG/1.1/DTD/svg11.dtd">
<!-- Creator: CorelDRAW 2017 -->
<svg xmlns="http://www.w3.org/2000/svg" xml:space="preserve" width="72px" height="72px" version="1.1" style="shape-rendering:geometricPrecision; text-rendering:geometricPrecision; image-rendering:optimizeQuality; fill-rule:evenodd; clip-rule:evenodd"
viewBox="0 0 1.37 1.37"
 xmlns:xlink="http://www.w3.org/1999/xlink">
 <defs>
  <style type="text/css">
   <![CDATA[
    .fil0 {fill:none}
    .fil1 {fill:white}
   ]]>
  </style>
 </defs>
 <g id="Camada_x0020_1">
  <metadata id="CorelCorpID_0Corel-Layer"/>
  <g id="_1187799424">
   <rect class="fil0" width="1.37" height="1.37"/>
   <path class="fil1" d="M0.37 0.46l0.63 0c0.03,0 0.06,-0.03 0.06,-0.06l0 -0.01c0,-0.03 -0.03,-0.05 -0.06,-0.05l-0.23 0 0 -0.03 0 0c0,-0.05 -0.03,-0.08 -0.08,-0.08l-0.01 0c-0.05,0 -0.08,0.03 -0.08,0.08l0 0 0 0.03 -0.23 0c-0.03,0 -0.06,0.02 -0.06,0.05l0 0.01c0,0.03 0.03,0.06 0.06,0.06zm0 0.05l0.63 0 0 0.51c0,0.07 -0.06,0.12 -0.12,0.12l-0.39 0c-0.07,0 -0.12,-0.05 -0.12,-0.12l0 -0.51zm0.14 0.12l0 0c0.02,0 0.03,0.01 0.03,0.03l0 0.34c0,0.01 -0.01,0.02 -0.03,0.02l0 0c-0.01,0 -0.02,-0.01 -0.02,-0.02l0 -0.34c0,-0.02 0.01,-0.03 0.02,-0.03zm0.17 0l0 0c0.02,0 0.03,0.01 0.03,0.03l0 0.34c0,0.01 -0.01,0.02 -0.03,0.02l0 0c-0.01,0 -0.02,-0.01 -0.02,-0.02l0 -0.34c0,-0.02 0.01,-0.03 0.02,-0.03zm0.18 0l0 0c0.01,0 0.02,0.01 0.02,0.03l0 0.34c0,0.01 -0.01,0.02 -0.02,0.02l0 0c-0.02,0 -0.03,-0.01 -0.03,-0.02l0 -0.34c0,-0.02 0.01,-0.03 0.03,-0.03z"/>
  </g>
 </g>
</svg>
