<?xml version="1.0" encoding="UTF-8"?>
<!DOCTYPE svg PUBLIC "-//W3C//DTD SVG 1.1//EN" "http://www.w3.org/Graphics/SVG/1.1/DTD/svg11.dtd">
<!-- Creator: CorelDRAW 2017 -->
<svg xmlns="http://www.w3.org/2000/svg" xml:space="preserve" width="72px" height="72px" version="1.1" style="shape-rendering:geometricPrecision; text-rendering:geometricPrecision; image-rendering:optimizeQuality; fill-rule:evenodd; clip-rule:evenodd"
viewBox="0 0 1.16 1.16"
 xmlns:xlink="http://www.w3.org/1999/xlink">
 <defs>
  <style type="text/css">
   <![CDATA[
    .fil0 {fill:none}
    .fil1 {fill:white;fill-rule:nonzero}
   ]]>
  </style>
 </defs>
 <g id="Camada_x0020_1">
  <metadata id="CorelCorpID_0Corel-Layer"/>
  <g id="_1147529792">
   <rect class="fil0" width="1.16" height="1.16"/>
   <path class="fil1" d="M0.58 1c-0.13,0 -0.26,0 -0.39,0 -0.03,0 -0.03,0 -0.03,-0.03 0,-0.06 0.02,-0.1 0.07,-0.12 0.07,-0.03 0.13,-0.05 0.19,-0.07 0.05,-0.02 0.05,-0.02 0.05,-0.07 0,-0.03 0,-0.06 -0.02,-0.08 -0.01,0 -0.01,-0.01 -0.01,-0.01 -0.01,-0.05 -0.04,-0.11 -0.05,-0.17 0,-0.04 -0.01,-0.09 0,-0.14 0.01,-0.05 0.03,-0.09 0.08,-0.12 0.07,-0.04 0.15,-0.04 0.22,0.01 0.07,0.03 0.09,0.1 0.08,0.17 0,0.02 0,0.04 0,0.06 0.01,0.03 0,0.05 -0.02,0.08 0,0.02 -0.01,0.03 -0.01,0.05 -0.01,0.03 -0.02,0.06 -0.04,0.08 -0.02,0.04 -0.01,0.07 -0.01,0.11 0.01,0.01 0.02,0.02 0.04,0.02 0.05,0.02 0.1,0.04 0.15,0.06 0.03,0.01 0.06,0.02 0.08,0.04 0.03,0.02 0.05,0.09 0.04,0.12 -0.01,0.01 -0.02,0.01 -0.03,0.01 -0.04,0 -0.08,0 -0.12,0 -0.09,0 -0.18,0 -0.27,0z"/>
  </g>
 </g>
</svg>
