<?xml version="1.0" encoding="UTF-8"?>
<!DOCTYPE svg PUBLIC "-//W3C//DTD SVG 1.1//EN" "http://www.w3.org/Graphics/SVG/1.1/DTD/svg11.dtd">
<!-- Creator: CorelDRAW 2018 (64 Bit Versão de avaliação) -->
<svg xmlns="http://www.w3.org/2000/svg" xml:space="preserve" width="192px" height="192px" version="1.1" style="shape-rendering:geometricPrecision; text-rendering:geometricPrecision; image-rendering:optimizeQuality; fill-rule:evenodd; clip-rule:evenodd"
viewBox="0 0 36.98 36.98"
 xmlns:xlink="http://www.w3.org/1999/xlink">
 <defs>
  <style type="text/css">
   <![CDATA[
    .fil0 {fill:none}
    .fil1 {fill:white}
   ]]>
  </style>
 </defs>
 <g id="Camada_x0020_1">
  <metadata id="CorelCorpID_0Corel-Layer"/>
  <g id="_2541483723472">
   <rect class="fil0" width="36.98" height="36.98"/>
   <path class="fil1" d="M8.83 10.33l19.32 0c0.5,0 0.9,0.4 0.9,0.9l0 1.13 1.63 4.58c0.38,1.06 -1.31,1.24 -1.63,0.65l0 12.02c0,0.49 -0.4,0.9 -0.9,0.9l-1.97 0 0 -9.62 -4.86 0 0 9.62 -12.49 0c-0.49,0 -0.9,-0.41 -0.9,-0.9l0 -12.02c-0.32,0.59 -2.01,0.41 -1.63,-0.65l1.63 -4.58 0 -1.13c0,-0.5 0.41,-0.9 0.9,-0.9zm1.9 10.56l7.76 0 0 6.7 -7.76 0 0 -6.7zm0.85 -7.71l-0.76 4.05c-0.12,0.67 -0.93,1.22 -1.61,1.22l0 0c-0.67,0 -1.27,-0.55 -1.1,-1.22l1.02 -4.05 2.45 0zm4.03 0l-0.28 4.05c-0.04,0.67 -0.79,1.22 -1.46,1.22l0 0c-0.68,0 -1.34,-0.55 -1.25,-1.22l0.54 -4.05 2.45 0zm4.08 0l0.12 4.05c0.02,0.67 -0.67,1.22 -1.34,1.22l0 0c-0.68,0 -1.4,-0.55 -1.37,-1.22l0.14 -4.05 2.45 0zm5.66 0l0.76 4.05c0.13,0.67 0.94,1.22 1.61,1.22l0 0c0.67,0 1.27,-0.55 1.1,-1.22l-1.02 -4.05 -2.45 0zm-4.03 0l0.28 4.05c0.04,0.67 0.79,1.22 1.46,1.22l0 0c0.68,0 1.34,-0.55 1.25,-1.22l-0.54 -4.05 -2.45 0zm-12.63 -6.7l19.6 0c0.42,0 0.76,0.34 0.76,0.76l0 1.25c0,0.42 -0.34,0.76 -0.76,0.76l-19.6 0c-0.42,0 -0.76,-0.34 -0.76,-0.76l0 -1.25c0,-0.42 0.34,-0.76 0.76,-0.76z"/>
  </g>
 </g>
</svg>
