<?xml version="1.0" encoding="UTF-8"?>
<!DOCTYPE svg PUBLIC "-//W3C//DTD SVG 1.1//EN" "http://www.w3.org/Graphics/SVG/1.1/DTD/svg11.dtd">
<!-- Creator: CorelDRAW 2018 (64 Bit Versão de avaliação) -->
<svg xmlns="http://www.w3.org/2000/svg" xml:space="preserve" width="192px" height="192px" version="1.1" style="shape-rendering:geometricPrecision; text-rendering:geometricPrecision; image-rendering:optimizeQuality; fill-rule:evenodd; clip-rule:evenodd"
viewBox="0 0 31.99 31.99"
 xmlns:xlink="http://www.w3.org/1999/xlink">
 <defs>
  <style type="text/css">
   <![CDATA[
    .fil0 {fill:none}
    .fil1 {fill:white}
   ]]>
  </style>
 </defs>
 <g id="Camada_x0020_1">
  <metadata id="CorelCorpID_0Corel-Layer"/>
  <g id="_2541607811248">
   <rect class="fil0" width="31.99" height="31.99"/>
   <path class="fil1" d="M7.3 22.27l2.41 2.42 2.16 -2.16c0.73,0.46 1.55,0.8 2.42,1l0 3.05 3.41 0 0 -3.05c0.87,-0.2 1.68,-0.54 2.42,-1l2.15 2.16 2.42 -2.42 -2.16 -2.15c0.47,-0.73 0.82,-1.55 1.02,-2.42l3.03 0 0 -3.41 -3.02 0c-0.2,-0.88 -0.54,-1.71 -1.01,-2.44l2.14 -2.14 -2.42 -2.41 -2.13 2.13c-0.73,-0.47 -1.56,-0.82 -2.44,-1.02l0 -3.01 -3.41 0 0 3.01c-0.88,0.2 -1.71,0.55 -2.45,1.02l-2.13 -2.13 -2.41 2.41 2.13 2.14c-0.46,0.73 -0.81,1.56 -1,2.44l-3.03 0 0 3.41 3.04 0c0.2,0.87 0.54,1.69 1.01,2.42l-2.15 2.15zm8.69 -9.07c1.53,0 2.77,1.24 2.77,2.77 0,1.53 -1.24,2.77 -2.77,2.77 -1.53,0 -2.77,-1.24 -2.77,-2.77 0,-1.53 1.24,-2.77 2.77,-2.77z"/>
  </g>
 </g>
</svg>
