<svg xmlns="http://www.w3.org/2000/svg" width="70" height="70" shape-rendering="geometricPrecision" text-rendering="geometricPrecision" image-rendering="optimizeQuality" fill-rule="evenodd" clip-rule="evenodd" viewBox="0 0 0.72 0.72"><path fill="none" d="M0 0h.72v.72H0z"/><path fill="#fff" d="M.11.08h.04V.04C.15.02.17 0 .2 0h.33l.13.13V.6C.66.63.64.65.62.65H.57v.03C.57.71.55.72.53.72H.11C.08.72.06.71.06.68V.12C.06.1.08.08.11.08zm.04.05H.11v.55h.41V.65H.2C.17.65.15.63.15.6V.13zm.47.03H.5C.49.16.49.16.49.15v-.1H.2V.6h.42V.16zM.25.25h.31c.01 0 .01 0 .01.01v.03S.57.3.56.3H.25V.25zm0 .09h.31c.01 0 .01 0 .01.01v.03s0 .01-.01.01H.25V.34zm0 .09h.31c.01 0 .01.01.01.01v.03c0 .01 0 .01-.01.01H.25V.43zm0-.32h.18c.01 0 .01.01.01.01v.03c0 .01 0 .01-.01.01H.25V.11z"/></svg>