<?xml version="1.0" encoding="UTF-8"?>
<!DOCTYPE svg PUBLIC "-//W3C//DTD SVG 1.1//EN" "http://www.w3.org/Graphics/SVG/1.1/DTD/svg11.dtd">
<!-- Creator: CorelDRAW 2018 (64 Bit Versão de avaliação) -->
<svg xmlns="http://www.w3.org/2000/svg" xml:space="preserve" width="192px" height="192px" version="1.1" style="shape-rendering:geometricPrecision; text-rendering:geometricPrecision; image-rendering:optimizeQuality; fill-rule:evenodd; clip-rule:evenodd"
viewBox="0 0 17.47 17.47"
 xmlns:xlink="http://www.w3.org/1999/xlink">
 <defs>
  <style type="text/css">
   <![CDATA[
    .fil0 {fill:none}
    .fil1 {fill:white}
   ]]>
  </style>
 </defs>
 <g id="Camada_x0020_1">
  <metadata id="CorelCorpID_0Corel-Layer"/>
  <g id="_2541477933952">
   <rect class="fil0" width="17.47" height="17.47"/>
   <path class="fil1" d="M8.73 2.95c3.2,0 5.79,2.59 5.79,5.78 0,3.2 -2.59,5.79 -5.79,5.79 -3.19,0 -5.78,-2.59 -5.78,-5.79 0,-3.19 2.59,-5.78 5.78,-5.78zm0.78 1.81c0.54,0 0.97,0.43 0.97,0.96 0,0.54 -0.43,0.97 -0.97,0.97 -0.53,0 -0.96,-0.43 -0.96,-0.97 0,-0.53 0.43,-0.96 0.96,-0.96zm-2.42 3.13c0.57,-0.27 1.29,-0.54 1.85,-0.45 0.88,0.14 1.1,0.8 0.9,1.64 -0.18,0.74 -0.4,1.47 -0.59,2.21 -0.07,0.27 -0.02,0.48 0.23,0.56 0.25,0.07 0.66,0.01 0.97,-0.09l-0.12 0.55c-0.78,0.32 -1.69,0.6 -2.32,0.2 -0.51,-0.32 -0.57,-0.94 -0.42,-1.56 0.17,-0.65 0.37,-1.29 0.56,-1.93 0.17,-0.56 0.03,-0.85 -0.54,-0.83 -0.13,0 -0.4,0.1 -0.62,0.2l0.1 -0.5z"/>
  </g>
 </g>
</svg>
