<?xml version="1.0" encoding="UTF-8"?>
<!DOCTYPE svg PUBLIC "-//W3C//DTD SVG 1.1//EN" "http://www.w3.org/Graphics/SVG/1.1/DTD/svg11.dtd">
<!-- Creator: CorelDRAW 2017 -->
<svg xmlns="http://www.w3.org/2000/svg" xml:space="preserve" width="72px" height="72px" version="1.1" style="shape-rendering:geometricPrecision; text-rendering:geometricPrecision; image-rendering:optimizeQuality; fill-rule:evenodd; clip-rule:evenodd"
viewBox="0 0 1.77 1.77"
 xmlns:xlink="http://www.w3.org/1999/xlink">
 <defs>
  <style type="text/css">
   <![CDATA[
    .fil0 {fill:none}
    .fil1 {fill:white}
   ]]>
  </style>
 </defs>
 <g id="Camada_x0020_1">
  <metadata id="CorelCorpID_0Corel-Layer"/>
  <g id="_1241732192">
   <rect class="fil0" width="1.77" height="1.77"/>
   <path class="fil1" d="M1.21 1.21l-0.63 0 0 -0.07 0.63 0 0 0.07zm0 -0.15l-0.63 0 0 -0.07 0.63 0 0 0.07zm0 -0.14l-0.63 0 0 -0.07 0.63 0 0 0.07zm0 -0.14l-0.63 0 0 -0.07 0.63 0 0 0.07zm0 -0.14l-0.63 0 0 -0.07 0.63 0 0 0.07zm0 -0.14l-0.63 0 0 -0.07 0.63 0 0 0.07zm-0.77 -0.2l0.89 0c0.01,0 0.02,0.01 0.02,0.02l0 0.37 0 0.76c0,0.02 -0.01,0.03 -0.02,0.03l-0.89 0c-0.01,0 -0.02,-0.01 -0.02,-0.03l0 -1.13c0,-0.01 0.01,-0.02 0.02,-0.02l0 0z"/>
  </g>
 </g>
</svg>
