<?xml version="1.0" encoding="UTF-8"?>
<!DOCTYPE svg PUBLIC "-//W3C//DTD SVG 1.1//EN" "http://www.w3.org/Graphics/SVG/1.1/DTD/svg11.dtd">
<!-- Creator: CorelDRAW 2017 -->
<svg xmlns="http://www.w3.org/2000/svg" xml:space="preserve" width="72px" height="72px" version="1.1" style="shape-rendering:geometricPrecision; text-rendering:geometricPrecision; image-rendering:optimizeQuality; fill-rule:evenodd; clip-rule:evenodd"
viewBox="0 0 1.24 1.24"
 xmlns:xlink="http://www.w3.org/1999/xlink">
 <defs>
  <style type="text/css">
   <![CDATA[
    .fil0 {fill:none}
    .fil1 {fill:white}
   ]]>
  </style>
 </defs>
 <g id="Camada_x0020_1">
  <metadata id="CorelCorpID_0Corel-Layer"/>
  <g id="_1253039504">
   <rect class="fil0" width="1.24" height="1.24"/>
   <path class="fil1" d="M0.45 0.79l0 0.2 -0.2 0 0.08 -0.08c-0.08,-0.08 -0.12,-0.19 -0.12,-0.3 0,-0.1 0.04,-0.2 0.12,-0.28 0.1,-0.11 0.26,-0.15 0.39,-0.11l0 0.07c-0.12,-0.04 -0.25,-0.01 -0.34,0.09 -0.07,0.06 -0.1,0.15 -0.1,0.24 0,0.09 0.03,0.18 0.1,0.24l0.07 -0.07zm0.34 -0.54l0.2 0 -0.08 0.08c0.07,0.07 0.11,0.15 0.12,0.24 0.02,0.12 -0.02,0.25 -0.12,0.34 -0.1,0.11 -0.26,0.15 -0.39,0.11l0 -0.07c0.12,0.04 0.25,0.01 0.34,-0.09 0.08,-0.08 0.12,-0.19 0.1,-0.29 -0.01,-0.07 -0.04,-0.14 -0.1,-0.19l-0.07 0.07 0 -0.2z"/>
  </g>
 </g>
</svg>
