<?xml version="1.0" encoding="UTF-8"?>
<!DOCTYPE svg PUBLIC "-//W3C//DTD SVG 1.1//EN" "http://www.w3.org/Graphics/SVG/1.1/DTD/svg11.dtd">
<!-- Creator: CorelDRAW 2017 -->
<svg xmlns="http://www.w3.org/2000/svg" xml:space="preserve" width="192px" height="192px" version="1.1" style="shape-rendering:geometricPrecision; text-rendering:geometricPrecision; image-rendering:optimizeQuality; fill-rule:evenodd; clip-rule:evenodd"
viewBox="0 0 5.43 5.43"
 xmlns:xlink="http://www.w3.org/1999/xlink">
 <defs>
  <style type="text/css">
   <![CDATA[
    .fil0 {fill:none}
    .fil1 {fill:white}
   ]]>
  </style>
 </defs>
 <g id="Camada_x0020_1">
  <metadata id="CorelCorpID_0Corel-Layer"/>
  <rect class="fil0" width="5.43" height="5.43"/>
 </g>
 <g id="Camada_x0020_1_0">
  <metadata id="CorelCorpID_1Corel-Layer"/>
  <path class="fil1" d="M1.06 1.06l0 3.3 3.3 0 0 -3.3 -3.3 0zm0 -0.53l3.31 0c0.29,0 0.53,0.24 0.53,0.53l0 3.31c0,0.29 -0.24,0.53 -0.53,0.53l-3.31 0c-0.29,0 -0.53,-0.24 -0.53,-0.53l0 -3.31c0,-0.29 0.24,-0.53 0.53,-0.53zm0.91 2.06c-0.11,-0.11 -0.23,-0.21 -0.34,-0.31 -0.04,-0.03 -0.1,-0.08 -0.14,-0.02 -0.05,0.08 -0.12,0.32 -0.12,0.43 0,0.05 0.01,0.05 0.04,0.08 0.09,0.07 0.18,0.15 0.26,0.23 0.15,0.13 0.28,0.29 0.4,0.45 0.05,0.06 0.09,0.12 0.14,0.18 0.02,0.03 0.04,0.06 0.06,0.07 0.04,0.03 0.07,0.01 0.12,-0.05 0.08,-0.1 0.16,-0.2 0.23,-0.29 0.18,-0.24 0.36,-0.46 0.56,-0.67 0.17,-0.18 0.37,-0.35 0.57,-0.5 0.09,-0.07 0.18,-0.13 0.27,-0.2 0.03,-0.02 0.06,-0.06 0.01,-0.07 -0.16,-0.05 -0.46,-0.19 -0.62,-0.21 -0.06,0 -0.05,0 -0.08,0.03 -0.08,0.08 -0.22,0.21 -0.35,0.34 -0.22,0.23 -0.38,0.47 -0.54,0.73 -0.02,0.03 -0.05,0.1 -0.08,0.12 -0.02,0.02 -0.04,0.03 -0.06,0.02 -0.05,-0.02 -0.25,-0.27 -0.33,-0.36z"/>
 </g>
</svg>
