<svg xmlns="http://www.w3.org/2000/svg" width="64" height="64" viewBox="0 0 1.58 1.58" shape-rendering="geometricPrecision" text-rendering="geometricPrecision" image-rendering="optimizeQuality" fill-rule="evenodd" clip-rule="evenodd"><path d="M1.19.81L1.33.7c.04-.04.05-.03 0-.06L1.17.53 1.26.4c.02-.03.02-.06.02-.09-.01-.03-.02-.06-.05-.07C1.2.22 1.17.21 1.14.22c-.03 0-.06.02-.07.05L1.05.3c-.01.01-.01.03.01.04.01.01.03.01.04-.01l.02-.02c.01-.02.02-.02.03-.03.02 0 .03 0 .04.01.01.01.02.02.02.03 0 .02 0 .03-.01.04L1.11.5.95.39C.9.35.91.35.9.41.86.53.83.66.79.78v.03h.4zM.55.42l.23.39H.67L.69.8V.79L.67.75H.66L.62.77v.01l.01.03H.48V.8L.46.76H.45L.41.78v.01l.01.02H.34L.23.61C.15.48.48.29.55.42zM.41.44v.01S.41.46.4.46L.34.5C.33.5.33.5.32.49c0 0 0-.01.01-.01L.39.44h.02zM.5.46l.09.16v.01l-.2.11c0 .01-.01 0-.01 0L.29.59V.57l.2-.11H.5zm.04.25l.02.05-.04.03S.51.79.51.78L.49.74.53.71h.01zM.62.67l.02.04L.6.74H.59L.57.69.61.66c.01 0 .01 0 .01.01zM.36.85h.8c.02 0 .04.02.04.04l-.01.43c0 .03-.02.04-.04.04H.37c-.02 0-.04-.01-.04-.04L.32.89C.32.87.34.85.36.85zm.4.36c.02 0 .04.01.04.04 0 .02-.02.04-.04.04s-.04-.02-.04-.04c0-.03.02-.04.04-.04zm-.12-.16C.63.99.67.95.71.93.75.91.82.93.85.95c.05.04.06.15-.04.19-.03.01-.01.01-.02.03H.73v-.08c.03-.01.05 0 .08-.02C.85 1.03.8.97.74.99c-.03.01-.03.03-.04.06H.64z" fill="#fff"/><path fill="none" d="M0 0h1.58v1.58H0z"/></svg>