<svg xmlns="http://www.w3.org/2000/svg" width="72" height="72" viewBox="0 0 0.89 0.89" shape-rendering="geometricPrecision" text-rendering="geometricPrecision" image-rendering="optimizeQuality" fill-rule="evenodd" clip-rule="evenodd"><path fill="none" d="M0 0h.89v.89H0z"/><path d="M.46.12C.48.13.5.15.5.18.5.19.5.19.51.2.6.22.66.3.66.4v.16c0 .01 0 .02.01.03C.69.6.7.62.72.63c.01.01 0 .03 0 .04H.19C.18.67.17.68.17.67s0-.03.01-.04L.22.59C.23.58.23.57.23.56V.4C.23.3.29.23.38.2.39.19.4.19.4.18.4.15.41.13.43.12h.03zM.43.77C.41.76.39.75.38.72.38.71.38.7.4.7h.1C.51.7.51.71.51.72.5.75.49.76.46.77H.43z" fill="#fff" fill-rule="nonzero"/></svg>