<svg xmlns="http://www.w3.org/2000/svg" width="72" height="72" viewBox="0 0 0.73 0.73" shape-rendering="geometricPrecision" text-rendering="geometricPrecision" image-rendering="optimizeQuality" fill-rule="evenodd" clip-rule="evenodd"><path d="M.36.29c.06 0 .1.04.1.09a.1.1 0 0 1-.1.1C.31.48.27.43.27.38S.31.29.36.29zm0-.03c.07 0 .12.06.12.12C.48.45.43.5.36.5.3.5.24.45.24.38.24.32.3.26.36.26zM.13.22h.11C.24.2.26.2.26.19.27.17.28.16.3.16h.13c.02 0 .03.01.03.03C.47.2.49.2.49.22H.6c.01 0 .03.01.03.03v.28C.63.55.61.57.6.57H.13C.11.57.1.55.1.53V.25C.1.23.11.22.13.22zm.4.03c.02 0 .03.01.03.02S.55.29.53.29C.52.29.51.28.51.27S.52.25.53.25zM.15.17H.2v.02H.15V.17z" fill="#fff"/><path fill="none" d="M0 0h.73v.73H0z"/></svg>