<svg xmlns="http://www.w3.org/2000/svg" width="64" height="64" shape-rendering="geometricPrecision" text-rendering="geometricPrecision" image-rendering="optimizeQuality" fill-rule="evenodd" clip-rule="evenodd" viewBox="0 0 1.31 1.31"><path fill="none" d="M1.31 1.31H0V0h1.31z"/><path fill="#fff" d="M.38.64C.38.63.37.62.36.62H.28C.27.62.27.63.27.64c0 0 0 .01.01.01h.08C.37.65.38.64.38.64zm.49.25H.85L.65.67H.64C.63.67.62.67.62.66.6.65.6.63.62.62L.76.46C.77.44.79.44.8.45.82.47.82.49.81.5L.67.65l.21.22s0 .01-.01.02zM.85.97C.85.98.84.98.83.98S.82.98.82.97s0-.02.01-.02.02.01.02.02zm-.36 0c0 .01 0 .01-.01.01S.46.98.46.97.47.95.48.95s.01.01.01.02zM.98.83C.98.84.97.85.96.85S.95.84.95.83s0-.02.01-.02.02.01.02.02zm-.6 0C.38.84.37.85.36.85S.35.84.35.83s0-.02.01-.02.02.01.02.02zM.85.34C.85.35.84.36.83.36S.81.35.81.34.82.32.83.32s.02.01.02.02zm-.36 0c0 .01 0 .02-.01.02S.46.35.46.34.47.32.48.32s.01.01.01.02zm.49.14C.98.49.97.49.96.49S.94.49.94.48.95.46.96.46s.02.01.02.02zm-.6 0C.38.49.37.49.36.49S.34.49.34.48.35.46.36.46s.02.01.02.02zm.27.45L.64.94v.08c0 .01.01.02.01.02.01 0 .02-.01.02-.02V.94S.66.93.65.93zm0-.55C.66.38.67.37.67.36V.28C.67.27.66.27.65.27c0 0-.01 0-.01.01v.08c0 .01.01.02.01.02zm.28.26l.01.01h.08c.01 0 .02-.01.02-.01 0-.01-.01-.02-.02-.02H.94S.93.63.93.64zM.65.2C.4.2.2.4.2.65s.2.45.45.45.45-.2.45-.45S.9.2.65.2zm0 .86c-.22 0-.4-.18-.4-.41 0-.22.18-.4.4-.4a.406.406 0 0 1 0 .81z"/></svg>