<svg xmlns="http://www.w3.org/2000/svg" width="64" height="64" shape-rendering="geometricPrecision" text-rendering="geometricPrecision" image-rendering="optimizeQuality" fill-rule="evenodd" clip-rule="evenodd" viewBox="0 0 0.88 0.88"><path fill="none" d="M0 0h.88v.88H0z"/><path fill="#fff" d="M.19.12H.5c.03 0 .06.02.06.06H.52C.52.16.51.16.5.16H.19C.18.16.17.16.17.18v.43c0 .01.01.02.02.02h.09v.03H.19C.16.66.13.64.13.61V.18C.13.14.16.12.19.12zm.18.09h.21c.05.06.11.11.16.17V.7C.74.73.72.76.69.76H.37C.34.76.32.73.32.7V.27C.32.24.34.21.37.21zm.32.16H.64C.6.37.58.35.58.32V.26L.56.25H.37C.36.25.35.26.35.27V.7c0 .01.01.02.02.02h.32C.7.72.71.71.71.7V.39L.69.37zm-.26.2L.49.51a.06.06 0 0 1 .08 0L.55.53a.03.03 0 0 0-.04 0L.45.59C.44.6.44.61.45.62c.01.01.03.01.04 0L.5.61c.01.01.02.01.04.01L.51.64C.49.66.46.66.43.64a.048.048 0 0 1 0-.07zm.2-.05L.57.58C.55.6.52.6.5.58H.49L.52.56c.01.01.02.01.03 0L.61.5C.62.49.62.48.61.47a.03.03 0 0 0-.04 0L.56.48C.55.47.54.47.53.47L.55.45a.06.06 0 0 1 .08 0C.65.47.65.5.63.52z"/></svg>