<svg xmlns="http://www.w3.org/2000/svg" width="64" height="64" shape-rendering="geometricPrecision" text-rendering="geometricPrecision" image-rendering="optimizeQuality" fill-rule="evenodd" clip-rule="evenodd" viewBox="0 0 0.67 0.67"><path fill="none" d="M0 0h.67v.67H0z"/><path fill="#fff" fill-rule="nonzero" d="M.26.26C.25.26.25.25.24.25S.23.24.22.24C.21.25.2.25.19.26H.18c.01 0 .01.01.01.01.01 0 .02.01.03.01h.01C.24.27.25.27.26.26zM.24.27H.2V.25h.03c.01 0 .01 0 .01.01v.01z"/><path fill="#fff" fill-rule="nonzero" d="M.11.2v.27h.46V.2H.11zm.16.09V.3C.26.29.25.29.24.29H.22C.23.29.24.3.25.31.25.32.24.32.24.33.23.33.23.34.22.34v.01C.21.34.21.34.21.33.2.33.19.32.19.32L.17.3.16.29C.17.28.17.27.18.26H.17L.15.28H.14C.14.27.13.27.13.27.14.26.15.25.16.25.17.24.17.24.18.24h.04C.21.24.2.23.2.23.21.23.21.23.22.22c.01.01.02.01.04.02v.02S.27.25.28.25.3.26.31.26v.01C.3.27.3.27.29.28c0 0-.01.01-.02.01zM.55.4H.3V.38h.25V.4zm0-.04H.34V.35h.21v.01zm0-.03H.33V.31h.22v.02z"/></svg>