<svg xmlns="http://www.w3.org/2000/svg" width="64" height="64" shape-rendering="geometricPrecision" text-rendering="geometricPrecision" image-rendering="optimizeQuality" fill-rule="evenodd" clip-rule="evenodd" viewBox="0 0 0.76 0.76"><path fill="none" d="M0 0h.76v.76H0z"/><path fill="#fff" d="M.21.5h.08v.06H.21V.5zm0-.08h.08C.28.44.28.46.28.47H.21V.42zm0-.09h.08v.06H.21V.33zm.12 0h.08v.06H.37A.076.076 0 0 0 .33.37V.33zm.12 0h.09v.01L.52.36.49.39H.45V.33zM.17.27h.4v.04C.58.3.59.29.61.3V.22C.61.2.59.18.57.18H.53V.2C.53.22.51.24.49.24.46.24.44.22.44.2V.18H.3V.2C.3.22.28.24.26.24S.22.22.22.2V.18H.18C.15.18.13.2.13.22v.37c0 .03.02.05.05.05h.23C.41.63.41.63.4.63.4.62.39.61.38.6H.17V.27zm.4.25V.6H.51L.49.63C.48.63.48.63.48.64h.09C.59.64.61.62.61.59V.48C.61.49.6.49.6.49L.57.52zM.49.12C.5.12.52.13.52.15V.2C.52.21.5.23.49.23.47.23.46.21.46.2V.15C.46.13.47.12.49.12zm-.23 0c.02 0 .03.01.03.03V.2C.29.21.28.23.26.23.24.23.23.21.23.2V.15C.23.13.24.12.26.12zM.4.46C.38.44.36.43.35.41.34.41.33.4.33.41.32.42.31.45.31.47c0 .01 0 .01.01.01.01.01.02.02.03.04.03.02.04.04.06.06.01.01.02.02.02.03.01 0 .01.01.01.01.01 0 .01 0 .02-.01S.48.58.49.57C.52.53.54.5.57.47.6.45.63.42.66.4L.69.37C.7.37.7.36.7.36.67.35.63.33.61.33H.59L.54.38C.51.42.49.45.47.49.46.49.46.5.45.51.44.51.41.47.4.46z"/></svg>