<svg xmlns="http://www.w3.org/2000/svg" width="72" height="72" viewBox="0 0 1.17 1.17" shape-rendering="geometricPrecision" text-rendering="geometricPrecision" image-rendering="optimizeQuality" fill-rule="evenodd" clip-rule="evenodd"><path fill="none" d="M0 0h1.17v1.17H0z"/><path d="M.29.37h.59C.9.37.93.35.93.32V.31C.93.29.9.26.88.26H.66V.23C.66.19.63.16.59.16H.58C.54.16.5.19.5.23v.03H.29C.26.26.24.29.24.31v.01c0 .03.02.05.05.05zm0 .05h.58V.9c0 .06-.05.11-.11.11H.4C.34 1.01.29.96.29.9V.42zm.13.11c.02 0 .03.01.03.03v.31C.45.89.44.9.42.9.41.9.4.89.4.87V.56C.4.54.41.53.42.53zm.16 0C.6.53.61.54.61.56v.31C.61.89.6.9.58.9.57.9.56.89.56.87V.56C.56.54.57.53.58.53zm.16 0c.02 0 .03.01.03.03v.31C.77.89.76.9.74.9.73.9.72.89.72.87V.56C.72.54.73.53.74.53z"/></svg>