<svg xmlns="http://www.w3.org/2000/svg" width="64" height="64" shape-rendering="geometricPrecision" text-rendering="geometricPrecision" image-rendering="optimizeQuality" fill-rule="evenodd" clip-rule="evenodd" viewBox="0 0 0.84 0.84"><path fill="none" d="M0 0h.84v.84H0z"/><path fill="#fff" d="M.24.56H.6v.06H.24V.56zm0-.1H.6v.07H.24V.46zM.37.37H.6v.06H.37V.37zM.2.3h.44v.36H.2V.3zM.54.13c.02 0 .04.02.04.04v.05C.58.24.56.25.54.25.53.25.51.24.51.22V.17C.51.15.53.13.54.13zm-.25 0c.02 0 .04.02.04.04v.05C.33.24.31.25.29.25.28.25.26.24.26.22V.17C.26.15.28.13.29.13zM.2.2h.05v.02c0 .02.02.04.04.04C.32.26.34.24.34.22V.2H.5v.02c0 .02.02.04.04.04C.57.26.59.24.59.22V.2h.04C.66.2.68.22.68.25v.41C.68.68.66.7.63.7H.2C.18.7.15.68.15.66V.25C.15.22.18.2.2.2zm.08.24L.24.4.26.38.28.4.33.35l.02.01-.07.08z"/></svg>