<?xml version="1.0" encoding="UTF-8"?>
<!DOCTYPE svg PUBLIC "-//W3C//DTD SVG 1.1//EN" "http://www.w3.org/Graphics/SVG/1.1/DTD/svg11.dtd">
<!-- Creator: CorelDRAW 2017 -->
<svg xmlns="http://www.w3.org/2000/svg" xml:space="preserve" width="64px" height="64px" version="1.1" style="shape-rendering:geometricPrecision; text-rendering:geometricPrecision; image-rendering:optimizeQuality; fill-rule:evenodd; clip-rule:evenodd"
viewBox="0 0 0.92 0.92"
 xmlns:xlink="http://www.w3.org/1999/xlink">
 <defs>
  <style type="text/css">
   <![CDATA[
    .fil0 {fill:none}
    .fil1 {fill:white}
   ]]>
  </style>
 </defs>
 <g id="Camada_x0020_1">
  <metadata id="CorelCorpID_0Corel-Layer"/>
  <g id="_1171582688">
   <rect class="fil0" width="0.92" height="0.92"/>
   <path class="fil1" d="M0.48 0.23l0.28 0c0.02,0 0.03,0.01 0.03,0.03l0 0.32c0,0.01 -0.01,0.02 -0.02,0.03l0 -0.27c0,-0.03 -0.03,-0.06 -0.06,-0.06l-0.27 0 -0.04 -0.04c-0.01,-0.02 -0.03,-0.04 -0.05,-0.04l-0.12 0 0 -0.02c0,-0.02 0.01,-0.03 0.03,-0.03l0.14 0c0.02,0 0.02,0.01 0.03,0.02l0.05 0.06zm-0.11 0.16l0.29 0c0.01,0 0.03,0.02 0.03,0.03l0 0.32c0,0.02 -0.02,0.03 -0.03,0.03l-0.5 0c-0.02,0 -0.03,-0.01 -0.03,-0.03l0 -0.35 0 -0.05c0,-0.01 0.01,-0.03 0.02,-0.03l0.15 0c0.01,0 0.02,0.01 0.03,0.03l0.04 0.05zm0.06 -0.08l0.28 0c0.02,0 0.03,0.02 0.03,0.03l0 0.32c0,0.01 -0.01,0.02 -0.02,0.03l0 -0.27c0,-0.03 -0.03,-0.05 -0.06,-0.05l-0.27 0 -0.04 -0.05c-0.02,-0.02 -0.03,-0.03 -0.05,-0.03l-0.12 0 0 -0.03c0,-0.01 0.01,-0.03 0.03,-0.03l0.14 0c0.01,0 0.02,0.01 0.03,0.03l0.05 0.05z"/>
  </g>
 </g>
</svg>
