<svg xmlns="http://www.w3.org/2000/svg" width="64" height="64" shape-rendering="geometricPrecision" text-rendering="geometricPrecision" image-rendering="optimizeQuality" fill-rule="evenodd" clip-rule="evenodd" viewBox="0 0 0.87 0.87"><path fill="none" d="M0 0h.87v.87H0z"/><path fill="#fff" d="M.21.2h.05v.03c0 .02.02.04.04.04C.33.27.35.25.35.23V.2h.17v.03c0 .02.02.04.04.04C.59.27.61.25.61.23V.2h.05C.68.2.71.23.71.25v.43C.71.71.68.73.66.73H.21C.18.73.16.71.16.68V.25C.16.23.18.2.21.2zM.3.14c.02 0 .04.01.04.03v.06C.34.24.32.26.3.26.29.26.27.24.27.23V.17C.27.15.29.14.3.14zm.26 0C.58.14.6.15.6.17v.06C.6.24.58.26.56.26S.53.24.53.23V.17C.53.15.54.14.56.14zM.2.31h.46v.37H.2V.31zm.05.07h.37v.07H.25V.38zm0 .1h.37v.06H.25V.48zm0 .1h.23v.06H.25V.58zm.3.03L.51.65h.02L.57.62l.01.03h.03L.59.61.63.57H.61L.58.6.57.57H.54l.01.04z"/></svg>