<?xml version="1.0" encoding="UTF-8"?>
<!DOCTYPE svg PUBLIC "-//W3C//DTD SVG 1.1//EN" "http://www.w3.org/Graphics/SVG/1.1/DTD/svg11.dtd">
<!-- Creator: CorelDRAW 2018 (64 Bit Versão de avaliação) -->
<svg xmlns="http://www.w3.org/2000/svg" xml:space="preserve" width="72px" height="72px" version="1.1" style="shape-rendering:geometricPrecision; text-rendering:geometricPrecision; image-rendering:optimizeQuality; fill-rule:evenodd; clip-rule:evenodd"
viewBox="0 0 1.34 1.34"
 xmlns:xlink="http://www.w3.org/1999/xlink">
 <defs>
  <style type="text/css">
   <![CDATA[
    .fil0 {fill:none}
    .fil1 {fill:white}
   ]]>
  </style>
 </defs>
 <g id="Camada_x0020_1">
  <metadata id="CorelCorpID_0Corel-Layer"/>
  <g id="_1625720705136">
   <rect class="fil0" width="1.34" height="1.34"/>
   <path class="fil1" d="M0.7 0.78l-0.12 0 0 -0.15 0.12 0c0,-0.03 0,-0.12 0.01,-0.15 0,-0.04 0.02,-0.08 0.04,-0.1 0.03,-0.02 0.06,-0.04 0.11,-0.05 0.03,0 0.11,0 0.14,0.01 0.01,0 0,0 0,0 0,0.02 0.01,0.12 0,0.13l-0.08 0c-0.02,0 -0.04,0 -0.05,0.01 -0.01,0.01 -0.01,0.02 -0.01,0.04 -0.01,0.02 -0.01,0.09 -0.01,0.11l0.15 0 -0.02 0.15 -0.13 0 0 0.38 0.25 0c0.03,0 0.06,-0.03 0.06,-0.06l0 -0.86c0,-0.03 -0.02,-0.04 -0.03,-0.05 -0.01,0 -0.02,-0.01 -0.02,-0.01l-0.88 0c-0.01,0 -0.03,0.01 -0.04,0.02 0,0.01 -0.01,0.02 -0.01,0.03l0 0.88c0,0.02 0.03,0.05 0.06,0.05l0.46 0 0 -0.38z"/>
  </g>
 </g>
</svg>
