<?xml version="1.0" encoding="UTF-8"?>
<!DOCTYPE svg PUBLIC "-//W3C//DTD SVG 1.1//EN" "http://www.w3.org/Graphics/SVG/1.1/DTD/svg11.dtd">
<!-- Creator: CorelDRAW 2018 (64 Bit Versão de avaliação) -->
<svg xmlns="http://www.w3.org/2000/svg" xml:space="preserve" width="72px" height="72px" version="1.1" style="shape-rendering:geometricPrecision; text-rendering:geometricPrecision; image-rendering:optimizeQuality; fill-rule:evenodd; clip-rule:evenodd"
viewBox="0 0 1.39 1.39"
 xmlns:xlink="http://www.w3.org/1999/xlink">
 <defs>
  <style type="text/css">
   <![CDATA[
    .fil0 {fill:none}
    .fil1 {fill:white}
   ]]>
  </style>
 </defs>
 <g id="Camada_x0020_1">
  <metadata id="CorelCorpID_0Corel-Layer"/>
  <g id="_1625700707488">
   <rect class="fil0" width="1.39" height="1.39"/>
   <path class="fil1" d="M0.53 0.69c0,0.05 0.01,0.09 0.05,0.12 0.01,0.02 0.02,0.03 0.04,0.04 0.12,0.05 0.24,-0.04 0.24,-0.14 0,-0.05 -0.01,-0.09 -0.05,-0.13 -0.06,-0.06 -0.17,-0.06 -0.23,0 -0.02,0.02 -0.05,0.06 -0.05,0.11zm-0.25 -0.2l0 0.41c0,0.11 0.1,0.22 0.21,0.22l0.41 0c0.06,0 0.12,-0.04 0.15,-0.07 0.03,-0.03 0.07,-0.09 0.07,-0.15l0 -0.41c0,-0.11 -0.11,-0.21 -0.22,-0.21l-0.41 0c-0.11,0 -0.21,0.1 -0.21,0.21zm0.63 -0.07c0,-0.08 0.13,-0.08 0.13,0 0,0.08 -0.13,0.08 -0.13,0zm-0.46 0.29c0,-0.06 0,-0.11 0.04,-0.16 0.02,-0.02 0.04,-0.04 0.06,-0.06 0.01,-0.01 0.02,-0.01 0.04,-0.02 0.08,-0.04 0.2,-0.03 0.27,0.03l0.03 0.03c0.01,0.02 0.03,0.04 0.03,0.06 0.04,0.06 0.04,0.15 0,0.22 0,0.01 -0.01,0.02 -0.02,0.03 -0.02,0.04 -0.05,0.06 -0.09,0.08 -0.09,0.05 -0.21,0.03 -0.27,-0.03l-0.02 -0.01c-0.04,-0.04 -0.07,-0.11 -0.07,-0.17zm-0.26 0.2l0 -0.43c0,-0.04 0.02,-0.09 0.03,-0.11 0.01,-0.03 0.04,-0.07 0.06,-0.09 0.05,-0.05 0.13,-0.09 0.2,-0.09l0.43 0c0.07,0 0.16,0.04 0.2,0.09 0.01,0.01 0.01,0.01 0.02,0.02 0.02,0.02 0.03,0.04 0.04,0.07 0.02,0.02 0.03,0.07 0.03,0.11l0 0.43c0,0.06 -0.02,0.12 -0.05,0.16 -0.03,0.04 -0.03,0.04 -0.05,0.06 -0.05,0.04 -0.13,0.07 -0.19,0.07l-0.43 0c-0.05,0 -0.12,-0.02 -0.16,-0.05l-0.07 -0.08c-0.01,-0.01 -0.02,-0.02 -0.03,-0.04 -0.01,-0.03 -0.03,-0.08 -0.03,-0.12z"/>
  </g>
 </g>
</svg>
