<?xml version="1.0" encoding="UTF-8"?>
<!DOCTYPE svg PUBLIC "-//W3C//DTD SVG 1.1//EN" "http://www.w3.org/Graphics/SVG/1.1/DTD/svg11.dtd">
<!-- Creator: CorelDRAW 2017 -->
<svg xmlns="http://www.w3.org/2000/svg" xml:space="preserve" width="64px" height="64px" version="1.1" style="shape-rendering:geometricPrecision; text-rendering:geometricPrecision; image-rendering:optimizeQuality; fill-rule:evenodd; clip-rule:evenodd"
viewBox="0 0 1 1"
 xmlns:xlink="http://www.w3.org/1999/xlink">
 <defs>
  <style type="text/css">
   <![CDATA[
    .fil0 {fill:none}
    .fil1 {fill:white}
   ]]>
  </style>
 </defs>
 <g id="Camada_x0020_1">
  <metadata id="CorelCorpID_0Corel-Layer"/>
  <g id="_1172226880">
   <rect class="fil0" width="1" height="1"/>
   <path class="fil1" d="M0.81 0.43l-0.17 0.18c-0.07,0.07 -0.18,0.07 -0.25,0l0 0c0,0 -0.01,-0.01 -0.01,-0.01l0.07 -0.06c0,0 0,0 0.01,0.01l0 0c0.03,0.03 0.08,0.03 0.11,0l0.18 -0.18c0.03,-0.03 0.03,-0.09 0,-0.12l0 0c-0.03,-0.03 -0.09,-0.03 -0.12,0l-0.03 0.04c-0.04,-0.02 -0.07,-0.03 -0.11,-0.03l0.08 -0.07c0.07,-0.07 0.18,-0.07 0.24,0l0 0c0.07,0.07 0.07,0.18 0,0.24zm-0.62 0.14l0.17 -0.18c0.07,-0.07 0.18,-0.07 0.25,0l0 0c0,0 0.01,0.01 0.01,0.01l-0.07 0.07c0,-0.01 0,-0.01 0,-0.01l0 0c-0.04,-0.04 -0.09,-0.04 -0.12,0l-0.18 0.17c-0.03,0.03 -0.03,0.09 0,0.12l0 0c0.03,0.03 0.09,0.03 0.12,0l0.03 -0.04c0.04,0.02 0.07,0.03 0.11,0.03l-0.08 0.07c-0.06,0.07 -0.17,0.07 -0.24,0l0 0c-0.07,-0.06 -0.07,-0.17 0,-0.24z"/>
  </g>
 </g>
</svg>
