<svg xmlns="http://www.w3.org/2000/svg" width="64" height="64" shape-rendering="geometricPrecision" text-rendering="geometricPrecision" image-rendering="optimizeQuality" fill-rule="evenodd" clip-rule="evenodd" viewBox="0 0 0.57 0.57"><path fill="none" d="M.57.57H0V0h.57z"/><path fill="#fff" fill-rule="nonzero" d="M.28.48H.1C.09.48.09.48.09.46S.1.42.12.41C.15.4.18.38.21.37.23.37.23.37.23.34V.32C.22.31.22.29.21.28.2.26.2.24.2.22.19.2.19.18.19.16.2.13.21.12.23.1.26.08.3.08.34.1c.03.02.04.05.03.09v.02c0 .02 0 .03-.01.04v.03C.35.29.35.3.34.31.33.33.33.35.34.36c0 .01.01.01.01.01.04.01.08.03.11.05.01.01.02.04.02.05C.48.48.47.48.47.48H.28z"/></svg>