<svg xmlns="http://www.w3.org/2000/svg" width="64" height="64" shape-rendering="geometricPrecision" text-rendering="geometricPrecision" image-rendering="optimizeQuality" fill-rule="evenodd" clip-rule="evenodd" viewBox="0 0 1.68 1.68"><path fill="none" d="M0 0h1.68v1.68H0z"/><path fill="#9C1C3A" d="M.41.24C.42.22.43.2.44.2.46.18.47.19.5.23c.04.06.16.25.19.3.02.04.05.08.07.12.12-.15.23-.27.27-.3.02-.02.01-.02.04-.02.08.01.24.08.32.11.03 0 .01.02 0 .03-.05.04-.1.07-.14.11-.11.08-.21.16-.3.26L.92.87C.94.89.95.9.96.92c.08.1.18.2.27.29.04.04.09.07.13.11.02.02.03.04.01.05-.08.02-.23.1-.31.11-.02 0-.02 0-.03-.02-.04-.05-.16-.2-.28-.38-.03.03-.06.07-.09.1-.04.05-.17.23-.21.28-.02.03-.04.04-.06.03-.01-.01-.02-.03-.03-.04-.08-.06-.1-.11-.08-.17.02-.06.16-.24.31-.43C.47.66.35.48.34.42.32.36.33.3.41.24z"/></svg>