<svg xmlns="http://www.w3.org/2000/svg" width="64" height="64" shape-rendering="geometricPrecision" text-rendering="geometricPrecision" image-rendering="optimizeQuality" fill-rule="evenodd" clip-rule="evenodd" viewBox="0 0 0.72 0.72"><path fill="#fff" d="M.46.54L.43.51.44.5l.02.01.05-.04.01.01-.06.06zM.17.17h.04v.02c0 .02.02.04.04.04S.29.21.29.19V.17h.14v.02c0 .02.02.04.04.04S.51.21.51.19V.17h.04c.02 0 .04.02.04.04v.35C.59.59.57.6.55.6H.17C.15.6.13.59.13.56V.21C.13.19.15.17.17.17zM.25.11c.02 0 .03.02.03.03v.05C.28.2.27.22.25.22.24.22.22.2.22.19V.14C.22.13.24.11.25.11zm.22 0C.48.11.5.13.5.14v.05C.5.2.48.22.47.22.45.22.44.2.44.19V.14C.44.13.45.11.47.11zm-.3.15h.38v.31H.17V.26zM.2.32h.08v.05H.2V.32zm.12 0h.2v.05h-.2V.32zM.2.4h.32v.05H.2V.4zm0 .08h.2v.05H.2V.48z"/><path fill="none" d="M0 0h.72v.72H0z"/></svg>