<svg xmlns="http://www.w3.org/2000/svg" width="64" height="64" viewBox="0 0 0.8 0.8" shape-rendering="geometricPrecision" text-rendering="geometricPrecision" image-rendering="optimizeQuality" fill-rule="evenodd" clip-rule="evenodd"><path fill="none" d="M0 0h.8v.8H0z"/><path d="M.11.6V.35c0-.04.04-.08.1-.08h.23C.51.21.58.16.64.11.62.16.6.21.57.27h.02c.05 0 .1.04.1.08V.6c0 .05-.05.09-.1.09H.21C.15.69.11.65.11.6zM.46.55H.4C.39.53.38.52.37.51.37.5.36.49.35.48H.34v.05s.01 0 .01.01h.01v.01H.28V.54h.01C.3.54.3.53.3.53V.4H.28V.39h.09C.39.39.4.39.41.4.42.4.43.41.43.42c0 .02 0 .03-.01.03C.41.46.4.46.39.47l.02.02c0 .01.01.02.02.03l.01.01.01.01h.01v.01zM.38.43V.4H.34v.06h.04V.43zm.14.03s0 .01-.01.01C.51.48.5.48.5.48.49.48.49.48.48.47L.47.46C.47.45.48.45.48.44.49.44.49.43.5.43l.01.01c.01.01.01.01.01.02zm0 .07c0 .01 0 .01-.01.01C.51.55.5.55.5.55.49.55.49.55.48.54c0 0-.01 0-.01-.01S.48.52.48.51h.03c.01.01.01.01.01.02z" fill="#fff"/></svg>