<svg xmlns="http://www.w3.org/2000/svg" width="64" height="64" shape-rendering="geometricPrecision" text-rendering="geometricPrecision" image-rendering="optimizeQuality" fill-rule="evenodd" clip-rule="evenodd" viewBox="0 0 0.74 0.74"><path fill="#fff" d="M.23.35h.06V.31H.23v.04zm0 .08h.06V.38H.23v.05zm0 .08h.06V.46H.23v.05zm.11 0h.03V.46H.34v.05zm0-.08h.05S.39.42.4.41V.38H.34v.05zm0-.08H.4V.31H.34v.04zm.11 0h.06V.31H.45v.04zM.58.16H.51V.13C.51.12.5.12.49.12c0 0-.01 0-.01.01v.03h-.1V.13C.38.12.38.12.37.12S.35.12.35.13v.03H.26V.13C.26.12.25.12.24.12S.23.12.23.13v.03H.16C.14.16.12.18.12.21v.37c0 .02.02.04.04.04h.27L.4.59H.16C.15.59.15.58.15.58V.21C.15.2.15.2.16.2h.07v.03c0 .01 0 .01.01.01S.26.24.26.23V.2h.09v.03c0 .01.01.01.02.01S.38.24.38.23V.2h.1v.03c0 .01.01.01.01.01C.5.24.51.24.51.23V.2h.07S.59.2.59.21V.4l.03.03V.21C.62.18.6.16.58.16zM.5.38C.57.38.62.44.62.5.62.57.57.62.5.62.44.62.38.57.38.5.38.44.44.38.5.38zm0 .03A.09.09 0 0 0 .41.5c0 .06.04.1.09.1C.56.6.6.56.6.5.6.45.56.41.5.41zM.49.44L.5.43c.01 0 .02.01.02.01v.05h.06L.59.5C.59.51.58.51.58.51H.5S.49.51.49.5V.44z"/><path fill="none" d="M0 0h.74v.74H0z"/></svg>