<svg xmlns="http://www.w3.org/2000/svg" width="64" height="64" shape-rendering="geometricPrecision" text-rendering="geometricPrecision" image-rendering="optimizeQuality" fill-rule="evenodd" clip-rule="evenodd" viewBox="0 0 0.79 0.79"><path fill="none" d="M0 0h.79v.79H0z"/><path fill="#fff" d="M.62.16H.54V.13C.54.12.53.11.52.11c0 0-.01.01-.01.02v.03H.4V.13C.4.12.4.11.39.11S.37.12.37.13v.03H.26V.13C.26.12.26.11.25.11S.23.12.23.13v.03H.15C.13.16.11.18.11.21v.41c0 .02.02.04.04.04H.4L.37.63H.15L.14.62V.21C.14.2.15.19.15.19h.08v.04c0 .01.01.02.02.02S.26.24.26.23V.19h.11v.04c0 .01.01.02.02.02S.4.24.4.23V.19h.11v.04c0 .01.01.02.01.02C.53.25.54.24.54.23V.19h.08S.63.2.63.21v.16L.66.4V.21C.66.18.64.16.62.16zM.54.34V.32H.47v.03C.49.35.51.34.53.34h.01zM.35.37h.07V.32H.35v.05zm0 .09h.01A.21.21 0 0 1 .4.4H.35v.06zM.23.54H.3V.49H.23v.05zm0-.08H.3V.4H.23v.06zm0-.09H.3V.32H.23v.05zm.25.15C.47.52.46.51.45.5H.44C.44.51.43.52.43.53v.01c.01 0 .02.01.02.02.02.01.03.02.03.03C.49.59.49.6.5.6v.01S.51.61.51.6C.52.6.52.59.53.58S.55.55.57.53C.58.52.6.51.61.49.62.49.63.48.63.48.64.48.64.47.63.47S.6.46.59.46H.58L.55.49C.54.5.53.52.51.54v.01H.5S.48.53.48.52zM.53.38c.09 0 .16.07.16.15C.69.62.62.69.53.69.45.69.38.62.38.53.38.45.45.38.53.38z"/></svg>