<svg xmlns="http://www.w3.org/2000/svg" width="72" height="72" viewBox="0 0 0.8 0.8" shape-rendering="geometricPrecision" text-rendering="geometricPrecision" image-rendering="optimizeQuality" fill-rule="evenodd" clip-rule="evenodd"><path fill="none" d="M0 0h.8v.8H0z"/><path d="M.5.5H.31C.3.5.29.51.29.52c0 .02.01.02.02.02H.5C.51.54.52.54.52.52.52.51.51.5.5.5zM.54.43H.27C.26.43.25.43.25.45c0 .01.01.02.02.02h.27C.55.47.56.46.56.45.56.43.55.43.54.43zM.69.26L.56.13v.08C.56.24.54.26.51.26H.29C.26.26.24.24.24.21v-.1H.16C.13.11.11.13.11.16v.48c0 .03.02.05.05.05h.48C.67.69.69.67.69.64V.26zM.6.57C.6.59.59.6.57.6H.23C.21.6.2.59.2.57V.41C.2.39.21.38.23.38h.34C.59.38.6.39.6.41v.16zM.29.22h.22C.52.22.52.21.52.21v-.1H.28v.1l.01.01z" fill="#fff"/></svg>