<?xml version="1.0" encoding="UTF-8"?>
<!DOCTYPE svg PUBLIC "-//W3C//DTD SVG 1.1//EN" "http://www.w3.org/Graphics/SVG/1.1/DTD/svg11.dtd">
<!-- Creator: CorelDRAW 2017 -->
<svg xmlns="http://www.w3.org/2000/svg" xml:space="preserve" width="128px" height="128px" version="1.1" style="shape-rendering:geometricPrecision; text-rendering:geometricPrecision; image-rendering:optimizeQuality; fill-rule:evenodd; clip-rule:evenodd"
viewBox="0 0 3.28 3.28"
 xmlns:xlink="http://www.w3.org/1999/xlink">
 <defs>
  <style type="text/css">
   <![CDATA[
    .fil0 {fill:none}
    .fil1 {fill:white}
   ]]>
  </style>
 </defs>
 <g id="Camada_x0020_1">
  <metadata id="CorelCorpID_0Corel-Layer"/>
  <g id="_2031446761008">
   <rect class="fil0" width="3.28" height="3.28"/>
   <path class="fil1" d="M2.14 0.73c0.35,0.35 0.39,0.9 0.11,1.29l0.58 0.58 -0.23 0.23 -0.59 -0.58c-0.39,0.27 -0.93,0.23 -1.27,-0.11 -0.39,-0.39 -0.39,-1.02 0,-1.41 0.39,-0.38 1.01,-0.38 1.4,0zm-0.23 0.24c0.26,0.26 0.26,0.68 0,0.93 -0.26,0.26 -0.68,0.26 -0.94,0 -0.26,-0.25 -0.26,-0.67 0,-0.93 0.26,-0.26 0.68,-0.26 0.94,0z"/>
  </g>
 </g>
</svg>
