<?xml version="1.0" encoding="UTF-8"?>
<!DOCTYPE svg PUBLIC "-//W3C//DTD SVG 1.1//EN" "http://www.w3.org/Graphics/SVG/1.1/DTD/svg11.dtd">
<!-- Creator: CorelDRAW 2017 -->
<svg xmlns="http://www.w3.org/2000/svg" xml:space="preserve" width="72px" height="72px" version="1.1" style="shape-rendering:geometricPrecision; text-rendering:geometricPrecision; image-rendering:optimizeQuality; fill-rule:evenodd; clip-rule:evenodd"
viewBox="0 0 1.61 1.61"
 xmlns:xlink="http://www.w3.org/1999/xlink">
 <defs>
  <style type="text/css">
   <![CDATA[
    .fil0 {fill:none}
    .fil1 {fill:white}
   ]]>
  </style>
 </defs>
 <g id="Camada_x0020_1">
  <metadata id="CorelCorpID_0Corel-Layer"/>
  <g id="_1273906080">
   <rect class="fil0" width="1.61" height="1.61"/>
   <path class="fil1" d="M0.93 0.4c0.06,0.02 0.11,0.04 0.16,0.08l0.12 -0.13 0.11 0.1 -0.13 0.13c0.07,0.08 0.11,0.19 0.11,0.31 0,0.28 -0.22,0.5 -0.5,0.5 -0.28,0 -0.5,-0.22 -0.5,-0.5 0,-0.23 0.15,-0.43 0.37,-0.49l0 -0.18 0.26 0 0 0.18zm-0.13 0.16c0.18,0 0.33,0.15 0.33,0.33 0,0.18 -0.15,0.33 -0.33,0.33 -0.18,0 -0.33,-0.15 -0.33,-0.33 0,-0.18 0.15,-0.33 0.33,-0.33zm-0.06 0.27c0.02,-0.02 0.19,-0.1 0.23,-0.12 -0.02,0.03 -0.1,0.22 -0.11,0.24 -0.04,0.03 -0.09,0.03 -0.12,0 -0.03,-0.04 -0.03,-0.09 0,-0.12z"/>
  </g>
 </g>
</svg>
