<?xml version="1.0" encoding="UTF-8"?>
<!DOCTYPE svg PUBLIC "-//W3C//DTD SVG 1.1//EN" "http://www.w3.org/Graphics/SVG/1.1/DTD/svg11.dtd">
<!-- Creator: CorelDRAW 2018 (64 Bit Versão de avaliação) -->
<svg xmlns="http://www.w3.org/2000/svg" xml:space="preserve" width="72px" height="72px" version="1.1" style="shape-rendering:geometricPrecision; text-rendering:geometricPrecision; image-rendering:optimizeQuality; fill-rule:evenodd; clip-rule:evenodd"
viewBox="0 0 1.47 1.47"
 xmlns:xlink="http://www.w3.org/1999/xlink">
 <defs>
  <style type="text/css">
   <![CDATA[
    .fil0 {fill:none}
    .fil1 {fill:white}
   ]]>
  </style>
 </defs>
 <g id="Camada_x0020_1">
  <metadata id="CorelCorpID_0Corel-Layer"/>
  <g id="_1625700707712">
   <rect class="fil0" width="1.47" height="1.47"/>
   <g>
    <path class="fil1" d="M0.33 1.14c0.01,-0.03 0.07,-0.15 0.05,-0.17 -0.04,-0.06 -0.05,-0.1 -0.07,-0.17 -0.02,-0.12 0.01,-0.26 0.1,-0.36 0.16,-0.19 0.46,-0.21 0.64,-0.03 0.19,0.18 0.18,0.47 -0.01,0.64 -0.1,0.09 -0.23,0.12 -0.36,0.11 -0.06,-0.01 -0.11,-0.03 -0.17,-0.07 -0.02,-0.01 -0.14,0.05 -0.18,0.05zm0.37 -0.94l0.09 0c0.12,0.01 0.23,0.06 0.33,0.15 0.1,0.09 0.15,0.22 0.15,0.35l0 0.04c0,0.15 -0.07,0.3 -0.2,0.39 -0.12,0.1 -0.29,0.14 -0.44,0.1 -0.04,-0.01 -0.08,-0.02 -0.11,-0.03 -0.04,-0.03 -0.06,-0.01 -0.1,0.01 -0.05,0.01 -0.19,0.06 -0.22,0.06 0.02,-0.06 0.05,-0.14 0.07,-0.21 0.02,-0.06 0.03,-0.05 0,-0.1 -0.01,-0.04 -0.03,-0.07 -0.04,-0.11 -0.04,-0.14 0,-0.32 0.1,-0.45 0.09,-0.12 0.23,-0.19 0.37,-0.2z"/>
    <path class="fil1" d="M0.56 0.48c-0.07,0.03 -0.08,0.14 -0.05,0.2 0.02,0.05 0.07,0.12 0.11,0.16 0.08,0.07 0.3,0.2 0.38,0.07 0.03,-0.04 0.02,-0.07 -0.02,-0.09 -0.02,-0.01 -0.08,-0.04 -0.1,-0.04 -0.05,0.02 -0.02,0.13 -0.16,0.02 -0.03,-0.03 -0.05,-0.04 -0.07,-0.08 -0.04,-0.05 -0.02,-0.04 0.01,-0.08 0.02,-0.03 -0.01,-0.07 -0.02,-0.1 -0.02,-0.04 -0.02,-0.07 -0.08,-0.06z"/>
   </g>
  </g>
 </g>
</svg>
