<?xml version="1.0" encoding="UTF-8"?>
<!DOCTYPE svg PUBLIC "-//W3C//DTD SVG 1.1//EN" "http://www.w3.org/Graphics/SVG/1.1/DTD/svg11.dtd">
<!-- Creator: CorelDRAW 2018 (64 Bit Versão de avaliação) -->
<svg xmlns="http://www.w3.org/2000/svg" xml:space="preserve" width="72px" height="72px" version="1.1" style="shape-rendering:geometricPrecision; text-rendering:geometricPrecision; image-rendering:optimizeQuality; fill-rule:evenodd; clip-rule:evenodd"
viewBox="0 0 1.67 1.67"
 xmlns:xlink="http://www.w3.org/1999/xlink">
 <defs>
  <style type="text/css">
   <![CDATA[
    .fil0 {fill:none}
    .fil1 {fill:white;fill-rule:nonzero}
   ]]>
  </style>
 </defs>
 <g id="Camada_x0020_1">
  <metadata id="CorelCorpID_0Corel-Layer"/>
  <g id="_1625709032752">
   <rect class="fil0" width="1.67" height="1.67"/>
   <path class="fil1" d="M0.84 0.2c0.17,0 0.33,0.07 0.45,0.18 0.11,0.12 0.19,0.28 0.19,0.46 0,0.17 -0.08,0.33 -0.19,0.45 -0.12,0.11 -0.28,0.19 -0.45,0.19 -0.18,0 -0.34,-0.08 -0.46,-0.19l0 0c-0.11,-0.12 -0.18,-0.28 -0.18,-0.45 0,-0.18 0.07,-0.34 0.18,-0.46l0.01 0c0.11,-0.11 0.27,-0.18 0.45,-0.18zm-0.45 0.99c0.05,-0.03 0.1,-0.06 0.16,-0.08 -0.01,-0.07 -0.02,-0.15 -0.02,-0.24l-0.26 0c0.01,0.12 0.05,0.23 0.12,0.32zm0.23 -0.1c0.06,-0.02 0.12,-0.03 0.18,-0.03l0 -0.19 -0.2 0c0,0.08 0.01,0.15 0.02,0.22zm0.25 -0.03c0.06,0 0.12,0.01 0.18,0.03 0.02,-0.07 0.02,-0.14 0.03,-0.21l-0.21 -0.01 0 0.19zm0.25 0.05c0.06,0.02 0.11,0.05 0.16,0.08 0.07,-0.09 0.12,-0.2 0.12,-0.31l-0.25 0c-0.01,0.08 -0.02,0.16 -0.03,0.23zm0.12 0.13c-0.04,-0.03 -0.09,-0.05 -0.14,-0.06 -0.01,0.03 -0.02,0.07 -0.04,0.1 -0.01,0.04 -0.04,0.07 -0.06,0.1 0.09,-0.03 0.17,-0.07 0.24,-0.14zm-0.21 -0.08c-0.05,-0.02 -0.1,-0.03 -0.16,-0.03l0 0.27c0.05,-0.02 0.09,-0.07 0.13,-0.15 0.01,-0.03 0.02,-0.06 0.03,-0.09zm-0.23 -0.03c-0.06,0 -0.11,0.01 -0.16,0.03 0.01,0.03 0.02,0.06 0.03,0.09 0.04,0.08 0.08,0.13 0.13,0.15l0 -0.27zm-0.23 0.05c-0.05,0.01 -0.09,0.03 -0.13,0.06 0.06,0.07 0.14,0.11 0.23,0.14 -0.02,-0.03 -0.04,-0.06 -0.06,-0.1 -0.01,-0.03 -0.03,-0.07 -0.04,-0.1zm-0.3 -0.38l0.26 0c0,-0.08 0.01,-0.17 0.03,-0.24 -0.06,-0.02 -0.12,-0.05 -0.17,-0.08 -0.07,0.09 -0.11,0.2 -0.12,0.32zm0.33 0l0.2 0 0 -0.2c-0.06,0 -0.12,-0.01 -0.18,-0.02 -0.01,0.07 -0.02,0.14 -0.02,0.22zm0.27 0l0.21 0.01c0,-0.09 -0.01,-0.16 -0.03,-0.23 -0.06,0.01 -0.12,0.02 -0.18,0.02l0 0.2zm0.28 0.01l0.26 0c-0.01,-0.13 -0.06,-0.24 -0.13,-0.33 -0.05,0.03 -0.1,0.06 -0.16,0.08 0.01,0.07 0.03,0.16 0.03,0.25zm-0.71 -0.38c0.04,0.02 0.09,0.04 0.13,0.06 0.01,-0.03 0.03,-0.07 0.04,-0.1 0.02,-0.03 0.04,-0.07 0.06,-0.1 -0.09,0.03 -0.17,0.08 -0.23,0.14zm0.2 0.08c0.05,0.01 0.11,0.02 0.16,0.02l0 -0.26c-0.04,0.02 -0.09,0.07 -0.13,0.15 -0.01,0.03 -0.02,0.06 -0.03,0.09zm0.23 0.02c0.06,0 0.11,-0.01 0.16,-0.02 -0.01,-0.03 -0.02,-0.06 -0.03,-0.09 -0.03,-0.07 -0.08,-0.13 -0.13,-0.15l0 0.26zm0.23 -0.04c0.05,-0.02 0.09,-0.04 0.13,-0.06 -0.06,-0.06 -0.14,-0.11 -0.23,-0.14 0.02,0.03 0.05,0.07 0.06,0.1 0.02,0.03 0.03,0.07 0.04,0.1z"/>
  </g>
 </g>
</svg>
