<svg xmlns="http://www.w3.org/2000/svg" width="64" height="64" shape-rendering="geometricPrecision" text-rendering="geometricPrecision" image-rendering="optimizeQuality" fill-rule="evenodd" clip-rule="evenodd" viewBox="0 0 1.78 1.78"><path fill="none" d="M0 0h1.78v1.78H0z"/><path fill="#093" d="M.51.83C.46.77.39.72.33.67.31.65.28.63.26.66.24.7.2.82.2.88.2.9.21.91.22.92c.05.04.09.08.14.12.07.07.14.15.2.23.03.03.05.06.07.09.01.02.02.03.03.04.02.01.04.01.07-.03.04-.05.08-.1.11-.15.1-.12.19-.23.29-.34.09-.09.19-.18.29-.26.05-.03.1-.07.14-.1.02-.01.04-.03.01-.04-.08-.02-.24-.09-.32-.1-.03-.01-.02 0-.04.01l-.18.18a2 2 0 0 0-.28.37C.74.96.72.99.71 1c-.01.02-.02.02-.03.01C.65 1 .55.87.51.83z"/></svg>