<svg xmlns="http://www.w3.org/2000/svg" width="64" height="64" shape-rendering="geometricPrecision" text-rendering="geometricPrecision" image-rendering="optimizeQuality" fill-rule="evenodd" clip-rule="evenodd" viewBox="0 0 0.57 0.57"><path fill="none" d="M.57.57H0V0h.57z"/><path fill="#fff" d="M.2.42H.18C.17.43.15.43.14.43.14.42.14.4.15.39V.37a.193.193 0 0 1-.03-.1C.13.19.19.12.28.12c.05 0 .09.02.13.06.03.04.05.1.03.16C.41.4.35.44.28.44.25.44.22.44.2.42zM.1.33c0 .02.01.03.01.05.01 0 0 .01 0 .02S.09.47.09.48L.17.46h.01C.2.45.18.45.2.46.26.49.33.48.38.45.42.43.46.39.47.34.49.28.48.22.44.16.37.08.25.05.15.14A.19.19 0 0 0 .1.33zM.19.27L.2.28c0 .01.01.01.01.01.01.01.01.02.02.03.03.03.1.08.14.04C.38.36.39.34.38.33.38.32.37.33.37.32L.35.31C.34.31.33.3.33.31.31.33.31.34.29.33.27.32.26.3.25.29.23.27.23.27.24.26.26.24.25.24.25.23.24.2.24.19.22.19.21.19.21.19.2.2.17.23.19.26.19.27z"/></svg>