<?xml version="1.0" encoding="UTF-8"?>
<!DOCTYPE svg PUBLIC "-//W3C//DTD SVG 1.1//EN" "http://www.w3.org/Graphics/SVG/1.1/DTD/svg11.dtd">
<!-- Creator: CorelDRAW 2017 -->
<svg xmlns="http://www.w3.org/2000/svg" xml:space="preserve" width="72px" height="72px" version="1.1" style="shape-rendering:geometricPrecision; text-rendering:geometricPrecision; image-rendering:optimizeQuality; fill-rule:evenodd; clip-rule:evenodd"
viewBox="0 0 1.31 1.31"
 xmlns:xlink="http://www.w3.org/1999/xlink">
 <defs>
  <style type="text/css">
   <![CDATA[
    .fil0 {fill:none}
    .fil1 {fill:red;fill-rule:nonzero}
   ]]>
  </style>
 </defs>
 <g id="Camada_x0020_1">
  <metadata id="CorelCorpID_0Corel-Layer"/>
  <g id="_1208498960">
   <rect class="fil0" width="1.31" height="1.31"/>
   <path class="fil1" d="M0.6 0.88c0,-0.01 0,-0.02 0,-0.03 0,-0.04 0.01,-0.08 0.02,-0.11 0.01,-0.02 0.02,-0.04 0.04,-0.07 0.01,-0.01 0.04,-0.04 0.08,-0.07 0.03,-0.03 0.06,-0.06 0.07,-0.08 0.01,-0.02 0.01,-0.04 0.01,-0.06 0,-0.04 -0.01,-0.08 -0.05,-0.11 -0.03,-0.03 -0.07,-0.05 -0.11,-0.05 -0.05,0 -0.08,0.02 -0.11,0.05 -0.04,0.03 -0.05,0.07 -0.06,0.13l-0.11 -0.01c0.01,-0.08 0.04,-0.15 0.08,-0.19 0.05,-0.04 0.12,-0.06 0.2,-0.06 0.08,0 0.15,0.02 0.2,0.07 0.05,0.04 0.07,0.1 0.07,0.16 0,0.04 -0.01,0.07 -0.03,0.11 -0.01,0.03 -0.05,0.07 -0.1,0.11 -0.03,0.03 -0.06,0.05 -0.07,0.07 -0.01,0.01 -0.01,0.03 -0.02,0.05 0,0.02 -0.01,0.05 -0.01,0.09l-0.1 0zm-0.02 0.21l0 -0.12 0.12 0 0 0.12 -0.12 0z"/>
  </g>
 </g>
</svg>
